%TF.GenerationSoftware,KiCad,Pcbnew,8.0.6-unknown-202410280735~4a7dcfdd1f~ubuntu22.04.1*%
%TF.CreationDate,2024-10-31T16:24:49+09:00*%
%TF.ProjectId,MG5-ESP32-Shield,4d47352d-4553-4503-9332-2d536869656c,rev?*%
%TF.SameCoordinates,Original*%
%TF.FileFunction,Drillmap*%
%TF.FilePolarity,Positive*%
%FSLAX45Y45*%
G04 Gerber Fmt 4.5, Leading zero omitted, Abs format (unit mm)*
G04 Created by KiCad (PCBNEW 8.0.6-unknown-202410280735~4a7dcfdd1f~ubuntu22.04.1) date 2024-10-31 16:24:49*
%MOMM*%
%LPD*%
G01*
G04 APERTURE LIST*
%ADD10C,0.050000*%
%ADD11C,0.200000*%
%ADD12C,0.320000*%
G04 APERTURE END LIST*
D10*
X11400000Y-13800000D02*
X11400000Y-5800000D01*
X11900000Y-14300000D02*
X19100000Y-14300000D01*
X19100000Y-5300000D02*
G75*
G02*
X19600000Y-5800000I0J-500000D01*
G01*
X19600000Y-13800000D02*
X19600000Y-5800000D01*
X11400000Y-5800000D02*
G75*
G02*
X11900000Y-5300000I500000J0D01*
G01*
X11900000Y-14300000D02*
G75*
G02*
X11400000Y-13800000I0J500000D01*
G01*
X19100000Y-5300000D02*
X11900000Y-5300000D01*
X19600000Y-13800000D02*
G75*
G02*
X19100000Y-14300000I-500000J0D01*
G01*
D11*
D12*
X11740000Y-5740000D02*
X12060000Y-6060000D01*
X12060000Y-5740000D02*
X11740000Y-6060000D01*
X11740000Y-13640000D02*
X12060000Y-13960000D01*
X12060000Y-13640000D02*
X11740000Y-13960000D01*
X18940000Y-5640000D02*
X19260000Y-5960000D01*
X19260000Y-5640000D02*
X18940000Y-5960000D01*
X18940000Y-13640000D02*
X19260000Y-13960000D01*
X19260000Y-13640000D02*
X18940000Y-13960000D01*
D11*
X11658277Y-14613984D02*
X11658277Y-14413984D01*
X11658277Y-14413984D02*
X11705896Y-14413984D01*
X11705896Y-14413984D02*
X11734467Y-14423508D01*
X11734467Y-14423508D02*
X11753515Y-14442555D01*
X11753515Y-14442555D02*
X11763039Y-14461603D01*
X11763039Y-14461603D02*
X11772562Y-14499698D01*
X11772562Y-14499698D02*
X11772562Y-14528269D01*
X11772562Y-14528269D02*
X11763039Y-14566365D01*
X11763039Y-14566365D02*
X11753515Y-14585412D01*
X11753515Y-14585412D02*
X11734467Y-14604460D01*
X11734467Y-14604460D02*
X11705896Y-14613984D01*
X11705896Y-14613984D02*
X11658277Y-14613984D01*
X11858277Y-14613984D02*
X11858277Y-14480650D01*
X11858277Y-14518746D02*
X11867801Y-14499698D01*
X11867801Y-14499698D02*
X11877324Y-14490174D01*
X11877324Y-14490174D02*
X11896372Y-14480650D01*
X11896372Y-14480650D02*
X11915420Y-14480650D01*
X11982086Y-14613984D02*
X11982086Y-14480650D01*
X11982086Y-14413984D02*
X11972562Y-14423508D01*
X11972562Y-14423508D02*
X11982086Y-14433031D01*
X11982086Y-14433031D02*
X11991610Y-14423508D01*
X11991610Y-14423508D02*
X11982086Y-14413984D01*
X11982086Y-14413984D02*
X11982086Y-14433031D01*
X12105896Y-14613984D02*
X12086848Y-14604460D01*
X12086848Y-14604460D02*
X12077324Y-14585412D01*
X12077324Y-14585412D02*
X12077324Y-14413984D01*
X12210658Y-14613984D02*
X12191610Y-14604460D01*
X12191610Y-14604460D02*
X12182086Y-14585412D01*
X12182086Y-14585412D02*
X12182086Y-14413984D01*
X12439229Y-14613984D02*
X12439229Y-14413984D01*
X12439229Y-14413984D02*
X12505896Y-14556841D01*
X12505896Y-14556841D02*
X12572562Y-14413984D01*
X12572562Y-14413984D02*
X12572562Y-14613984D01*
X12753515Y-14613984D02*
X12753515Y-14509222D01*
X12753515Y-14509222D02*
X12743991Y-14490174D01*
X12743991Y-14490174D02*
X12724943Y-14480650D01*
X12724943Y-14480650D02*
X12686848Y-14480650D01*
X12686848Y-14480650D02*
X12667801Y-14490174D01*
X12753515Y-14604460D02*
X12734467Y-14613984D01*
X12734467Y-14613984D02*
X12686848Y-14613984D01*
X12686848Y-14613984D02*
X12667801Y-14604460D01*
X12667801Y-14604460D02*
X12658277Y-14585412D01*
X12658277Y-14585412D02*
X12658277Y-14566365D01*
X12658277Y-14566365D02*
X12667801Y-14547317D01*
X12667801Y-14547317D02*
X12686848Y-14537793D01*
X12686848Y-14537793D02*
X12734467Y-14537793D01*
X12734467Y-14537793D02*
X12753515Y-14528269D01*
X12848753Y-14480650D02*
X12848753Y-14680650D01*
X12848753Y-14490174D02*
X12867801Y-14480650D01*
X12867801Y-14480650D02*
X12905896Y-14480650D01*
X12905896Y-14480650D02*
X12924943Y-14490174D01*
X12924943Y-14490174D02*
X12934467Y-14499698D01*
X12934467Y-14499698D02*
X12943991Y-14518746D01*
X12943991Y-14518746D02*
X12943991Y-14575888D01*
X12943991Y-14575888D02*
X12934467Y-14594936D01*
X12934467Y-14594936D02*
X12924943Y-14604460D01*
X12924943Y-14604460D02*
X12905896Y-14613984D01*
X12905896Y-14613984D02*
X12867801Y-14613984D01*
X12867801Y-14613984D02*
X12848753Y-14604460D01*
X13029705Y-14594936D02*
X13039229Y-14604460D01*
X13039229Y-14604460D02*
X13029705Y-14613984D01*
X13029705Y-14613984D02*
X13020182Y-14604460D01*
X13020182Y-14604460D02*
X13029705Y-14594936D01*
X13029705Y-14594936D02*
X13029705Y-14613984D01*
X13029705Y-14490174D02*
X13039229Y-14499698D01*
X13039229Y-14499698D02*
X13029705Y-14509222D01*
X13029705Y-14509222D02*
X13020182Y-14499698D01*
X13020182Y-14499698D02*
X13029705Y-14490174D01*
X13029705Y-14490174D02*
X13029705Y-14509222D01*
X11197500Y-14842500D02*
X11397500Y-15042500D01*
X11397500Y-14842500D02*
X11197500Y-15042500D01*
X11639229Y-14833984D02*
X11763039Y-14833984D01*
X11763039Y-14833984D02*
X11696372Y-14910174D01*
X11696372Y-14910174D02*
X11724943Y-14910174D01*
X11724943Y-14910174D02*
X11743991Y-14919698D01*
X11743991Y-14919698D02*
X11753515Y-14929222D01*
X11753515Y-14929222D02*
X11763039Y-14948269D01*
X11763039Y-14948269D02*
X11763039Y-14995888D01*
X11763039Y-14995888D02*
X11753515Y-15014936D01*
X11753515Y-15014936D02*
X11743991Y-15024460D01*
X11743991Y-15024460D02*
X11724943Y-15033984D01*
X11724943Y-15033984D02*
X11667801Y-15033984D01*
X11667801Y-15033984D02*
X11648753Y-15024460D01*
X11648753Y-15024460D02*
X11639229Y-15014936D01*
X11848753Y-15014936D02*
X11858277Y-15024460D01*
X11858277Y-15024460D02*
X11848753Y-15033984D01*
X11848753Y-15033984D02*
X11839229Y-15024460D01*
X11839229Y-15024460D02*
X11848753Y-15014936D01*
X11848753Y-15014936D02*
X11848753Y-15033984D01*
X11934467Y-14853031D02*
X11943991Y-14843508D01*
X11943991Y-14843508D02*
X11963039Y-14833984D01*
X11963039Y-14833984D02*
X12010658Y-14833984D01*
X12010658Y-14833984D02*
X12029705Y-14843508D01*
X12029705Y-14843508D02*
X12039229Y-14853031D01*
X12039229Y-14853031D02*
X12048753Y-14872079D01*
X12048753Y-14872079D02*
X12048753Y-14891127D01*
X12048753Y-14891127D02*
X12039229Y-14919698D01*
X12039229Y-14919698D02*
X11924943Y-15033984D01*
X11924943Y-15033984D02*
X12048753Y-15033984D01*
X12172562Y-14833984D02*
X12191610Y-14833984D01*
X12191610Y-14833984D02*
X12210658Y-14843508D01*
X12210658Y-14843508D02*
X12220182Y-14853031D01*
X12220182Y-14853031D02*
X12229705Y-14872079D01*
X12229705Y-14872079D02*
X12239229Y-14910174D01*
X12239229Y-14910174D02*
X12239229Y-14957793D01*
X12239229Y-14957793D02*
X12229705Y-14995888D01*
X12229705Y-14995888D02*
X12220182Y-15014936D01*
X12220182Y-15014936D02*
X12210658Y-15024460D01*
X12210658Y-15024460D02*
X12191610Y-15033984D01*
X12191610Y-15033984D02*
X12172562Y-15033984D01*
X12172562Y-15033984D02*
X12153515Y-15024460D01*
X12153515Y-15024460D02*
X12143991Y-15014936D01*
X12143991Y-15014936D02*
X12134467Y-14995888D01*
X12134467Y-14995888D02*
X12124943Y-14957793D01*
X12124943Y-14957793D02*
X12124943Y-14910174D01*
X12124943Y-14910174D02*
X12134467Y-14872079D01*
X12134467Y-14872079D02*
X12143991Y-14853031D01*
X12143991Y-14853031D02*
X12153515Y-14843508D01*
X12153515Y-14843508D02*
X12172562Y-14833984D01*
X12363039Y-14833984D02*
X12382086Y-14833984D01*
X12382086Y-14833984D02*
X12401134Y-14843508D01*
X12401134Y-14843508D02*
X12410658Y-14853031D01*
X12410658Y-14853031D02*
X12420182Y-14872079D01*
X12420182Y-14872079D02*
X12429705Y-14910174D01*
X12429705Y-14910174D02*
X12429705Y-14957793D01*
X12429705Y-14957793D02*
X12420182Y-14995888D01*
X12420182Y-14995888D02*
X12410658Y-15014936D01*
X12410658Y-15014936D02*
X12401134Y-15024460D01*
X12401134Y-15024460D02*
X12382086Y-15033984D01*
X12382086Y-15033984D02*
X12363039Y-15033984D01*
X12363039Y-15033984D02*
X12343991Y-15024460D01*
X12343991Y-15024460D02*
X12334467Y-15014936D01*
X12334467Y-15014936D02*
X12324943Y-14995888D01*
X12324943Y-14995888D02*
X12315420Y-14957793D01*
X12315420Y-14957793D02*
X12315420Y-14910174D01*
X12315420Y-14910174D02*
X12324943Y-14872079D01*
X12324943Y-14872079D02*
X12334467Y-14853031D01*
X12334467Y-14853031D02*
X12343991Y-14843508D01*
X12343991Y-14843508D02*
X12363039Y-14833984D01*
X12515420Y-15033984D02*
X12515420Y-14900650D01*
X12515420Y-14919698D02*
X12524943Y-14910174D01*
X12524943Y-14910174D02*
X12543991Y-14900650D01*
X12543991Y-14900650D02*
X12572563Y-14900650D01*
X12572563Y-14900650D02*
X12591610Y-14910174D01*
X12591610Y-14910174D02*
X12601134Y-14929222D01*
X12601134Y-14929222D02*
X12601134Y-15033984D01*
X12601134Y-14929222D02*
X12610658Y-14910174D01*
X12610658Y-14910174D02*
X12629705Y-14900650D01*
X12629705Y-14900650D02*
X12658277Y-14900650D01*
X12658277Y-14900650D02*
X12677324Y-14910174D01*
X12677324Y-14910174D02*
X12686848Y-14929222D01*
X12686848Y-14929222D02*
X12686848Y-15033984D01*
X12782086Y-15033984D02*
X12782086Y-14900650D01*
X12782086Y-14919698D02*
X12791610Y-14910174D01*
X12791610Y-14910174D02*
X12810658Y-14900650D01*
X12810658Y-14900650D02*
X12839229Y-14900650D01*
X12839229Y-14900650D02*
X12858277Y-14910174D01*
X12858277Y-14910174D02*
X12867801Y-14929222D01*
X12867801Y-14929222D02*
X12867801Y-15033984D01*
X12867801Y-14929222D02*
X12877324Y-14910174D01*
X12877324Y-14910174D02*
X12896372Y-14900650D01*
X12896372Y-14900650D02*
X12924943Y-14900650D01*
X12924943Y-14900650D02*
X12943991Y-14910174D01*
X12943991Y-14910174D02*
X12953515Y-14929222D01*
X12953515Y-14929222D02*
X12953515Y-15033984D01*
X13343991Y-14824460D02*
X13172563Y-15081603D01*
X13601134Y-14833984D02*
X13620182Y-14833984D01*
X13620182Y-14833984D02*
X13639229Y-14843508D01*
X13639229Y-14843508D02*
X13648753Y-14853031D01*
X13648753Y-14853031D02*
X13658277Y-14872079D01*
X13658277Y-14872079D02*
X13667801Y-14910174D01*
X13667801Y-14910174D02*
X13667801Y-14957793D01*
X13667801Y-14957793D02*
X13658277Y-14995888D01*
X13658277Y-14995888D02*
X13648753Y-15014936D01*
X13648753Y-15014936D02*
X13639229Y-15024460D01*
X13639229Y-15024460D02*
X13620182Y-15033984D01*
X13620182Y-15033984D02*
X13601134Y-15033984D01*
X13601134Y-15033984D02*
X13582086Y-15024460D01*
X13582086Y-15024460D02*
X13572563Y-15014936D01*
X13572563Y-15014936D02*
X13563039Y-14995888D01*
X13563039Y-14995888D02*
X13553515Y-14957793D01*
X13553515Y-14957793D02*
X13553515Y-14910174D01*
X13553515Y-14910174D02*
X13563039Y-14872079D01*
X13563039Y-14872079D02*
X13572563Y-14853031D01*
X13572563Y-14853031D02*
X13582086Y-14843508D01*
X13582086Y-14843508D02*
X13601134Y-14833984D01*
X13753515Y-15014936D02*
X13763039Y-15024460D01*
X13763039Y-15024460D02*
X13753515Y-15033984D01*
X13753515Y-15033984D02*
X13743991Y-15024460D01*
X13743991Y-15024460D02*
X13753515Y-15014936D01*
X13753515Y-15014936D02*
X13753515Y-15033984D01*
X13953515Y-15033984D02*
X13839229Y-15033984D01*
X13896372Y-15033984D02*
X13896372Y-14833984D01*
X13896372Y-14833984D02*
X13877325Y-14862555D01*
X13877325Y-14862555D02*
X13858277Y-14881603D01*
X13858277Y-14881603D02*
X13839229Y-14891127D01*
X14029706Y-14853031D02*
X14039229Y-14843508D01*
X14039229Y-14843508D02*
X14058277Y-14833984D01*
X14058277Y-14833984D02*
X14105896Y-14833984D01*
X14105896Y-14833984D02*
X14124944Y-14843508D01*
X14124944Y-14843508D02*
X14134467Y-14853031D01*
X14134467Y-14853031D02*
X14143991Y-14872079D01*
X14143991Y-14872079D02*
X14143991Y-14891127D01*
X14143991Y-14891127D02*
X14134467Y-14919698D01*
X14134467Y-14919698D02*
X14020182Y-15033984D01*
X14020182Y-15033984D02*
X14143991Y-15033984D01*
X14315420Y-14833984D02*
X14277325Y-14833984D01*
X14277325Y-14833984D02*
X14258277Y-14843508D01*
X14258277Y-14843508D02*
X14248753Y-14853031D01*
X14248753Y-14853031D02*
X14229706Y-14881603D01*
X14229706Y-14881603D02*
X14220182Y-14919698D01*
X14220182Y-14919698D02*
X14220182Y-14995888D01*
X14220182Y-14995888D02*
X14229706Y-15014936D01*
X14229706Y-15014936D02*
X14239229Y-15024460D01*
X14239229Y-15024460D02*
X14258277Y-15033984D01*
X14258277Y-15033984D02*
X14296372Y-15033984D01*
X14296372Y-15033984D02*
X14315420Y-15024460D01*
X14315420Y-15024460D02*
X14324944Y-15014936D01*
X14324944Y-15014936D02*
X14334467Y-14995888D01*
X14334467Y-14995888D02*
X14334467Y-14948269D01*
X14334467Y-14948269D02*
X14324944Y-14929222D01*
X14324944Y-14929222D02*
X14315420Y-14919698D01*
X14315420Y-14919698D02*
X14296372Y-14910174D01*
X14296372Y-14910174D02*
X14258277Y-14910174D01*
X14258277Y-14910174D02*
X14239229Y-14919698D01*
X14239229Y-14919698D02*
X14229706Y-14929222D01*
X14229706Y-14929222D02*
X14220182Y-14948269D01*
X14458277Y-14833984D02*
X14477325Y-14833984D01*
X14477325Y-14833984D02*
X14496372Y-14843508D01*
X14496372Y-14843508D02*
X14505896Y-14853031D01*
X14505896Y-14853031D02*
X14515420Y-14872079D01*
X14515420Y-14872079D02*
X14524944Y-14910174D01*
X14524944Y-14910174D02*
X14524944Y-14957793D01*
X14524944Y-14957793D02*
X14515420Y-14995888D01*
X14515420Y-14995888D02*
X14505896Y-15014936D01*
X14505896Y-15014936D02*
X14496372Y-15024460D01*
X14496372Y-15024460D02*
X14477325Y-15033984D01*
X14477325Y-15033984D02*
X14458277Y-15033984D01*
X14458277Y-15033984D02*
X14439229Y-15024460D01*
X14439229Y-15024460D02*
X14429706Y-15014936D01*
X14429706Y-15014936D02*
X14420182Y-14995888D01*
X14420182Y-14995888D02*
X14410658Y-14957793D01*
X14410658Y-14957793D02*
X14410658Y-14910174D01*
X14410658Y-14910174D02*
X14420182Y-14872079D01*
X14420182Y-14872079D02*
X14429706Y-14853031D01*
X14429706Y-14853031D02*
X14439229Y-14843508D01*
X14439229Y-14843508D02*
X14458277Y-14833984D01*
X14601134Y-14833984D02*
X14601134Y-14872079D01*
X14677325Y-14833984D02*
X14677325Y-14872079D01*
X14972563Y-15110174D02*
X14963039Y-15100650D01*
X14963039Y-15100650D02*
X14943991Y-15072079D01*
X14943991Y-15072079D02*
X14934468Y-15053031D01*
X14934468Y-15053031D02*
X14924944Y-15024460D01*
X14924944Y-15024460D02*
X14915420Y-14976841D01*
X14915420Y-14976841D02*
X14915420Y-14938746D01*
X14915420Y-14938746D02*
X14924944Y-14891127D01*
X14924944Y-14891127D02*
X14934468Y-14862555D01*
X14934468Y-14862555D02*
X14943991Y-14843508D01*
X14943991Y-14843508D02*
X14963039Y-14814936D01*
X14963039Y-14814936D02*
X14972563Y-14805412D01*
X15134468Y-14900650D02*
X15134468Y-15033984D01*
X15086848Y-14824460D02*
X15039229Y-14967317D01*
X15039229Y-14967317D02*
X15163039Y-14967317D01*
X15391610Y-15033984D02*
X15391610Y-14833984D01*
X15477325Y-15033984D02*
X15477325Y-14929222D01*
X15477325Y-14929222D02*
X15467801Y-14910174D01*
X15467801Y-14910174D02*
X15448753Y-14900650D01*
X15448753Y-14900650D02*
X15420182Y-14900650D01*
X15420182Y-14900650D02*
X15401134Y-14910174D01*
X15401134Y-14910174D02*
X15391610Y-14919698D01*
X15601134Y-15033984D02*
X15582087Y-15024460D01*
X15582087Y-15024460D02*
X15572563Y-15014936D01*
X15572563Y-15014936D02*
X15563039Y-14995888D01*
X15563039Y-14995888D02*
X15563039Y-14938746D01*
X15563039Y-14938746D02*
X15572563Y-14919698D01*
X15572563Y-14919698D02*
X15582087Y-14910174D01*
X15582087Y-14910174D02*
X15601134Y-14900650D01*
X15601134Y-14900650D02*
X15629706Y-14900650D01*
X15629706Y-14900650D02*
X15648753Y-14910174D01*
X15648753Y-14910174D02*
X15658277Y-14919698D01*
X15658277Y-14919698D02*
X15667801Y-14938746D01*
X15667801Y-14938746D02*
X15667801Y-14995888D01*
X15667801Y-14995888D02*
X15658277Y-15014936D01*
X15658277Y-15014936D02*
X15648753Y-15024460D01*
X15648753Y-15024460D02*
X15629706Y-15033984D01*
X15629706Y-15033984D02*
X15601134Y-15033984D01*
X15782087Y-15033984D02*
X15763039Y-15024460D01*
X15763039Y-15024460D02*
X15753515Y-15005412D01*
X15753515Y-15005412D02*
X15753515Y-14833984D01*
X15934468Y-15024460D02*
X15915420Y-15033984D01*
X15915420Y-15033984D02*
X15877325Y-15033984D01*
X15877325Y-15033984D02*
X15858277Y-15024460D01*
X15858277Y-15024460D02*
X15848753Y-15005412D01*
X15848753Y-15005412D02*
X15848753Y-14929222D01*
X15848753Y-14929222D02*
X15858277Y-14910174D01*
X15858277Y-14910174D02*
X15877325Y-14900650D01*
X15877325Y-14900650D02*
X15915420Y-14900650D01*
X15915420Y-14900650D02*
X15934468Y-14910174D01*
X15934468Y-14910174D02*
X15943991Y-14929222D01*
X15943991Y-14929222D02*
X15943991Y-14948269D01*
X15943991Y-14948269D02*
X15848753Y-14967317D01*
X16020182Y-15024460D02*
X16039230Y-15033984D01*
X16039230Y-15033984D02*
X16077325Y-15033984D01*
X16077325Y-15033984D02*
X16096372Y-15024460D01*
X16096372Y-15024460D02*
X16105896Y-15005412D01*
X16105896Y-15005412D02*
X16105896Y-14995888D01*
X16105896Y-14995888D02*
X16096372Y-14976841D01*
X16096372Y-14976841D02*
X16077325Y-14967317D01*
X16077325Y-14967317D02*
X16048753Y-14967317D01*
X16048753Y-14967317D02*
X16029706Y-14957793D01*
X16029706Y-14957793D02*
X16020182Y-14938746D01*
X16020182Y-14938746D02*
X16020182Y-14929222D01*
X16020182Y-14929222D02*
X16029706Y-14910174D01*
X16029706Y-14910174D02*
X16048753Y-14900650D01*
X16048753Y-14900650D02*
X16077325Y-14900650D01*
X16077325Y-14900650D02*
X16096372Y-14910174D01*
X16172563Y-15110174D02*
X16182087Y-15100650D01*
X16182087Y-15100650D02*
X16201134Y-15072079D01*
X16201134Y-15072079D02*
X16210658Y-15053031D01*
X16210658Y-15053031D02*
X16220182Y-15024460D01*
X16220182Y-15024460D02*
X16229706Y-14976841D01*
X16229706Y-14976841D02*
X16229706Y-14938746D01*
X16229706Y-14938746D02*
X16220182Y-14891127D01*
X16220182Y-14891127D02*
X16210658Y-14862555D01*
X16210658Y-14862555D02*
X16201134Y-14843508D01*
X16201134Y-14843508D02*
X16182087Y-14814936D01*
X16182087Y-14814936D02*
X16172563Y-14805412D01*
X16534468Y-15110174D02*
X16524944Y-15100650D01*
X16524944Y-15100650D02*
X16505896Y-15072079D01*
X16505896Y-15072079D02*
X16496372Y-15053031D01*
X16496372Y-15053031D02*
X16486849Y-15024460D01*
X16486849Y-15024460D02*
X16477325Y-14976841D01*
X16477325Y-14976841D02*
X16477325Y-14938746D01*
X16477325Y-14938746D02*
X16486849Y-14891127D01*
X16486849Y-14891127D02*
X16496372Y-14862555D01*
X16496372Y-14862555D02*
X16505896Y-14843508D01*
X16505896Y-14843508D02*
X16524944Y-14814936D01*
X16524944Y-14814936D02*
X16534468Y-14805412D01*
X16610658Y-14900650D02*
X16610658Y-15033984D01*
X16610658Y-14919698D02*
X16620182Y-14910174D01*
X16620182Y-14910174D02*
X16639230Y-14900650D01*
X16639230Y-14900650D02*
X16667801Y-14900650D01*
X16667801Y-14900650D02*
X16686849Y-14910174D01*
X16686849Y-14910174D02*
X16696372Y-14929222D01*
X16696372Y-14929222D02*
X16696372Y-15033984D01*
X16820182Y-15033984D02*
X16801134Y-15024460D01*
X16801134Y-15024460D02*
X16791611Y-15014936D01*
X16791611Y-15014936D02*
X16782087Y-14995888D01*
X16782087Y-14995888D02*
X16782087Y-14938746D01*
X16782087Y-14938746D02*
X16791611Y-14919698D01*
X16791611Y-14919698D02*
X16801134Y-14910174D01*
X16801134Y-14910174D02*
X16820182Y-14900650D01*
X16820182Y-14900650D02*
X16848754Y-14900650D01*
X16848754Y-14900650D02*
X16867801Y-14910174D01*
X16867801Y-14910174D02*
X16877325Y-14919698D01*
X16877325Y-14919698D02*
X16886849Y-14938746D01*
X16886849Y-14938746D02*
X16886849Y-14995888D01*
X16886849Y-14995888D02*
X16877325Y-15014936D01*
X16877325Y-15014936D02*
X16867801Y-15024460D01*
X16867801Y-15024460D02*
X16848754Y-15033984D01*
X16848754Y-15033984D02*
X16820182Y-15033984D01*
X16943992Y-14900650D02*
X17020182Y-14900650D01*
X16972563Y-14833984D02*
X16972563Y-15005412D01*
X16972563Y-15005412D02*
X16982087Y-15024460D01*
X16982087Y-15024460D02*
X17001134Y-15033984D01*
X17001134Y-15033984D02*
X17020182Y-15033984D01*
X17239230Y-14900650D02*
X17239230Y-15100650D01*
X17239230Y-14910174D02*
X17258277Y-14900650D01*
X17258277Y-14900650D02*
X17296373Y-14900650D01*
X17296373Y-14900650D02*
X17315420Y-14910174D01*
X17315420Y-14910174D02*
X17324944Y-14919698D01*
X17324944Y-14919698D02*
X17334468Y-14938746D01*
X17334468Y-14938746D02*
X17334468Y-14995888D01*
X17334468Y-14995888D02*
X17324944Y-15014936D01*
X17324944Y-15014936D02*
X17315420Y-15024460D01*
X17315420Y-15024460D02*
X17296373Y-15033984D01*
X17296373Y-15033984D02*
X17258277Y-15033984D01*
X17258277Y-15033984D02*
X17239230Y-15024460D01*
X17448754Y-15033984D02*
X17429706Y-15024460D01*
X17429706Y-15024460D02*
X17420182Y-15005412D01*
X17420182Y-15005412D02*
X17420182Y-14833984D01*
X17610658Y-15033984D02*
X17610658Y-14929222D01*
X17610658Y-14929222D02*
X17601135Y-14910174D01*
X17601135Y-14910174D02*
X17582087Y-14900650D01*
X17582087Y-14900650D02*
X17543992Y-14900650D01*
X17543992Y-14900650D02*
X17524944Y-14910174D01*
X17610658Y-15024460D02*
X17591611Y-15033984D01*
X17591611Y-15033984D02*
X17543992Y-15033984D01*
X17543992Y-15033984D02*
X17524944Y-15024460D01*
X17524944Y-15024460D02*
X17515420Y-15005412D01*
X17515420Y-15005412D02*
X17515420Y-14986365D01*
X17515420Y-14986365D02*
X17524944Y-14967317D01*
X17524944Y-14967317D02*
X17543992Y-14957793D01*
X17543992Y-14957793D02*
X17591611Y-14957793D01*
X17591611Y-14957793D02*
X17610658Y-14948269D01*
X17677325Y-14900650D02*
X17753515Y-14900650D01*
X17705896Y-14833984D02*
X17705896Y-15005412D01*
X17705896Y-15005412D02*
X17715420Y-15024460D01*
X17715420Y-15024460D02*
X17734468Y-15033984D01*
X17734468Y-15033984D02*
X17753515Y-15033984D01*
X17896373Y-15024460D02*
X17877325Y-15033984D01*
X17877325Y-15033984D02*
X17839230Y-15033984D01*
X17839230Y-15033984D02*
X17820182Y-15024460D01*
X17820182Y-15024460D02*
X17810658Y-15005412D01*
X17810658Y-15005412D02*
X17810658Y-14929222D01*
X17810658Y-14929222D02*
X17820182Y-14910174D01*
X17820182Y-14910174D02*
X17839230Y-14900650D01*
X17839230Y-14900650D02*
X17877325Y-14900650D01*
X17877325Y-14900650D02*
X17896373Y-14910174D01*
X17896373Y-14910174D02*
X17905896Y-14929222D01*
X17905896Y-14929222D02*
X17905896Y-14948269D01*
X17905896Y-14948269D02*
X17810658Y-14967317D01*
X18077325Y-15033984D02*
X18077325Y-14833984D01*
X18077325Y-15024460D02*
X18058277Y-15033984D01*
X18058277Y-15033984D02*
X18020182Y-15033984D01*
X18020182Y-15033984D02*
X18001135Y-15024460D01*
X18001135Y-15024460D02*
X17991611Y-15014936D01*
X17991611Y-15014936D02*
X17982087Y-14995888D01*
X17982087Y-14995888D02*
X17982087Y-14938746D01*
X17982087Y-14938746D02*
X17991611Y-14919698D01*
X17991611Y-14919698D02*
X18001135Y-14910174D01*
X18001135Y-14910174D02*
X18020182Y-14900650D01*
X18020182Y-14900650D02*
X18058277Y-14900650D01*
X18058277Y-14900650D02*
X18077325Y-14910174D01*
X18153516Y-15110174D02*
X18163039Y-15100650D01*
X18163039Y-15100650D02*
X18182087Y-15072079D01*
X18182087Y-15072079D02*
X18191611Y-15053031D01*
X18191611Y-15053031D02*
X18201135Y-15024460D01*
X18201135Y-15024460D02*
X18210658Y-14976841D01*
X18210658Y-14976841D02*
X18210658Y-14938746D01*
X18210658Y-14938746D02*
X18201135Y-14891127D01*
X18201135Y-14891127D02*
X18191611Y-14862555D01*
X18191611Y-14862555D02*
X18182087Y-14843508D01*
X18182087Y-14843508D02*
X18163039Y-14814936D01*
X18163039Y-14814936D02*
X18153516Y-14805412D01*
M02*
