%TF.GenerationSoftware,KiCad,Pcbnew,8.0.6-unknown-202410280735~4a7dcfdd1f~ubuntu22.04.1*%
%TF.CreationDate,2024-10-31T16:24:49+09:00*%
%TF.ProjectId,MG5-ESP32-Shield,4d47352d-4553-4503-9332-2d536869656c,rev?*%
%TF.SameCoordinates,Original*%
%TF.FileFunction,Drillmap*%
%TF.FilePolarity,Positive*%
%FSLAX45Y45*%
G04 Gerber Fmt 4.5, Leading zero omitted, Abs format (unit mm)*
G04 Created by KiCad (PCBNEW 8.0.6-unknown-202410280735~4a7dcfdd1f~ubuntu22.04.1) date 2024-10-31 16:24:49*
%MOMM*%
%LPD*%
G01*
G04 APERTURE LIST*
%ADD10C,0.050000*%
%ADD11C,0.200000*%
%ADD12C,0.100000*%
G04 APERTURE END LIST*
D10*
X11400000Y-13800000D02*
X11400000Y-5800000D01*
X11900000Y-14300000D02*
X19100000Y-14300000D01*
X19100000Y-5300000D02*
G75*
G02*
X19600000Y-5800000I0J-500000D01*
G01*
X19600000Y-13800000D02*
X19600000Y-5800000D01*
X11400000Y-5800000D02*
G75*
G02*
X11900000Y-5300000I500000J0D01*
G01*
X11900000Y-14300000D02*
G75*
G02*
X11400000Y-13800000I0J500000D01*
G01*
X19100000Y-5300000D02*
X11900000Y-5300000D01*
X19600000Y-13800000D02*
G75*
G02*
X19100000Y-14300000I-500000J0D01*
G01*
D11*
D12*
X11885000Y-6385000D02*
X11915000Y-6415000D01*
X11915000Y-6385000D02*
X11885000Y-6415000D01*
X12485000Y-13485000D02*
X12515000Y-13515000D01*
X12515000Y-13485000D02*
X12485000Y-13515000D01*
X12939000Y-9014000D02*
X12969000Y-9044000D01*
X12969000Y-9014000D02*
X12939000Y-9044000D01*
X13193000Y-9244000D02*
X13223000Y-9274000D01*
X13223000Y-9244000D02*
X13193000Y-9274000D01*
X13447000Y-9498000D02*
X13477000Y-9528000D01*
X13477000Y-9498000D02*
X13447000Y-9528000D01*
X13701000Y-9776000D02*
X13731000Y-9806000D01*
X13731000Y-9776000D02*
X13701000Y-9806000D01*
X18785000Y-6085000D02*
X18815000Y-6115000D01*
X18815000Y-6085000D02*
X18785000Y-6115000D01*
X18785000Y-13485000D02*
X18815000Y-13515000D01*
X18815000Y-13485000D02*
X18785000Y-13515000D01*
X11731500Y-8636000D02*
G75*
G02*
X11636500Y-8636000I-47500J0D01*
G01*
X11636500Y-8636000D02*
G75*
G02*
X11731500Y-8636000I47500J0D01*
G01*
X11731500Y-8890000D02*
G75*
G02*
X11636500Y-8890000I-47500J0D01*
G01*
X11636500Y-8890000D02*
G75*
G02*
X11731500Y-8890000I47500J0D01*
G01*
X11731500Y-9144000D02*
G75*
G02*
X11636500Y-9144000I-47500J0D01*
G01*
X11636500Y-9144000D02*
G75*
G02*
X11731500Y-9144000I47500J0D01*
G01*
X11731500Y-9398000D02*
G75*
G02*
X11636500Y-9398000I-47500J0D01*
G01*
X11636500Y-9398000D02*
G75*
G02*
X11731500Y-9398000I47500J0D01*
G01*
X11731500Y-9652000D02*
G75*
G02*
X11636500Y-9652000I-47500J0D01*
G01*
X11636500Y-9652000D02*
G75*
G02*
X11731500Y-9652000I47500J0D01*
G01*
X11731500Y-9906000D02*
G75*
G02*
X11636500Y-9906000I-47500J0D01*
G01*
X11636500Y-9906000D02*
G75*
G02*
X11731500Y-9906000I47500J0D01*
G01*
X11731500Y-10160000D02*
G75*
G02*
X11636500Y-10160000I-47500J0D01*
G01*
X11636500Y-10160000D02*
G75*
G02*
X11731500Y-10160000I47500J0D01*
G01*
X11731500Y-10414000D02*
G75*
G02*
X11636500Y-10414000I-47500J0D01*
G01*
X11636500Y-10414000D02*
G75*
G02*
X11731500Y-10414000I47500J0D01*
G01*
X11731500Y-10668000D02*
G75*
G02*
X11636500Y-10668000I-47500J0D01*
G01*
X11636500Y-10668000D02*
G75*
G02*
X11731500Y-10668000I47500J0D01*
G01*
X11731500Y-10922000D02*
G75*
G02*
X11636500Y-10922000I-47500J0D01*
G01*
X11636500Y-10922000D02*
G75*
G02*
X11731500Y-10922000I47500J0D01*
G01*
X11731500Y-11176000D02*
G75*
G02*
X11636500Y-11176000I-47500J0D01*
G01*
X11636500Y-11176000D02*
G75*
G02*
X11731500Y-11176000I47500J0D01*
G01*
X11731500Y-11430000D02*
G75*
G02*
X11636500Y-11430000I-47500J0D01*
G01*
X11636500Y-11430000D02*
G75*
G02*
X11731500Y-11430000I47500J0D01*
G01*
X11731500Y-11684000D02*
G75*
G02*
X11636500Y-11684000I-47500J0D01*
G01*
X11636500Y-11684000D02*
G75*
G02*
X11731500Y-11684000I47500J0D01*
G01*
X11731500Y-11938000D02*
G75*
G02*
X11636500Y-11938000I-47500J0D01*
G01*
X11636500Y-11938000D02*
G75*
G02*
X11731500Y-11938000I47500J0D01*
G01*
X11731500Y-12192000D02*
G75*
G02*
X11636500Y-12192000I-47500J0D01*
G01*
X11636500Y-12192000D02*
G75*
G02*
X11731500Y-12192000I47500J0D01*
G01*
X11731500Y-12446000D02*
G75*
G02*
X11636500Y-12446000I-47500J0D01*
G01*
X11636500Y-12446000D02*
G75*
G02*
X11731500Y-12446000I47500J0D01*
G01*
X11731500Y-12700000D02*
G75*
G02*
X11636500Y-12700000I-47500J0D01*
G01*
X11636500Y-12700000D02*
G75*
G02*
X11731500Y-12700000I47500J0D01*
G01*
X11731500Y-12954000D02*
G75*
G02*
X11636500Y-12954000I-47500J0D01*
G01*
X11636500Y-12954000D02*
G75*
G02*
X11731500Y-12954000I47500J0D01*
G01*
X11731500Y-13208000D02*
G75*
G02*
X11636500Y-13208000I-47500J0D01*
G01*
X11636500Y-13208000D02*
G75*
G02*
X11731500Y-13208000I47500J0D01*
G01*
X12747500Y-6350000D02*
G75*
G02*
X12652500Y-6350000I-47500J0D01*
G01*
X12652500Y-6350000D02*
G75*
G02*
X12747500Y-6350000I47500J0D01*
G01*
X12747500Y-6604000D02*
G75*
G02*
X12652500Y-6604000I-47500J0D01*
G01*
X12652500Y-6604000D02*
G75*
G02*
X12747500Y-6604000I47500J0D01*
G01*
X12747500Y-6858000D02*
G75*
G02*
X12652500Y-6858000I-47500J0D01*
G01*
X12652500Y-6858000D02*
G75*
G02*
X12747500Y-6858000I47500J0D01*
G01*
X13509500Y-6350000D02*
G75*
G02*
X13414500Y-6350000I-47500J0D01*
G01*
X13414500Y-6350000D02*
G75*
G02*
X13509500Y-6350000I47500J0D01*
G01*
X13509500Y-6604000D02*
G75*
G02*
X13414500Y-6604000I-47500J0D01*
G01*
X13414500Y-6604000D02*
G75*
G02*
X13509500Y-6604000I47500J0D01*
G01*
X13509500Y-6858000D02*
G75*
G02*
X13414500Y-6858000I-47500J0D01*
G01*
X13414500Y-6858000D02*
G75*
G02*
X13509500Y-6858000I47500J0D01*
G01*
X14271500Y-5842000D02*
G75*
G02*
X14176500Y-5842000I-47500J0D01*
G01*
X14176500Y-5842000D02*
G75*
G02*
X14271500Y-5842000I47500J0D01*
G01*
X14271500Y-6096000D02*
G75*
G02*
X14176500Y-6096000I-47500J0D01*
G01*
X14176500Y-6096000D02*
G75*
G02*
X14271500Y-6096000I47500J0D01*
G01*
X14271500Y-6350000D02*
G75*
G02*
X14176500Y-6350000I-47500J0D01*
G01*
X14176500Y-6350000D02*
G75*
G02*
X14271500Y-6350000I47500J0D01*
G01*
X14271500Y-6604000D02*
G75*
G02*
X14176500Y-6604000I-47500J0D01*
G01*
X14176500Y-6604000D02*
G75*
G02*
X14271500Y-6604000I47500J0D01*
G01*
X14271500Y-6858000D02*
G75*
G02*
X14176500Y-6858000I-47500J0D01*
G01*
X14176500Y-6858000D02*
G75*
G02*
X14271500Y-6858000I47500J0D01*
G01*
X14271500Y-8636000D02*
G75*
G02*
X14176500Y-8636000I-47500J0D01*
G01*
X14176500Y-8636000D02*
G75*
G02*
X14271500Y-8636000I47500J0D01*
G01*
X14271500Y-8890000D02*
G75*
G02*
X14176500Y-8890000I-47500J0D01*
G01*
X14176500Y-8890000D02*
G75*
G02*
X14271500Y-8890000I47500J0D01*
G01*
X14271500Y-9144000D02*
G75*
G02*
X14176500Y-9144000I-47500J0D01*
G01*
X14176500Y-9144000D02*
G75*
G02*
X14271500Y-9144000I47500J0D01*
G01*
X14271500Y-9398000D02*
G75*
G02*
X14176500Y-9398000I-47500J0D01*
G01*
X14176500Y-9398000D02*
G75*
G02*
X14271500Y-9398000I47500J0D01*
G01*
X14271500Y-9652000D02*
G75*
G02*
X14176500Y-9652000I-47500J0D01*
G01*
X14176500Y-9652000D02*
G75*
G02*
X14271500Y-9652000I47500J0D01*
G01*
X14271500Y-9906000D02*
G75*
G02*
X14176500Y-9906000I-47500J0D01*
G01*
X14176500Y-9906000D02*
G75*
G02*
X14271500Y-9906000I47500J0D01*
G01*
X14271500Y-10160000D02*
G75*
G02*
X14176500Y-10160000I-47500J0D01*
G01*
X14176500Y-10160000D02*
G75*
G02*
X14271500Y-10160000I47500J0D01*
G01*
X14271500Y-10414000D02*
G75*
G02*
X14176500Y-10414000I-47500J0D01*
G01*
X14176500Y-10414000D02*
G75*
G02*
X14271500Y-10414000I47500J0D01*
G01*
X14271500Y-10668000D02*
G75*
G02*
X14176500Y-10668000I-47500J0D01*
G01*
X14176500Y-10668000D02*
G75*
G02*
X14271500Y-10668000I47500J0D01*
G01*
X14271500Y-10922000D02*
G75*
G02*
X14176500Y-10922000I-47500J0D01*
G01*
X14176500Y-10922000D02*
G75*
G02*
X14271500Y-10922000I47500J0D01*
G01*
X14271500Y-11176000D02*
G75*
G02*
X14176500Y-11176000I-47500J0D01*
G01*
X14176500Y-11176000D02*
G75*
G02*
X14271500Y-11176000I47500J0D01*
G01*
X14271500Y-11430000D02*
G75*
G02*
X14176500Y-11430000I-47500J0D01*
G01*
X14176500Y-11430000D02*
G75*
G02*
X14271500Y-11430000I47500J0D01*
G01*
X14271500Y-11684000D02*
G75*
G02*
X14176500Y-11684000I-47500J0D01*
G01*
X14176500Y-11684000D02*
G75*
G02*
X14271500Y-11684000I47500J0D01*
G01*
X14271500Y-11938000D02*
G75*
G02*
X14176500Y-11938000I-47500J0D01*
G01*
X14176500Y-11938000D02*
G75*
G02*
X14271500Y-11938000I47500J0D01*
G01*
X14271500Y-12192000D02*
G75*
G02*
X14176500Y-12192000I-47500J0D01*
G01*
X14176500Y-12192000D02*
G75*
G02*
X14271500Y-12192000I47500J0D01*
G01*
X14271500Y-12446000D02*
G75*
G02*
X14176500Y-12446000I-47500J0D01*
G01*
X14176500Y-12446000D02*
G75*
G02*
X14271500Y-12446000I47500J0D01*
G01*
X14271500Y-12700000D02*
G75*
G02*
X14176500Y-12700000I-47500J0D01*
G01*
X14176500Y-12700000D02*
G75*
G02*
X14271500Y-12700000I47500J0D01*
G01*
X14271500Y-12954000D02*
G75*
G02*
X14176500Y-12954000I-47500J0D01*
G01*
X14176500Y-12954000D02*
G75*
G02*
X14271500Y-12954000I47500J0D01*
G01*
X14271500Y-13208000D02*
G75*
G02*
X14176500Y-13208000I-47500J0D01*
G01*
X14176500Y-13208000D02*
G75*
G02*
X14271500Y-13208000I47500J0D01*
G01*
X14779500Y-7874000D02*
G75*
G02*
X14684500Y-7874000I-47500J0D01*
G01*
X14684500Y-7874000D02*
G75*
G02*
X14779500Y-7874000I47500J0D01*
G01*
X14779500Y-8128000D02*
G75*
G02*
X14684500Y-8128000I-47500J0D01*
G01*
X14684500Y-8128000D02*
G75*
G02*
X14779500Y-8128000I47500J0D01*
G01*
X14779500Y-8382000D02*
G75*
G02*
X14684500Y-8382000I-47500J0D01*
G01*
X14684500Y-8382000D02*
G75*
G02*
X14779500Y-8382000I47500J0D01*
G01*
X14779500Y-8636000D02*
G75*
G02*
X14684500Y-8636000I-47500J0D01*
G01*
X14684500Y-8636000D02*
G75*
G02*
X14779500Y-8636000I47500J0D01*
G01*
X14779500Y-8890000D02*
G75*
G02*
X14684500Y-8890000I-47500J0D01*
G01*
X14684500Y-8890000D02*
G75*
G02*
X14779500Y-8890000I47500J0D01*
G01*
X14779500Y-9144000D02*
G75*
G02*
X14684500Y-9144000I-47500J0D01*
G01*
X14684500Y-9144000D02*
G75*
G02*
X14779500Y-9144000I47500J0D01*
G01*
X14779500Y-9398000D02*
G75*
G02*
X14684500Y-9398000I-47500J0D01*
G01*
X14684500Y-9398000D02*
G75*
G02*
X14779500Y-9398000I47500J0D01*
G01*
X14779500Y-9652000D02*
G75*
G02*
X14684500Y-9652000I-47500J0D01*
G01*
X14684500Y-9652000D02*
G75*
G02*
X14779500Y-9652000I47500J0D01*
G01*
X14779500Y-9906000D02*
G75*
G02*
X14684500Y-9906000I-47500J0D01*
G01*
X14684500Y-9906000D02*
G75*
G02*
X14779500Y-9906000I47500J0D01*
G01*
X14779500Y-10160000D02*
G75*
G02*
X14684500Y-10160000I-47500J0D01*
G01*
X14684500Y-10160000D02*
G75*
G02*
X14779500Y-10160000I47500J0D01*
G01*
X14779500Y-10414000D02*
G75*
G02*
X14684500Y-10414000I-47500J0D01*
G01*
X14684500Y-10414000D02*
G75*
G02*
X14779500Y-10414000I47500J0D01*
G01*
X14779500Y-10668000D02*
G75*
G02*
X14684500Y-10668000I-47500J0D01*
G01*
X14684500Y-10668000D02*
G75*
G02*
X14779500Y-10668000I47500J0D01*
G01*
X14779500Y-10922000D02*
G75*
G02*
X14684500Y-10922000I-47500J0D01*
G01*
X14684500Y-10922000D02*
G75*
G02*
X14779500Y-10922000I47500J0D01*
G01*
X14779500Y-11176000D02*
G75*
G02*
X14684500Y-11176000I-47500J0D01*
G01*
X14684500Y-11176000D02*
G75*
G02*
X14779500Y-11176000I47500J0D01*
G01*
X14779500Y-11430000D02*
G75*
G02*
X14684500Y-11430000I-47500J0D01*
G01*
X14684500Y-11430000D02*
G75*
G02*
X14779500Y-11430000I47500J0D01*
G01*
X14779500Y-11684000D02*
G75*
G02*
X14684500Y-11684000I-47500J0D01*
G01*
X14684500Y-11684000D02*
G75*
G02*
X14779500Y-11684000I47500J0D01*
G01*
X14779500Y-11938000D02*
G75*
G02*
X14684500Y-11938000I-47500J0D01*
G01*
X14684500Y-11938000D02*
G75*
G02*
X14779500Y-11938000I47500J0D01*
G01*
X14779500Y-12192000D02*
G75*
G02*
X14684500Y-12192000I-47500J0D01*
G01*
X14684500Y-12192000D02*
G75*
G02*
X14779500Y-12192000I47500J0D01*
G01*
X14779500Y-12446000D02*
G75*
G02*
X14684500Y-12446000I-47500J0D01*
G01*
X14684500Y-12446000D02*
G75*
G02*
X14779500Y-12446000I47500J0D01*
G01*
X14779500Y-12700000D02*
G75*
G02*
X14684500Y-12700000I-47500J0D01*
G01*
X14684500Y-12700000D02*
G75*
G02*
X14779500Y-12700000I47500J0D01*
G01*
X14779500Y-12954000D02*
G75*
G02*
X14684500Y-12954000I-47500J0D01*
G01*
X14684500Y-12954000D02*
G75*
G02*
X14779500Y-12954000I47500J0D01*
G01*
X14779500Y-13208000D02*
G75*
G02*
X14684500Y-13208000I-47500J0D01*
G01*
X14684500Y-13208000D02*
G75*
G02*
X14779500Y-13208000I47500J0D01*
G01*
X14779500Y-13462000D02*
G75*
G02*
X14684500Y-13462000I-47500J0D01*
G01*
X14684500Y-13462000D02*
G75*
G02*
X14779500Y-13462000I47500J0D01*
G01*
X14779500Y-13716000D02*
G75*
G02*
X14684500Y-13716000I-47500J0D01*
G01*
X14684500Y-13716000D02*
G75*
G02*
X14779500Y-13716000I47500J0D01*
G01*
X14779500Y-13970000D02*
G75*
G02*
X14684500Y-13970000I-47500J0D01*
G01*
X14684500Y-13970000D02*
G75*
G02*
X14779500Y-13970000I47500J0D01*
G01*
X15033500Y-5842000D02*
G75*
G02*
X14938500Y-5842000I-47500J0D01*
G01*
X14938500Y-5842000D02*
G75*
G02*
X15033500Y-5842000I47500J0D01*
G01*
X15033500Y-6096000D02*
G75*
G02*
X14938500Y-6096000I-47500J0D01*
G01*
X14938500Y-6096000D02*
G75*
G02*
X15033500Y-6096000I47500J0D01*
G01*
X15033500Y-6350000D02*
G75*
G02*
X14938500Y-6350000I-47500J0D01*
G01*
X14938500Y-6350000D02*
G75*
G02*
X15033500Y-6350000I47500J0D01*
G01*
X15033500Y-6604000D02*
G75*
G02*
X14938500Y-6604000I-47500J0D01*
G01*
X14938500Y-6604000D02*
G75*
G02*
X15033500Y-6604000I47500J0D01*
G01*
X15033500Y-6858000D02*
G75*
G02*
X14938500Y-6858000I-47500J0D01*
G01*
X14938500Y-6858000D02*
G75*
G02*
X15033500Y-6858000I47500J0D01*
G01*
X15033500Y-7874000D02*
G75*
G02*
X14938500Y-7874000I-47500J0D01*
G01*
X14938500Y-7874000D02*
G75*
G02*
X15033500Y-7874000I47500J0D01*
G01*
X15033500Y-8128000D02*
G75*
G02*
X14938500Y-8128000I-47500J0D01*
G01*
X14938500Y-8128000D02*
G75*
G02*
X15033500Y-8128000I47500J0D01*
G01*
X15033500Y-8382000D02*
G75*
G02*
X14938500Y-8382000I-47500J0D01*
G01*
X14938500Y-8382000D02*
G75*
G02*
X15033500Y-8382000I47500J0D01*
G01*
X15033500Y-8636000D02*
G75*
G02*
X14938500Y-8636000I-47500J0D01*
G01*
X14938500Y-8636000D02*
G75*
G02*
X15033500Y-8636000I47500J0D01*
G01*
X15033500Y-8890000D02*
G75*
G02*
X14938500Y-8890000I-47500J0D01*
G01*
X14938500Y-8890000D02*
G75*
G02*
X15033500Y-8890000I47500J0D01*
G01*
X15033500Y-9144000D02*
G75*
G02*
X14938500Y-9144000I-47500J0D01*
G01*
X14938500Y-9144000D02*
G75*
G02*
X15033500Y-9144000I47500J0D01*
G01*
X15033500Y-9398000D02*
G75*
G02*
X14938500Y-9398000I-47500J0D01*
G01*
X14938500Y-9398000D02*
G75*
G02*
X15033500Y-9398000I47500J0D01*
G01*
X15033500Y-9652000D02*
G75*
G02*
X14938500Y-9652000I-47500J0D01*
G01*
X14938500Y-9652000D02*
G75*
G02*
X15033500Y-9652000I47500J0D01*
G01*
X15033500Y-9906000D02*
G75*
G02*
X14938500Y-9906000I-47500J0D01*
G01*
X14938500Y-9906000D02*
G75*
G02*
X15033500Y-9906000I47500J0D01*
G01*
X15033500Y-10160000D02*
G75*
G02*
X14938500Y-10160000I-47500J0D01*
G01*
X14938500Y-10160000D02*
G75*
G02*
X15033500Y-10160000I47500J0D01*
G01*
X15033500Y-10414000D02*
G75*
G02*
X14938500Y-10414000I-47500J0D01*
G01*
X14938500Y-10414000D02*
G75*
G02*
X15033500Y-10414000I47500J0D01*
G01*
X15033500Y-10668000D02*
G75*
G02*
X14938500Y-10668000I-47500J0D01*
G01*
X14938500Y-10668000D02*
G75*
G02*
X15033500Y-10668000I47500J0D01*
G01*
X15033500Y-10922000D02*
G75*
G02*
X14938500Y-10922000I-47500J0D01*
G01*
X14938500Y-10922000D02*
G75*
G02*
X15033500Y-10922000I47500J0D01*
G01*
X15033500Y-11176000D02*
G75*
G02*
X14938500Y-11176000I-47500J0D01*
G01*
X14938500Y-11176000D02*
G75*
G02*
X15033500Y-11176000I47500J0D01*
G01*
X15033500Y-11430000D02*
G75*
G02*
X14938500Y-11430000I-47500J0D01*
G01*
X14938500Y-11430000D02*
G75*
G02*
X15033500Y-11430000I47500J0D01*
G01*
X15033500Y-11684000D02*
G75*
G02*
X14938500Y-11684000I-47500J0D01*
G01*
X14938500Y-11684000D02*
G75*
G02*
X15033500Y-11684000I47500J0D01*
G01*
X15033500Y-11938000D02*
G75*
G02*
X14938500Y-11938000I-47500J0D01*
G01*
X14938500Y-11938000D02*
G75*
G02*
X15033500Y-11938000I47500J0D01*
G01*
X15033500Y-12192000D02*
G75*
G02*
X14938500Y-12192000I-47500J0D01*
G01*
X14938500Y-12192000D02*
G75*
G02*
X15033500Y-12192000I47500J0D01*
G01*
X15033500Y-12446000D02*
G75*
G02*
X14938500Y-12446000I-47500J0D01*
G01*
X14938500Y-12446000D02*
G75*
G02*
X15033500Y-12446000I47500J0D01*
G01*
X15033500Y-12700000D02*
G75*
G02*
X14938500Y-12700000I-47500J0D01*
G01*
X14938500Y-12700000D02*
G75*
G02*
X15033500Y-12700000I47500J0D01*
G01*
X15033500Y-12954000D02*
G75*
G02*
X14938500Y-12954000I-47500J0D01*
G01*
X14938500Y-12954000D02*
G75*
G02*
X15033500Y-12954000I47500J0D01*
G01*
X15033500Y-13208000D02*
G75*
G02*
X14938500Y-13208000I-47500J0D01*
G01*
X14938500Y-13208000D02*
G75*
G02*
X15033500Y-13208000I47500J0D01*
G01*
X15033500Y-13462000D02*
G75*
G02*
X14938500Y-13462000I-47500J0D01*
G01*
X14938500Y-13462000D02*
G75*
G02*
X15033500Y-13462000I47500J0D01*
G01*
X15033500Y-13716000D02*
G75*
G02*
X14938500Y-13716000I-47500J0D01*
G01*
X14938500Y-13716000D02*
G75*
G02*
X15033500Y-13716000I47500J0D01*
G01*
X15033500Y-13970000D02*
G75*
G02*
X14938500Y-13970000I-47500J0D01*
G01*
X14938500Y-13970000D02*
G75*
G02*
X15033500Y-13970000I47500J0D01*
G01*
X15287500Y-7874000D02*
G75*
G02*
X15192500Y-7874000I-47500J0D01*
G01*
X15192500Y-7874000D02*
G75*
G02*
X15287500Y-7874000I47500J0D01*
G01*
X15287500Y-8128000D02*
G75*
G02*
X15192500Y-8128000I-47500J0D01*
G01*
X15192500Y-8128000D02*
G75*
G02*
X15287500Y-8128000I47500J0D01*
G01*
X15287500Y-8382000D02*
G75*
G02*
X15192500Y-8382000I-47500J0D01*
G01*
X15192500Y-8382000D02*
G75*
G02*
X15287500Y-8382000I47500J0D01*
G01*
X15287500Y-13462000D02*
G75*
G02*
X15192500Y-13462000I-47500J0D01*
G01*
X15192500Y-13462000D02*
G75*
G02*
X15287500Y-13462000I47500J0D01*
G01*
X15287500Y-13716000D02*
G75*
G02*
X15192500Y-13716000I-47500J0D01*
G01*
X15192500Y-13716000D02*
G75*
G02*
X15287500Y-13716000I47500J0D01*
G01*
X15287500Y-13970000D02*
G75*
G02*
X15192500Y-13970000I-47500J0D01*
G01*
X15192500Y-13970000D02*
G75*
G02*
X15287500Y-13970000I47500J0D01*
G01*
X15541500Y-5588000D02*
G75*
G02*
X15446500Y-5588000I-47500J0D01*
G01*
X15446500Y-5588000D02*
G75*
G02*
X15541500Y-5588000I47500J0D01*
G01*
X15541500Y-5842000D02*
G75*
G02*
X15446500Y-5842000I-47500J0D01*
G01*
X15446500Y-5842000D02*
G75*
G02*
X15541500Y-5842000I47500J0D01*
G01*
X15541500Y-6096000D02*
G75*
G02*
X15446500Y-6096000I-47500J0D01*
G01*
X15446500Y-6096000D02*
G75*
G02*
X15541500Y-6096000I47500J0D01*
G01*
X15541500Y-6350000D02*
G75*
G02*
X15446500Y-6350000I-47500J0D01*
G01*
X15446500Y-6350000D02*
G75*
G02*
X15541500Y-6350000I47500J0D01*
G01*
X15541500Y-6604000D02*
G75*
G02*
X15446500Y-6604000I-47500J0D01*
G01*
X15446500Y-6604000D02*
G75*
G02*
X15541500Y-6604000I47500J0D01*
G01*
X15541500Y-6858000D02*
G75*
G02*
X15446500Y-6858000I-47500J0D01*
G01*
X15446500Y-6858000D02*
G75*
G02*
X15541500Y-6858000I47500J0D01*
G01*
X15541500Y-7112000D02*
G75*
G02*
X15446500Y-7112000I-47500J0D01*
G01*
X15446500Y-7112000D02*
G75*
G02*
X15541500Y-7112000I47500J0D01*
G01*
X15541500Y-7366000D02*
G75*
G02*
X15446500Y-7366000I-47500J0D01*
G01*
X15446500Y-7366000D02*
G75*
G02*
X15541500Y-7366000I47500J0D01*
G01*
X15541500Y-7620000D02*
G75*
G02*
X15446500Y-7620000I-47500J0D01*
G01*
X15446500Y-7620000D02*
G75*
G02*
X15541500Y-7620000I47500J0D01*
G01*
X15541500Y-7874000D02*
G75*
G02*
X15446500Y-7874000I-47500J0D01*
G01*
X15446500Y-7874000D02*
G75*
G02*
X15541500Y-7874000I47500J0D01*
G01*
X15541500Y-8128000D02*
G75*
G02*
X15446500Y-8128000I-47500J0D01*
G01*
X15446500Y-8128000D02*
G75*
G02*
X15541500Y-8128000I47500J0D01*
G01*
X15541500Y-8382000D02*
G75*
G02*
X15446500Y-8382000I-47500J0D01*
G01*
X15446500Y-8382000D02*
G75*
G02*
X15541500Y-8382000I47500J0D01*
G01*
X15541500Y-8636000D02*
G75*
G02*
X15446500Y-8636000I-47500J0D01*
G01*
X15446500Y-8636000D02*
G75*
G02*
X15541500Y-8636000I47500J0D01*
G01*
X15541500Y-8890000D02*
G75*
G02*
X15446500Y-8890000I-47500J0D01*
G01*
X15446500Y-8890000D02*
G75*
G02*
X15541500Y-8890000I47500J0D01*
G01*
X15541500Y-9144000D02*
G75*
G02*
X15446500Y-9144000I-47500J0D01*
G01*
X15446500Y-9144000D02*
G75*
G02*
X15541500Y-9144000I47500J0D01*
G01*
X15541500Y-9398000D02*
G75*
G02*
X15446500Y-9398000I-47500J0D01*
G01*
X15446500Y-9398000D02*
G75*
G02*
X15541500Y-9398000I47500J0D01*
G01*
X15541500Y-9652000D02*
G75*
G02*
X15446500Y-9652000I-47500J0D01*
G01*
X15446500Y-9652000D02*
G75*
G02*
X15541500Y-9652000I47500J0D01*
G01*
X15541500Y-9906000D02*
G75*
G02*
X15446500Y-9906000I-47500J0D01*
G01*
X15446500Y-9906000D02*
G75*
G02*
X15541500Y-9906000I47500J0D01*
G01*
X15541500Y-10160000D02*
G75*
G02*
X15446500Y-10160000I-47500J0D01*
G01*
X15446500Y-10160000D02*
G75*
G02*
X15541500Y-10160000I47500J0D01*
G01*
X15541500Y-10414000D02*
G75*
G02*
X15446500Y-10414000I-47500J0D01*
G01*
X15446500Y-10414000D02*
G75*
G02*
X15541500Y-10414000I47500J0D01*
G01*
X15541500Y-10668000D02*
G75*
G02*
X15446500Y-10668000I-47500J0D01*
G01*
X15446500Y-10668000D02*
G75*
G02*
X15541500Y-10668000I47500J0D01*
G01*
X15541500Y-10922000D02*
G75*
G02*
X15446500Y-10922000I-47500J0D01*
G01*
X15446500Y-10922000D02*
G75*
G02*
X15541500Y-10922000I47500J0D01*
G01*
X15541500Y-11176000D02*
G75*
G02*
X15446500Y-11176000I-47500J0D01*
G01*
X15446500Y-11176000D02*
G75*
G02*
X15541500Y-11176000I47500J0D01*
G01*
X15541500Y-11430000D02*
G75*
G02*
X15446500Y-11430000I-47500J0D01*
G01*
X15446500Y-11430000D02*
G75*
G02*
X15541500Y-11430000I47500J0D01*
G01*
X15541500Y-11684000D02*
G75*
G02*
X15446500Y-11684000I-47500J0D01*
G01*
X15446500Y-11684000D02*
G75*
G02*
X15541500Y-11684000I47500J0D01*
G01*
X15541500Y-11938000D02*
G75*
G02*
X15446500Y-11938000I-47500J0D01*
G01*
X15446500Y-11938000D02*
G75*
G02*
X15541500Y-11938000I47500J0D01*
G01*
X15541500Y-12192000D02*
G75*
G02*
X15446500Y-12192000I-47500J0D01*
G01*
X15446500Y-12192000D02*
G75*
G02*
X15541500Y-12192000I47500J0D01*
G01*
X15541500Y-12446000D02*
G75*
G02*
X15446500Y-12446000I-47500J0D01*
G01*
X15446500Y-12446000D02*
G75*
G02*
X15541500Y-12446000I47500J0D01*
G01*
X15541500Y-12700000D02*
G75*
G02*
X15446500Y-12700000I-47500J0D01*
G01*
X15446500Y-12700000D02*
G75*
G02*
X15541500Y-12700000I47500J0D01*
G01*
X15541500Y-12954000D02*
G75*
G02*
X15446500Y-12954000I-47500J0D01*
G01*
X15446500Y-12954000D02*
G75*
G02*
X15541500Y-12954000I47500J0D01*
G01*
X15541500Y-13208000D02*
G75*
G02*
X15446500Y-13208000I-47500J0D01*
G01*
X15446500Y-13208000D02*
G75*
G02*
X15541500Y-13208000I47500J0D01*
G01*
X15541500Y-13462000D02*
G75*
G02*
X15446500Y-13462000I-47500J0D01*
G01*
X15446500Y-13462000D02*
G75*
G02*
X15541500Y-13462000I47500J0D01*
G01*
X15541500Y-13716000D02*
G75*
G02*
X15446500Y-13716000I-47500J0D01*
G01*
X15446500Y-13716000D02*
G75*
G02*
X15541500Y-13716000I47500J0D01*
G01*
X15541500Y-13970000D02*
G75*
G02*
X15446500Y-13970000I-47500J0D01*
G01*
X15446500Y-13970000D02*
G75*
G02*
X15541500Y-13970000I47500J0D01*
G01*
X15795500Y-5588000D02*
G75*
G02*
X15700500Y-5588000I-47500J0D01*
G01*
X15700500Y-5588000D02*
G75*
G02*
X15795500Y-5588000I47500J0D01*
G01*
X15795500Y-5842000D02*
G75*
G02*
X15700500Y-5842000I-47500J0D01*
G01*
X15700500Y-5842000D02*
G75*
G02*
X15795500Y-5842000I47500J0D01*
G01*
X15795500Y-6096000D02*
G75*
G02*
X15700500Y-6096000I-47500J0D01*
G01*
X15700500Y-6096000D02*
G75*
G02*
X15795500Y-6096000I47500J0D01*
G01*
X15795500Y-6350000D02*
G75*
G02*
X15700500Y-6350000I-47500J0D01*
G01*
X15700500Y-6350000D02*
G75*
G02*
X15795500Y-6350000I47500J0D01*
G01*
X15795500Y-6604000D02*
G75*
G02*
X15700500Y-6604000I-47500J0D01*
G01*
X15700500Y-6604000D02*
G75*
G02*
X15795500Y-6604000I47500J0D01*
G01*
X15795500Y-6858000D02*
G75*
G02*
X15700500Y-6858000I-47500J0D01*
G01*
X15700500Y-6858000D02*
G75*
G02*
X15795500Y-6858000I47500J0D01*
G01*
X15795500Y-7112000D02*
G75*
G02*
X15700500Y-7112000I-47500J0D01*
G01*
X15700500Y-7112000D02*
G75*
G02*
X15795500Y-7112000I47500J0D01*
G01*
X15795500Y-7366000D02*
G75*
G02*
X15700500Y-7366000I-47500J0D01*
G01*
X15700500Y-7366000D02*
G75*
G02*
X15795500Y-7366000I47500J0D01*
G01*
X15795500Y-7620000D02*
G75*
G02*
X15700500Y-7620000I-47500J0D01*
G01*
X15700500Y-7620000D02*
G75*
G02*
X15795500Y-7620000I47500J0D01*
G01*
X15795500Y-7874000D02*
G75*
G02*
X15700500Y-7874000I-47500J0D01*
G01*
X15700500Y-7874000D02*
G75*
G02*
X15795500Y-7874000I47500J0D01*
G01*
X15795500Y-8128000D02*
G75*
G02*
X15700500Y-8128000I-47500J0D01*
G01*
X15700500Y-8128000D02*
G75*
G02*
X15795500Y-8128000I47500J0D01*
G01*
X15795500Y-8382000D02*
G75*
G02*
X15700500Y-8382000I-47500J0D01*
G01*
X15700500Y-8382000D02*
G75*
G02*
X15795500Y-8382000I47500J0D01*
G01*
X15795500Y-8636000D02*
G75*
G02*
X15700500Y-8636000I-47500J0D01*
G01*
X15700500Y-8636000D02*
G75*
G02*
X15795500Y-8636000I47500J0D01*
G01*
X15795500Y-8890000D02*
G75*
G02*
X15700500Y-8890000I-47500J0D01*
G01*
X15700500Y-8890000D02*
G75*
G02*
X15795500Y-8890000I47500J0D01*
G01*
X15795500Y-9144000D02*
G75*
G02*
X15700500Y-9144000I-47500J0D01*
G01*
X15700500Y-9144000D02*
G75*
G02*
X15795500Y-9144000I47500J0D01*
G01*
X15795500Y-9398000D02*
G75*
G02*
X15700500Y-9398000I-47500J0D01*
G01*
X15700500Y-9398000D02*
G75*
G02*
X15795500Y-9398000I47500J0D01*
G01*
X15795500Y-9652000D02*
G75*
G02*
X15700500Y-9652000I-47500J0D01*
G01*
X15700500Y-9652000D02*
G75*
G02*
X15795500Y-9652000I47500J0D01*
G01*
X15795500Y-9906000D02*
G75*
G02*
X15700500Y-9906000I-47500J0D01*
G01*
X15700500Y-9906000D02*
G75*
G02*
X15795500Y-9906000I47500J0D01*
G01*
X15795500Y-10160000D02*
G75*
G02*
X15700500Y-10160000I-47500J0D01*
G01*
X15700500Y-10160000D02*
G75*
G02*
X15795500Y-10160000I47500J0D01*
G01*
X15795500Y-10414000D02*
G75*
G02*
X15700500Y-10414000I-47500J0D01*
G01*
X15700500Y-10414000D02*
G75*
G02*
X15795500Y-10414000I47500J0D01*
G01*
X15795500Y-10668000D02*
G75*
G02*
X15700500Y-10668000I-47500J0D01*
G01*
X15700500Y-10668000D02*
G75*
G02*
X15795500Y-10668000I47500J0D01*
G01*
X15795500Y-10922000D02*
G75*
G02*
X15700500Y-10922000I-47500J0D01*
G01*
X15700500Y-10922000D02*
G75*
G02*
X15795500Y-10922000I47500J0D01*
G01*
X15795500Y-11176000D02*
G75*
G02*
X15700500Y-11176000I-47500J0D01*
G01*
X15700500Y-11176000D02*
G75*
G02*
X15795500Y-11176000I47500J0D01*
G01*
X15795500Y-11430000D02*
G75*
G02*
X15700500Y-11430000I-47500J0D01*
G01*
X15700500Y-11430000D02*
G75*
G02*
X15795500Y-11430000I47500J0D01*
G01*
X15795500Y-11684000D02*
G75*
G02*
X15700500Y-11684000I-47500J0D01*
G01*
X15700500Y-11684000D02*
G75*
G02*
X15795500Y-11684000I47500J0D01*
G01*
X15795500Y-11938000D02*
G75*
G02*
X15700500Y-11938000I-47500J0D01*
G01*
X15700500Y-11938000D02*
G75*
G02*
X15795500Y-11938000I47500J0D01*
G01*
X15795500Y-12192000D02*
G75*
G02*
X15700500Y-12192000I-47500J0D01*
G01*
X15700500Y-12192000D02*
G75*
G02*
X15795500Y-12192000I47500J0D01*
G01*
X15795500Y-12446000D02*
G75*
G02*
X15700500Y-12446000I-47500J0D01*
G01*
X15700500Y-12446000D02*
G75*
G02*
X15795500Y-12446000I47500J0D01*
G01*
X15795500Y-12700000D02*
G75*
G02*
X15700500Y-12700000I-47500J0D01*
G01*
X15700500Y-12700000D02*
G75*
G02*
X15795500Y-12700000I47500J0D01*
G01*
X15795500Y-12954000D02*
G75*
G02*
X15700500Y-12954000I-47500J0D01*
G01*
X15700500Y-12954000D02*
G75*
G02*
X15795500Y-12954000I47500J0D01*
G01*
X15795500Y-13208000D02*
G75*
G02*
X15700500Y-13208000I-47500J0D01*
G01*
X15700500Y-13208000D02*
G75*
G02*
X15795500Y-13208000I47500J0D01*
G01*
X15795500Y-13462000D02*
G75*
G02*
X15700500Y-13462000I-47500J0D01*
G01*
X15700500Y-13462000D02*
G75*
G02*
X15795500Y-13462000I47500J0D01*
G01*
X15795500Y-13716000D02*
G75*
G02*
X15700500Y-13716000I-47500J0D01*
G01*
X15700500Y-13716000D02*
G75*
G02*
X15795500Y-13716000I47500J0D01*
G01*
X15795500Y-13970000D02*
G75*
G02*
X15700500Y-13970000I-47500J0D01*
G01*
X15700500Y-13970000D02*
G75*
G02*
X15795500Y-13970000I47500J0D01*
G01*
X16049500Y-5588000D02*
G75*
G02*
X15954500Y-5588000I-47500J0D01*
G01*
X15954500Y-5588000D02*
G75*
G02*
X16049500Y-5588000I47500J0D01*
G01*
X16049500Y-5842000D02*
G75*
G02*
X15954500Y-5842000I-47500J0D01*
G01*
X15954500Y-5842000D02*
G75*
G02*
X16049500Y-5842000I47500J0D01*
G01*
X16049500Y-6096000D02*
G75*
G02*
X15954500Y-6096000I-47500J0D01*
G01*
X15954500Y-6096000D02*
G75*
G02*
X16049500Y-6096000I47500J0D01*
G01*
X16049500Y-6350000D02*
G75*
G02*
X15954500Y-6350000I-47500J0D01*
G01*
X15954500Y-6350000D02*
G75*
G02*
X16049500Y-6350000I47500J0D01*
G01*
X16049500Y-6604000D02*
G75*
G02*
X15954500Y-6604000I-47500J0D01*
G01*
X15954500Y-6604000D02*
G75*
G02*
X16049500Y-6604000I47500J0D01*
G01*
X16049500Y-6858000D02*
G75*
G02*
X15954500Y-6858000I-47500J0D01*
G01*
X15954500Y-6858000D02*
G75*
G02*
X16049500Y-6858000I47500J0D01*
G01*
X16049500Y-7112000D02*
G75*
G02*
X15954500Y-7112000I-47500J0D01*
G01*
X15954500Y-7112000D02*
G75*
G02*
X16049500Y-7112000I47500J0D01*
G01*
X16049500Y-7366000D02*
G75*
G02*
X15954500Y-7366000I-47500J0D01*
G01*
X15954500Y-7366000D02*
G75*
G02*
X16049500Y-7366000I47500J0D01*
G01*
X16049500Y-7620000D02*
G75*
G02*
X15954500Y-7620000I-47500J0D01*
G01*
X15954500Y-7620000D02*
G75*
G02*
X16049500Y-7620000I47500J0D01*
G01*
X16049500Y-7874000D02*
G75*
G02*
X15954500Y-7874000I-47500J0D01*
G01*
X15954500Y-7874000D02*
G75*
G02*
X16049500Y-7874000I47500J0D01*
G01*
X16049500Y-8128000D02*
G75*
G02*
X15954500Y-8128000I-47500J0D01*
G01*
X15954500Y-8128000D02*
G75*
G02*
X16049500Y-8128000I47500J0D01*
G01*
X16049500Y-8382000D02*
G75*
G02*
X15954500Y-8382000I-47500J0D01*
G01*
X15954500Y-8382000D02*
G75*
G02*
X16049500Y-8382000I47500J0D01*
G01*
X16049500Y-8636000D02*
G75*
G02*
X15954500Y-8636000I-47500J0D01*
G01*
X15954500Y-8636000D02*
G75*
G02*
X16049500Y-8636000I47500J0D01*
G01*
X16049500Y-8890000D02*
G75*
G02*
X15954500Y-8890000I-47500J0D01*
G01*
X15954500Y-8890000D02*
G75*
G02*
X16049500Y-8890000I47500J0D01*
G01*
X16049500Y-9144000D02*
G75*
G02*
X15954500Y-9144000I-47500J0D01*
G01*
X15954500Y-9144000D02*
G75*
G02*
X16049500Y-9144000I47500J0D01*
G01*
X16049500Y-9398000D02*
G75*
G02*
X15954500Y-9398000I-47500J0D01*
G01*
X15954500Y-9398000D02*
G75*
G02*
X16049500Y-9398000I47500J0D01*
G01*
X16049500Y-9652000D02*
G75*
G02*
X15954500Y-9652000I-47500J0D01*
G01*
X15954500Y-9652000D02*
G75*
G02*
X16049500Y-9652000I47500J0D01*
G01*
X16049500Y-9906000D02*
G75*
G02*
X15954500Y-9906000I-47500J0D01*
G01*
X15954500Y-9906000D02*
G75*
G02*
X16049500Y-9906000I47500J0D01*
G01*
X16049500Y-10160000D02*
G75*
G02*
X15954500Y-10160000I-47500J0D01*
G01*
X15954500Y-10160000D02*
G75*
G02*
X16049500Y-10160000I47500J0D01*
G01*
X16049500Y-10414000D02*
G75*
G02*
X15954500Y-10414000I-47500J0D01*
G01*
X15954500Y-10414000D02*
G75*
G02*
X16049500Y-10414000I47500J0D01*
G01*
X16049500Y-10668000D02*
G75*
G02*
X15954500Y-10668000I-47500J0D01*
G01*
X15954500Y-10668000D02*
G75*
G02*
X16049500Y-10668000I47500J0D01*
G01*
X16049500Y-10922000D02*
G75*
G02*
X15954500Y-10922000I-47500J0D01*
G01*
X15954500Y-10922000D02*
G75*
G02*
X16049500Y-10922000I47500J0D01*
G01*
X16049500Y-11176000D02*
G75*
G02*
X15954500Y-11176000I-47500J0D01*
G01*
X15954500Y-11176000D02*
G75*
G02*
X16049500Y-11176000I47500J0D01*
G01*
X16049500Y-11430000D02*
G75*
G02*
X15954500Y-11430000I-47500J0D01*
G01*
X15954500Y-11430000D02*
G75*
G02*
X16049500Y-11430000I47500J0D01*
G01*
X16049500Y-11684000D02*
G75*
G02*
X15954500Y-11684000I-47500J0D01*
G01*
X15954500Y-11684000D02*
G75*
G02*
X16049500Y-11684000I47500J0D01*
G01*
X16049500Y-11938000D02*
G75*
G02*
X15954500Y-11938000I-47500J0D01*
G01*
X15954500Y-11938000D02*
G75*
G02*
X16049500Y-11938000I47500J0D01*
G01*
X16049500Y-12192000D02*
G75*
G02*
X15954500Y-12192000I-47500J0D01*
G01*
X15954500Y-12192000D02*
G75*
G02*
X16049500Y-12192000I47500J0D01*
G01*
X16049500Y-12446000D02*
G75*
G02*
X15954500Y-12446000I-47500J0D01*
G01*
X15954500Y-12446000D02*
G75*
G02*
X16049500Y-12446000I47500J0D01*
G01*
X16049500Y-12700000D02*
G75*
G02*
X15954500Y-12700000I-47500J0D01*
G01*
X15954500Y-12700000D02*
G75*
G02*
X16049500Y-12700000I47500J0D01*
G01*
X16049500Y-12954000D02*
G75*
G02*
X15954500Y-12954000I-47500J0D01*
G01*
X15954500Y-12954000D02*
G75*
G02*
X16049500Y-12954000I47500J0D01*
G01*
X16049500Y-13208000D02*
G75*
G02*
X15954500Y-13208000I-47500J0D01*
G01*
X15954500Y-13208000D02*
G75*
G02*
X16049500Y-13208000I47500J0D01*
G01*
X16049500Y-13462000D02*
G75*
G02*
X15954500Y-13462000I-47500J0D01*
G01*
X15954500Y-13462000D02*
G75*
G02*
X16049500Y-13462000I47500J0D01*
G01*
X16049500Y-13716000D02*
G75*
G02*
X15954500Y-13716000I-47500J0D01*
G01*
X15954500Y-13716000D02*
G75*
G02*
X16049500Y-13716000I47500J0D01*
G01*
X16049500Y-13970000D02*
G75*
G02*
X15954500Y-13970000I-47500J0D01*
G01*
X15954500Y-13970000D02*
G75*
G02*
X16049500Y-13970000I47500J0D01*
G01*
X16303500Y-5588000D02*
G75*
G02*
X16208500Y-5588000I-47500J0D01*
G01*
X16208500Y-5588000D02*
G75*
G02*
X16303500Y-5588000I47500J0D01*
G01*
X16303500Y-5842000D02*
G75*
G02*
X16208500Y-5842000I-47500J0D01*
G01*
X16208500Y-5842000D02*
G75*
G02*
X16303500Y-5842000I47500J0D01*
G01*
X16303500Y-6096000D02*
G75*
G02*
X16208500Y-6096000I-47500J0D01*
G01*
X16208500Y-6096000D02*
G75*
G02*
X16303500Y-6096000I47500J0D01*
G01*
X16303500Y-6350000D02*
G75*
G02*
X16208500Y-6350000I-47500J0D01*
G01*
X16208500Y-6350000D02*
G75*
G02*
X16303500Y-6350000I47500J0D01*
G01*
X16303500Y-6604000D02*
G75*
G02*
X16208500Y-6604000I-47500J0D01*
G01*
X16208500Y-6604000D02*
G75*
G02*
X16303500Y-6604000I47500J0D01*
G01*
X16303500Y-6858000D02*
G75*
G02*
X16208500Y-6858000I-47500J0D01*
G01*
X16208500Y-6858000D02*
G75*
G02*
X16303500Y-6858000I47500J0D01*
G01*
X16303500Y-7112000D02*
G75*
G02*
X16208500Y-7112000I-47500J0D01*
G01*
X16208500Y-7112000D02*
G75*
G02*
X16303500Y-7112000I47500J0D01*
G01*
X16303500Y-7366000D02*
G75*
G02*
X16208500Y-7366000I-47500J0D01*
G01*
X16208500Y-7366000D02*
G75*
G02*
X16303500Y-7366000I47500J0D01*
G01*
X16303500Y-7620000D02*
G75*
G02*
X16208500Y-7620000I-47500J0D01*
G01*
X16208500Y-7620000D02*
G75*
G02*
X16303500Y-7620000I47500J0D01*
G01*
X16303500Y-7874000D02*
G75*
G02*
X16208500Y-7874000I-47500J0D01*
G01*
X16208500Y-7874000D02*
G75*
G02*
X16303500Y-7874000I47500J0D01*
G01*
X16303500Y-8128000D02*
G75*
G02*
X16208500Y-8128000I-47500J0D01*
G01*
X16208500Y-8128000D02*
G75*
G02*
X16303500Y-8128000I47500J0D01*
G01*
X16303500Y-8382000D02*
G75*
G02*
X16208500Y-8382000I-47500J0D01*
G01*
X16208500Y-8382000D02*
G75*
G02*
X16303500Y-8382000I47500J0D01*
G01*
X16303500Y-8636000D02*
G75*
G02*
X16208500Y-8636000I-47500J0D01*
G01*
X16208500Y-8636000D02*
G75*
G02*
X16303500Y-8636000I47500J0D01*
G01*
X16303500Y-8890000D02*
G75*
G02*
X16208500Y-8890000I-47500J0D01*
G01*
X16208500Y-8890000D02*
G75*
G02*
X16303500Y-8890000I47500J0D01*
G01*
X16303500Y-9144000D02*
G75*
G02*
X16208500Y-9144000I-47500J0D01*
G01*
X16208500Y-9144000D02*
G75*
G02*
X16303500Y-9144000I47500J0D01*
G01*
X16303500Y-9398000D02*
G75*
G02*
X16208500Y-9398000I-47500J0D01*
G01*
X16208500Y-9398000D02*
G75*
G02*
X16303500Y-9398000I47500J0D01*
G01*
X16303500Y-9652000D02*
G75*
G02*
X16208500Y-9652000I-47500J0D01*
G01*
X16208500Y-9652000D02*
G75*
G02*
X16303500Y-9652000I47500J0D01*
G01*
X16303500Y-9906000D02*
G75*
G02*
X16208500Y-9906000I-47500J0D01*
G01*
X16208500Y-9906000D02*
G75*
G02*
X16303500Y-9906000I47500J0D01*
G01*
X16303500Y-10160000D02*
G75*
G02*
X16208500Y-10160000I-47500J0D01*
G01*
X16208500Y-10160000D02*
G75*
G02*
X16303500Y-10160000I47500J0D01*
G01*
X16303500Y-10414000D02*
G75*
G02*
X16208500Y-10414000I-47500J0D01*
G01*
X16208500Y-10414000D02*
G75*
G02*
X16303500Y-10414000I47500J0D01*
G01*
X16303500Y-10668000D02*
G75*
G02*
X16208500Y-10668000I-47500J0D01*
G01*
X16208500Y-10668000D02*
G75*
G02*
X16303500Y-10668000I47500J0D01*
G01*
X16303500Y-10922000D02*
G75*
G02*
X16208500Y-10922000I-47500J0D01*
G01*
X16208500Y-10922000D02*
G75*
G02*
X16303500Y-10922000I47500J0D01*
G01*
X16303500Y-11176000D02*
G75*
G02*
X16208500Y-11176000I-47500J0D01*
G01*
X16208500Y-11176000D02*
G75*
G02*
X16303500Y-11176000I47500J0D01*
G01*
X16303500Y-11430000D02*
G75*
G02*
X16208500Y-11430000I-47500J0D01*
G01*
X16208500Y-11430000D02*
G75*
G02*
X16303500Y-11430000I47500J0D01*
G01*
X16303500Y-11684000D02*
G75*
G02*
X16208500Y-11684000I-47500J0D01*
G01*
X16208500Y-11684000D02*
G75*
G02*
X16303500Y-11684000I47500J0D01*
G01*
X16303500Y-11938000D02*
G75*
G02*
X16208500Y-11938000I-47500J0D01*
G01*
X16208500Y-11938000D02*
G75*
G02*
X16303500Y-11938000I47500J0D01*
G01*
X16303500Y-12192000D02*
G75*
G02*
X16208500Y-12192000I-47500J0D01*
G01*
X16208500Y-12192000D02*
G75*
G02*
X16303500Y-12192000I47500J0D01*
G01*
X16303500Y-12446000D02*
G75*
G02*
X16208500Y-12446000I-47500J0D01*
G01*
X16208500Y-12446000D02*
G75*
G02*
X16303500Y-12446000I47500J0D01*
G01*
X16303500Y-12700000D02*
G75*
G02*
X16208500Y-12700000I-47500J0D01*
G01*
X16208500Y-12700000D02*
G75*
G02*
X16303500Y-12700000I47500J0D01*
G01*
X16303500Y-12954000D02*
G75*
G02*
X16208500Y-12954000I-47500J0D01*
G01*
X16208500Y-12954000D02*
G75*
G02*
X16303500Y-12954000I47500J0D01*
G01*
X16303500Y-13208000D02*
G75*
G02*
X16208500Y-13208000I-47500J0D01*
G01*
X16208500Y-13208000D02*
G75*
G02*
X16303500Y-13208000I47500J0D01*
G01*
X16303500Y-13462000D02*
G75*
G02*
X16208500Y-13462000I-47500J0D01*
G01*
X16208500Y-13462000D02*
G75*
G02*
X16303500Y-13462000I47500J0D01*
G01*
X16303500Y-13716000D02*
G75*
G02*
X16208500Y-13716000I-47500J0D01*
G01*
X16208500Y-13716000D02*
G75*
G02*
X16303500Y-13716000I47500J0D01*
G01*
X16303500Y-13970000D02*
G75*
G02*
X16208500Y-13970000I-47500J0D01*
G01*
X16208500Y-13970000D02*
G75*
G02*
X16303500Y-13970000I47500J0D01*
G01*
X16557500Y-5588000D02*
G75*
G02*
X16462500Y-5588000I-47500J0D01*
G01*
X16462500Y-5588000D02*
G75*
G02*
X16557500Y-5588000I47500J0D01*
G01*
X16557500Y-5842000D02*
G75*
G02*
X16462500Y-5842000I-47500J0D01*
G01*
X16462500Y-5842000D02*
G75*
G02*
X16557500Y-5842000I47500J0D01*
G01*
X16557500Y-6096000D02*
G75*
G02*
X16462500Y-6096000I-47500J0D01*
G01*
X16462500Y-6096000D02*
G75*
G02*
X16557500Y-6096000I47500J0D01*
G01*
X16557500Y-6350000D02*
G75*
G02*
X16462500Y-6350000I-47500J0D01*
G01*
X16462500Y-6350000D02*
G75*
G02*
X16557500Y-6350000I47500J0D01*
G01*
X16557500Y-6604000D02*
G75*
G02*
X16462500Y-6604000I-47500J0D01*
G01*
X16462500Y-6604000D02*
G75*
G02*
X16557500Y-6604000I47500J0D01*
G01*
X16557500Y-6858000D02*
G75*
G02*
X16462500Y-6858000I-47500J0D01*
G01*
X16462500Y-6858000D02*
G75*
G02*
X16557500Y-6858000I47500J0D01*
G01*
X16557500Y-7112000D02*
G75*
G02*
X16462500Y-7112000I-47500J0D01*
G01*
X16462500Y-7112000D02*
G75*
G02*
X16557500Y-7112000I47500J0D01*
G01*
X16557500Y-7366000D02*
G75*
G02*
X16462500Y-7366000I-47500J0D01*
G01*
X16462500Y-7366000D02*
G75*
G02*
X16557500Y-7366000I47500J0D01*
G01*
X16557500Y-7620000D02*
G75*
G02*
X16462500Y-7620000I-47500J0D01*
G01*
X16462500Y-7620000D02*
G75*
G02*
X16557500Y-7620000I47500J0D01*
G01*
X16557500Y-7874000D02*
G75*
G02*
X16462500Y-7874000I-47500J0D01*
G01*
X16462500Y-7874000D02*
G75*
G02*
X16557500Y-7874000I47500J0D01*
G01*
X16557500Y-8128000D02*
G75*
G02*
X16462500Y-8128000I-47500J0D01*
G01*
X16462500Y-8128000D02*
G75*
G02*
X16557500Y-8128000I47500J0D01*
G01*
X16557500Y-8382000D02*
G75*
G02*
X16462500Y-8382000I-47500J0D01*
G01*
X16462500Y-8382000D02*
G75*
G02*
X16557500Y-8382000I47500J0D01*
G01*
X16557500Y-8636000D02*
G75*
G02*
X16462500Y-8636000I-47500J0D01*
G01*
X16462500Y-8636000D02*
G75*
G02*
X16557500Y-8636000I47500J0D01*
G01*
X16557500Y-8890000D02*
G75*
G02*
X16462500Y-8890000I-47500J0D01*
G01*
X16462500Y-8890000D02*
G75*
G02*
X16557500Y-8890000I47500J0D01*
G01*
X16557500Y-9144000D02*
G75*
G02*
X16462500Y-9144000I-47500J0D01*
G01*
X16462500Y-9144000D02*
G75*
G02*
X16557500Y-9144000I47500J0D01*
G01*
X16557500Y-9398000D02*
G75*
G02*
X16462500Y-9398000I-47500J0D01*
G01*
X16462500Y-9398000D02*
G75*
G02*
X16557500Y-9398000I47500J0D01*
G01*
X16557500Y-9652000D02*
G75*
G02*
X16462500Y-9652000I-47500J0D01*
G01*
X16462500Y-9652000D02*
G75*
G02*
X16557500Y-9652000I47500J0D01*
G01*
X16557500Y-9906000D02*
G75*
G02*
X16462500Y-9906000I-47500J0D01*
G01*
X16462500Y-9906000D02*
G75*
G02*
X16557500Y-9906000I47500J0D01*
G01*
X16557500Y-10160000D02*
G75*
G02*
X16462500Y-10160000I-47500J0D01*
G01*
X16462500Y-10160000D02*
G75*
G02*
X16557500Y-10160000I47500J0D01*
G01*
X16557500Y-10414000D02*
G75*
G02*
X16462500Y-10414000I-47500J0D01*
G01*
X16462500Y-10414000D02*
G75*
G02*
X16557500Y-10414000I47500J0D01*
G01*
X16557500Y-10668000D02*
G75*
G02*
X16462500Y-10668000I-47500J0D01*
G01*
X16462500Y-10668000D02*
G75*
G02*
X16557500Y-10668000I47500J0D01*
G01*
X16557500Y-10922000D02*
G75*
G02*
X16462500Y-10922000I-47500J0D01*
G01*
X16462500Y-10922000D02*
G75*
G02*
X16557500Y-10922000I47500J0D01*
G01*
X16557500Y-11176000D02*
G75*
G02*
X16462500Y-11176000I-47500J0D01*
G01*
X16462500Y-11176000D02*
G75*
G02*
X16557500Y-11176000I47500J0D01*
G01*
X16557500Y-11430000D02*
G75*
G02*
X16462500Y-11430000I-47500J0D01*
G01*
X16462500Y-11430000D02*
G75*
G02*
X16557500Y-11430000I47500J0D01*
G01*
X16557500Y-11684000D02*
G75*
G02*
X16462500Y-11684000I-47500J0D01*
G01*
X16462500Y-11684000D02*
G75*
G02*
X16557500Y-11684000I47500J0D01*
G01*
X16557500Y-11938000D02*
G75*
G02*
X16462500Y-11938000I-47500J0D01*
G01*
X16462500Y-11938000D02*
G75*
G02*
X16557500Y-11938000I47500J0D01*
G01*
X16557500Y-12192000D02*
G75*
G02*
X16462500Y-12192000I-47500J0D01*
G01*
X16462500Y-12192000D02*
G75*
G02*
X16557500Y-12192000I47500J0D01*
G01*
X16557500Y-12446000D02*
G75*
G02*
X16462500Y-12446000I-47500J0D01*
G01*
X16462500Y-12446000D02*
G75*
G02*
X16557500Y-12446000I47500J0D01*
G01*
X16557500Y-12700000D02*
G75*
G02*
X16462500Y-12700000I-47500J0D01*
G01*
X16462500Y-12700000D02*
G75*
G02*
X16557500Y-12700000I47500J0D01*
G01*
X16557500Y-12954000D02*
G75*
G02*
X16462500Y-12954000I-47500J0D01*
G01*
X16462500Y-12954000D02*
G75*
G02*
X16557500Y-12954000I47500J0D01*
G01*
X16557500Y-13208000D02*
G75*
G02*
X16462500Y-13208000I-47500J0D01*
G01*
X16462500Y-13208000D02*
G75*
G02*
X16557500Y-13208000I47500J0D01*
G01*
X16557500Y-13462000D02*
G75*
G02*
X16462500Y-13462000I-47500J0D01*
G01*
X16462500Y-13462000D02*
G75*
G02*
X16557500Y-13462000I47500J0D01*
G01*
X16557500Y-13716000D02*
G75*
G02*
X16462500Y-13716000I-47500J0D01*
G01*
X16462500Y-13716000D02*
G75*
G02*
X16557500Y-13716000I47500J0D01*
G01*
X16557500Y-13970000D02*
G75*
G02*
X16462500Y-13970000I-47500J0D01*
G01*
X16462500Y-13970000D02*
G75*
G02*
X16557500Y-13970000I47500J0D01*
G01*
X16811500Y-5588000D02*
G75*
G02*
X16716500Y-5588000I-47500J0D01*
G01*
X16716500Y-5588000D02*
G75*
G02*
X16811500Y-5588000I47500J0D01*
G01*
X16811500Y-5842000D02*
G75*
G02*
X16716500Y-5842000I-47500J0D01*
G01*
X16716500Y-5842000D02*
G75*
G02*
X16811500Y-5842000I47500J0D01*
G01*
X16811500Y-6096000D02*
G75*
G02*
X16716500Y-6096000I-47500J0D01*
G01*
X16716500Y-6096000D02*
G75*
G02*
X16811500Y-6096000I47500J0D01*
G01*
X16811500Y-6350000D02*
G75*
G02*
X16716500Y-6350000I-47500J0D01*
G01*
X16716500Y-6350000D02*
G75*
G02*
X16811500Y-6350000I47500J0D01*
G01*
X16811500Y-6604000D02*
G75*
G02*
X16716500Y-6604000I-47500J0D01*
G01*
X16716500Y-6604000D02*
G75*
G02*
X16811500Y-6604000I47500J0D01*
G01*
X16811500Y-6858000D02*
G75*
G02*
X16716500Y-6858000I-47500J0D01*
G01*
X16716500Y-6858000D02*
G75*
G02*
X16811500Y-6858000I47500J0D01*
G01*
X16811500Y-7112000D02*
G75*
G02*
X16716500Y-7112000I-47500J0D01*
G01*
X16716500Y-7112000D02*
G75*
G02*
X16811500Y-7112000I47500J0D01*
G01*
X16811500Y-7366000D02*
G75*
G02*
X16716500Y-7366000I-47500J0D01*
G01*
X16716500Y-7366000D02*
G75*
G02*
X16811500Y-7366000I47500J0D01*
G01*
X16811500Y-7620000D02*
G75*
G02*
X16716500Y-7620000I-47500J0D01*
G01*
X16716500Y-7620000D02*
G75*
G02*
X16811500Y-7620000I47500J0D01*
G01*
X16811500Y-7874000D02*
G75*
G02*
X16716500Y-7874000I-47500J0D01*
G01*
X16716500Y-7874000D02*
G75*
G02*
X16811500Y-7874000I47500J0D01*
G01*
X16811500Y-8128000D02*
G75*
G02*
X16716500Y-8128000I-47500J0D01*
G01*
X16716500Y-8128000D02*
G75*
G02*
X16811500Y-8128000I47500J0D01*
G01*
X16811500Y-8382000D02*
G75*
G02*
X16716500Y-8382000I-47500J0D01*
G01*
X16716500Y-8382000D02*
G75*
G02*
X16811500Y-8382000I47500J0D01*
G01*
X16811500Y-8636000D02*
G75*
G02*
X16716500Y-8636000I-47500J0D01*
G01*
X16716500Y-8636000D02*
G75*
G02*
X16811500Y-8636000I47500J0D01*
G01*
X16811500Y-8890000D02*
G75*
G02*
X16716500Y-8890000I-47500J0D01*
G01*
X16716500Y-8890000D02*
G75*
G02*
X16811500Y-8890000I47500J0D01*
G01*
X16811500Y-9144000D02*
G75*
G02*
X16716500Y-9144000I-47500J0D01*
G01*
X16716500Y-9144000D02*
G75*
G02*
X16811500Y-9144000I47500J0D01*
G01*
X16811500Y-9398000D02*
G75*
G02*
X16716500Y-9398000I-47500J0D01*
G01*
X16716500Y-9398000D02*
G75*
G02*
X16811500Y-9398000I47500J0D01*
G01*
X16811500Y-9652000D02*
G75*
G02*
X16716500Y-9652000I-47500J0D01*
G01*
X16716500Y-9652000D02*
G75*
G02*
X16811500Y-9652000I47500J0D01*
G01*
X16811500Y-9906000D02*
G75*
G02*
X16716500Y-9906000I-47500J0D01*
G01*
X16716500Y-9906000D02*
G75*
G02*
X16811500Y-9906000I47500J0D01*
G01*
X16811500Y-10160000D02*
G75*
G02*
X16716500Y-10160000I-47500J0D01*
G01*
X16716500Y-10160000D02*
G75*
G02*
X16811500Y-10160000I47500J0D01*
G01*
X16811500Y-10414000D02*
G75*
G02*
X16716500Y-10414000I-47500J0D01*
G01*
X16716500Y-10414000D02*
G75*
G02*
X16811500Y-10414000I47500J0D01*
G01*
X16811500Y-10668000D02*
G75*
G02*
X16716500Y-10668000I-47500J0D01*
G01*
X16716500Y-10668000D02*
G75*
G02*
X16811500Y-10668000I47500J0D01*
G01*
X16811500Y-10922000D02*
G75*
G02*
X16716500Y-10922000I-47500J0D01*
G01*
X16716500Y-10922000D02*
G75*
G02*
X16811500Y-10922000I47500J0D01*
G01*
X16811500Y-11176000D02*
G75*
G02*
X16716500Y-11176000I-47500J0D01*
G01*
X16716500Y-11176000D02*
G75*
G02*
X16811500Y-11176000I47500J0D01*
G01*
X16811500Y-11430000D02*
G75*
G02*
X16716500Y-11430000I-47500J0D01*
G01*
X16716500Y-11430000D02*
G75*
G02*
X16811500Y-11430000I47500J0D01*
G01*
X16811500Y-11684000D02*
G75*
G02*
X16716500Y-11684000I-47500J0D01*
G01*
X16716500Y-11684000D02*
G75*
G02*
X16811500Y-11684000I47500J0D01*
G01*
X16811500Y-11938000D02*
G75*
G02*
X16716500Y-11938000I-47500J0D01*
G01*
X16716500Y-11938000D02*
G75*
G02*
X16811500Y-11938000I47500J0D01*
G01*
X16811500Y-12192000D02*
G75*
G02*
X16716500Y-12192000I-47500J0D01*
G01*
X16716500Y-12192000D02*
G75*
G02*
X16811500Y-12192000I47500J0D01*
G01*
X16811500Y-12446000D02*
G75*
G02*
X16716500Y-12446000I-47500J0D01*
G01*
X16716500Y-12446000D02*
G75*
G02*
X16811500Y-12446000I47500J0D01*
G01*
X16811500Y-12700000D02*
G75*
G02*
X16716500Y-12700000I-47500J0D01*
G01*
X16716500Y-12700000D02*
G75*
G02*
X16811500Y-12700000I47500J0D01*
G01*
X16811500Y-12954000D02*
G75*
G02*
X16716500Y-12954000I-47500J0D01*
G01*
X16716500Y-12954000D02*
G75*
G02*
X16811500Y-12954000I47500J0D01*
G01*
X16811500Y-13208000D02*
G75*
G02*
X16716500Y-13208000I-47500J0D01*
G01*
X16716500Y-13208000D02*
G75*
G02*
X16811500Y-13208000I47500J0D01*
G01*
X16811500Y-13462000D02*
G75*
G02*
X16716500Y-13462000I-47500J0D01*
G01*
X16716500Y-13462000D02*
G75*
G02*
X16811500Y-13462000I47500J0D01*
G01*
X16811500Y-13716000D02*
G75*
G02*
X16716500Y-13716000I-47500J0D01*
G01*
X16716500Y-13716000D02*
G75*
G02*
X16811500Y-13716000I47500J0D01*
G01*
X16811500Y-13970000D02*
G75*
G02*
X16716500Y-13970000I-47500J0D01*
G01*
X16716500Y-13970000D02*
G75*
G02*
X16811500Y-13970000I47500J0D01*
G01*
X17065500Y-5588000D02*
G75*
G02*
X16970500Y-5588000I-47500J0D01*
G01*
X16970500Y-5588000D02*
G75*
G02*
X17065500Y-5588000I47500J0D01*
G01*
X17065500Y-5842000D02*
G75*
G02*
X16970500Y-5842000I-47500J0D01*
G01*
X16970500Y-5842000D02*
G75*
G02*
X17065500Y-5842000I47500J0D01*
G01*
X17065500Y-6096000D02*
G75*
G02*
X16970500Y-6096000I-47500J0D01*
G01*
X16970500Y-6096000D02*
G75*
G02*
X17065500Y-6096000I47500J0D01*
G01*
X17065500Y-6350000D02*
G75*
G02*
X16970500Y-6350000I-47500J0D01*
G01*
X16970500Y-6350000D02*
G75*
G02*
X17065500Y-6350000I47500J0D01*
G01*
X17065500Y-6604000D02*
G75*
G02*
X16970500Y-6604000I-47500J0D01*
G01*
X16970500Y-6604000D02*
G75*
G02*
X17065500Y-6604000I47500J0D01*
G01*
X17065500Y-6858000D02*
G75*
G02*
X16970500Y-6858000I-47500J0D01*
G01*
X16970500Y-6858000D02*
G75*
G02*
X17065500Y-6858000I47500J0D01*
G01*
X17065500Y-7112000D02*
G75*
G02*
X16970500Y-7112000I-47500J0D01*
G01*
X16970500Y-7112000D02*
G75*
G02*
X17065500Y-7112000I47500J0D01*
G01*
X17065500Y-7366000D02*
G75*
G02*
X16970500Y-7366000I-47500J0D01*
G01*
X16970500Y-7366000D02*
G75*
G02*
X17065500Y-7366000I47500J0D01*
G01*
X17065500Y-7620000D02*
G75*
G02*
X16970500Y-7620000I-47500J0D01*
G01*
X16970500Y-7620000D02*
G75*
G02*
X17065500Y-7620000I47500J0D01*
G01*
X17065500Y-7874000D02*
G75*
G02*
X16970500Y-7874000I-47500J0D01*
G01*
X16970500Y-7874000D02*
G75*
G02*
X17065500Y-7874000I47500J0D01*
G01*
X17065500Y-8128000D02*
G75*
G02*
X16970500Y-8128000I-47500J0D01*
G01*
X16970500Y-8128000D02*
G75*
G02*
X17065500Y-8128000I47500J0D01*
G01*
X17065500Y-8382000D02*
G75*
G02*
X16970500Y-8382000I-47500J0D01*
G01*
X16970500Y-8382000D02*
G75*
G02*
X17065500Y-8382000I47500J0D01*
G01*
X17065500Y-8636000D02*
G75*
G02*
X16970500Y-8636000I-47500J0D01*
G01*
X16970500Y-8636000D02*
G75*
G02*
X17065500Y-8636000I47500J0D01*
G01*
X17065500Y-8890000D02*
G75*
G02*
X16970500Y-8890000I-47500J0D01*
G01*
X16970500Y-8890000D02*
G75*
G02*
X17065500Y-8890000I47500J0D01*
G01*
X17065500Y-9144000D02*
G75*
G02*
X16970500Y-9144000I-47500J0D01*
G01*
X16970500Y-9144000D02*
G75*
G02*
X17065500Y-9144000I47500J0D01*
G01*
X17065500Y-9398000D02*
G75*
G02*
X16970500Y-9398000I-47500J0D01*
G01*
X16970500Y-9398000D02*
G75*
G02*
X17065500Y-9398000I47500J0D01*
G01*
X17065500Y-9652000D02*
G75*
G02*
X16970500Y-9652000I-47500J0D01*
G01*
X16970500Y-9652000D02*
G75*
G02*
X17065500Y-9652000I47500J0D01*
G01*
X17065500Y-9906000D02*
G75*
G02*
X16970500Y-9906000I-47500J0D01*
G01*
X16970500Y-9906000D02*
G75*
G02*
X17065500Y-9906000I47500J0D01*
G01*
X17065500Y-10160000D02*
G75*
G02*
X16970500Y-10160000I-47500J0D01*
G01*
X16970500Y-10160000D02*
G75*
G02*
X17065500Y-10160000I47500J0D01*
G01*
X17065500Y-10414000D02*
G75*
G02*
X16970500Y-10414000I-47500J0D01*
G01*
X16970500Y-10414000D02*
G75*
G02*
X17065500Y-10414000I47500J0D01*
G01*
X17065500Y-10668000D02*
G75*
G02*
X16970500Y-10668000I-47500J0D01*
G01*
X16970500Y-10668000D02*
G75*
G02*
X17065500Y-10668000I47500J0D01*
G01*
X17065500Y-10922000D02*
G75*
G02*
X16970500Y-10922000I-47500J0D01*
G01*
X16970500Y-10922000D02*
G75*
G02*
X17065500Y-10922000I47500J0D01*
G01*
X17065500Y-11176000D02*
G75*
G02*
X16970500Y-11176000I-47500J0D01*
G01*
X16970500Y-11176000D02*
G75*
G02*
X17065500Y-11176000I47500J0D01*
G01*
X17065500Y-11430000D02*
G75*
G02*
X16970500Y-11430000I-47500J0D01*
G01*
X16970500Y-11430000D02*
G75*
G02*
X17065500Y-11430000I47500J0D01*
G01*
X17065500Y-11684000D02*
G75*
G02*
X16970500Y-11684000I-47500J0D01*
G01*
X16970500Y-11684000D02*
G75*
G02*
X17065500Y-11684000I47500J0D01*
G01*
X17065500Y-11938000D02*
G75*
G02*
X16970500Y-11938000I-47500J0D01*
G01*
X16970500Y-11938000D02*
G75*
G02*
X17065500Y-11938000I47500J0D01*
G01*
X17065500Y-12192000D02*
G75*
G02*
X16970500Y-12192000I-47500J0D01*
G01*
X16970500Y-12192000D02*
G75*
G02*
X17065500Y-12192000I47500J0D01*
G01*
X17065500Y-12446000D02*
G75*
G02*
X16970500Y-12446000I-47500J0D01*
G01*
X16970500Y-12446000D02*
G75*
G02*
X17065500Y-12446000I47500J0D01*
G01*
X17065500Y-12700000D02*
G75*
G02*
X16970500Y-12700000I-47500J0D01*
G01*
X16970500Y-12700000D02*
G75*
G02*
X17065500Y-12700000I47500J0D01*
G01*
X17065500Y-12954000D02*
G75*
G02*
X16970500Y-12954000I-47500J0D01*
G01*
X16970500Y-12954000D02*
G75*
G02*
X17065500Y-12954000I47500J0D01*
G01*
X17065500Y-13208000D02*
G75*
G02*
X16970500Y-13208000I-47500J0D01*
G01*
X16970500Y-13208000D02*
G75*
G02*
X17065500Y-13208000I47500J0D01*
G01*
X17065500Y-13462000D02*
G75*
G02*
X16970500Y-13462000I-47500J0D01*
G01*
X16970500Y-13462000D02*
G75*
G02*
X17065500Y-13462000I47500J0D01*
G01*
X17065500Y-13716000D02*
G75*
G02*
X16970500Y-13716000I-47500J0D01*
G01*
X16970500Y-13716000D02*
G75*
G02*
X17065500Y-13716000I47500J0D01*
G01*
X17065500Y-13970000D02*
G75*
G02*
X16970500Y-13970000I-47500J0D01*
G01*
X16970500Y-13970000D02*
G75*
G02*
X17065500Y-13970000I47500J0D01*
G01*
X17319500Y-5588000D02*
G75*
G02*
X17224500Y-5588000I-47500J0D01*
G01*
X17224500Y-5588000D02*
G75*
G02*
X17319500Y-5588000I47500J0D01*
G01*
X17319500Y-5842000D02*
G75*
G02*
X17224500Y-5842000I-47500J0D01*
G01*
X17224500Y-5842000D02*
G75*
G02*
X17319500Y-5842000I47500J0D01*
G01*
X17319500Y-6096000D02*
G75*
G02*
X17224500Y-6096000I-47500J0D01*
G01*
X17224500Y-6096000D02*
G75*
G02*
X17319500Y-6096000I47500J0D01*
G01*
X17319500Y-6350000D02*
G75*
G02*
X17224500Y-6350000I-47500J0D01*
G01*
X17224500Y-6350000D02*
G75*
G02*
X17319500Y-6350000I47500J0D01*
G01*
X17319500Y-6604000D02*
G75*
G02*
X17224500Y-6604000I-47500J0D01*
G01*
X17224500Y-6604000D02*
G75*
G02*
X17319500Y-6604000I47500J0D01*
G01*
X17319500Y-6858000D02*
G75*
G02*
X17224500Y-6858000I-47500J0D01*
G01*
X17224500Y-6858000D02*
G75*
G02*
X17319500Y-6858000I47500J0D01*
G01*
X17319500Y-7112000D02*
G75*
G02*
X17224500Y-7112000I-47500J0D01*
G01*
X17224500Y-7112000D02*
G75*
G02*
X17319500Y-7112000I47500J0D01*
G01*
X17319500Y-7366000D02*
G75*
G02*
X17224500Y-7366000I-47500J0D01*
G01*
X17224500Y-7366000D02*
G75*
G02*
X17319500Y-7366000I47500J0D01*
G01*
X17319500Y-7620000D02*
G75*
G02*
X17224500Y-7620000I-47500J0D01*
G01*
X17224500Y-7620000D02*
G75*
G02*
X17319500Y-7620000I47500J0D01*
G01*
X17319500Y-7874000D02*
G75*
G02*
X17224500Y-7874000I-47500J0D01*
G01*
X17224500Y-7874000D02*
G75*
G02*
X17319500Y-7874000I47500J0D01*
G01*
X17319500Y-8128000D02*
G75*
G02*
X17224500Y-8128000I-47500J0D01*
G01*
X17224500Y-8128000D02*
G75*
G02*
X17319500Y-8128000I47500J0D01*
G01*
X17319500Y-8382000D02*
G75*
G02*
X17224500Y-8382000I-47500J0D01*
G01*
X17224500Y-8382000D02*
G75*
G02*
X17319500Y-8382000I47500J0D01*
G01*
X17319500Y-8636000D02*
G75*
G02*
X17224500Y-8636000I-47500J0D01*
G01*
X17224500Y-8636000D02*
G75*
G02*
X17319500Y-8636000I47500J0D01*
G01*
X17319500Y-8890000D02*
G75*
G02*
X17224500Y-8890000I-47500J0D01*
G01*
X17224500Y-8890000D02*
G75*
G02*
X17319500Y-8890000I47500J0D01*
G01*
X17319500Y-9144000D02*
G75*
G02*
X17224500Y-9144000I-47500J0D01*
G01*
X17224500Y-9144000D02*
G75*
G02*
X17319500Y-9144000I47500J0D01*
G01*
X17319500Y-9398000D02*
G75*
G02*
X17224500Y-9398000I-47500J0D01*
G01*
X17224500Y-9398000D02*
G75*
G02*
X17319500Y-9398000I47500J0D01*
G01*
X17319500Y-9652000D02*
G75*
G02*
X17224500Y-9652000I-47500J0D01*
G01*
X17224500Y-9652000D02*
G75*
G02*
X17319500Y-9652000I47500J0D01*
G01*
X17319500Y-9906000D02*
G75*
G02*
X17224500Y-9906000I-47500J0D01*
G01*
X17224500Y-9906000D02*
G75*
G02*
X17319500Y-9906000I47500J0D01*
G01*
X17319500Y-10160000D02*
G75*
G02*
X17224500Y-10160000I-47500J0D01*
G01*
X17224500Y-10160000D02*
G75*
G02*
X17319500Y-10160000I47500J0D01*
G01*
X17319500Y-10414000D02*
G75*
G02*
X17224500Y-10414000I-47500J0D01*
G01*
X17224500Y-10414000D02*
G75*
G02*
X17319500Y-10414000I47500J0D01*
G01*
X17319500Y-10668000D02*
G75*
G02*
X17224500Y-10668000I-47500J0D01*
G01*
X17224500Y-10668000D02*
G75*
G02*
X17319500Y-10668000I47500J0D01*
G01*
X17319500Y-10922000D02*
G75*
G02*
X17224500Y-10922000I-47500J0D01*
G01*
X17224500Y-10922000D02*
G75*
G02*
X17319500Y-10922000I47500J0D01*
G01*
X17319500Y-11176000D02*
G75*
G02*
X17224500Y-11176000I-47500J0D01*
G01*
X17224500Y-11176000D02*
G75*
G02*
X17319500Y-11176000I47500J0D01*
G01*
X17319500Y-11430000D02*
G75*
G02*
X17224500Y-11430000I-47500J0D01*
G01*
X17224500Y-11430000D02*
G75*
G02*
X17319500Y-11430000I47500J0D01*
G01*
X17319500Y-11684000D02*
G75*
G02*
X17224500Y-11684000I-47500J0D01*
G01*
X17224500Y-11684000D02*
G75*
G02*
X17319500Y-11684000I47500J0D01*
G01*
X17319500Y-11938000D02*
G75*
G02*
X17224500Y-11938000I-47500J0D01*
G01*
X17224500Y-11938000D02*
G75*
G02*
X17319500Y-11938000I47500J0D01*
G01*
X17319500Y-12192000D02*
G75*
G02*
X17224500Y-12192000I-47500J0D01*
G01*
X17224500Y-12192000D02*
G75*
G02*
X17319500Y-12192000I47500J0D01*
G01*
X17319500Y-12446000D02*
G75*
G02*
X17224500Y-12446000I-47500J0D01*
G01*
X17224500Y-12446000D02*
G75*
G02*
X17319500Y-12446000I47500J0D01*
G01*
X17319500Y-12700000D02*
G75*
G02*
X17224500Y-12700000I-47500J0D01*
G01*
X17224500Y-12700000D02*
G75*
G02*
X17319500Y-12700000I47500J0D01*
G01*
X17319500Y-12954000D02*
G75*
G02*
X17224500Y-12954000I-47500J0D01*
G01*
X17224500Y-12954000D02*
G75*
G02*
X17319500Y-12954000I47500J0D01*
G01*
X17319500Y-13208000D02*
G75*
G02*
X17224500Y-13208000I-47500J0D01*
G01*
X17224500Y-13208000D02*
G75*
G02*
X17319500Y-13208000I47500J0D01*
G01*
X17319500Y-13462000D02*
G75*
G02*
X17224500Y-13462000I-47500J0D01*
G01*
X17224500Y-13462000D02*
G75*
G02*
X17319500Y-13462000I47500J0D01*
G01*
X17319500Y-13716000D02*
G75*
G02*
X17224500Y-13716000I-47500J0D01*
G01*
X17224500Y-13716000D02*
G75*
G02*
X17319500Y-13716000I47500J0D01*
G01*
X17319500Y-13970000D02*
G75*
G02*
X17224500Y-13970000I-47500J0D01*
G01*
X17224500Y-13970000D02*
G75*
G02*
X17319500Y-13970000I47500J0D01*
G01*
X17573500Y-5588000D02*
G75*
G02*
X17478500Y-5588000I-47500J0D01*
G01*
X17478500Y-5588000D02*
G75*
G02*
X17573500Y-5588000I47500J0D01*
G01*
X17573500Y-5842000D02*
G75*
G02*
X17478500Y-5842000I-47500J0D01*
G01*
X17478500Y-5842000D02*
G75*
G02*
X17573500Y-5842000I47500J0D01*
G01*
X17573500Y-6096000D02*
G75*
G02*
X17478500Y-6096000I-47500J0D01*
G01*
X17478500Y-6096000D02*
G75*
G02*
X17573500Y-6096000I47500J0D01*
G01*
X17573500Y-6350000D02*
G75*
G02*
X17478500Y-6350000I-47500J0D01*
G01*
X17478500Y-6350000D02*
G75*
G02*
X17573500Y-6350000I47500J0D01*
G01*
X17573500Y-6604000D02*
G75*
G02*
X17478500Y-6604000I-47500J0D01*
G01*
X17478500Y-6604000D02*
G75*
G02*
X17573500Y-6604000I47500J0D01*
G01*
X17573500Y-6858000D02*
G75*
G02*
X17478500Y-6858000I-47500J0D01*
G01*
X17478500Y-6858000D02*
G75*
G02*
X17573500Y-6858000I47500J0D01*
G01*
X17573500Y-7112000D02*
G75*
G02*
X17478500Y-7112000I-47500J0D01*
G01*
X17478500Y-7112000D02*
G75*
G02*
X17573500Y-7112000I47500J0D01*
G01*
X17573500Y-7366000D02*
G75*
G02*
X17478500Y-7366000I-47500J0D01*
G01*
X17478500Y-7366000D02*
G75*
G02*
X17573500Y-7366000I47500J0D01*
G01*
X17573500Y-7620000D02*
G75*
G02*
X17478500Y-7620000I-47500J0D01*
G01*
X17478500Y-7620000D02*
G75*
G02*
X17573500Y-7620000I47500J0D01*
G01*
X17573500Y-7874000D02*
G75*
G02*
X17478500Y-7874000I-47500J0D01*
G01*
X17478500Y-7874000D02*
G75*
G02*
X17573500Y-7874000I47500J0D01*
G01*
X17573500Y-8128000D02*
G75*
G02*
X17478500Y-8128000I-47500J0D01*
G01*
X17478500Y-8128000D02*
G75*
G02*
X17573500Y-8128000I47500J0D01*
G01*
X17573500Y-8382000D02*
G75*
G02*
X17478500Y-8382000I-47500J0D01*
G01*
X17478500Y-8382000D02*
G75*
G02*
X17573500Y-8382000I47500J0D01*
G01*
X17573500Y-8636000D02*
G75*
G02*
X17478500Y-8636000I-47500J0D01*
G01*
X17478500Y-8636000D02*
G75*
G02*
X17573500Y-8636000I47500J0D01*
G01*
X17573500Y-8890000D02*
G75*
G02*
X17478500Y-8890000I-47500J0D01*
G01*
X17478500Y-8890000D02*
G75*
G02*
X17573500Y-8890000I47500J0D01*
G01*
X17573500Y-9144000D02*
G75*
G02*
X17478500Y-9144000I-47500J0D01*
G01*
X17478500Y-9144000D02*
G75*
G02*
X17573500Y-9144000I47500J0D01*
G01*
X17573500Y-9398000D02*
G75*
G02*
X17478500Y-9398000I-47500J0D01*
G01*
X17478500Y-9398000D02*
G75*
G02*
X17573500Y-9398000I47500J0D01*
G01*
X17573500Y-9652000D02*
G75*
G02*
X17478500Y-9652000I-47500J0D01*
G01*
X17478500Y-9652000D02*
G75*
G02*
X17573500Y-9652000I47500J0D01*
G01*
X17573500Y-9906000D02*
G75*
G02*
X17478500Y-9906000I-47500J0D01*
G01*
X17478500Y-9906000D02*
G75*
G02*
X17573500Y-9906000I47500J0D01*
G01*
X17573500Y-10160000D02*
G75*
G02*
X17478500Y-10160000I-47500J0D01*
G01*
X17478500Y-10160000D02*
G75*
G02*
X17573500Y-10160000I47500J0D01*
G01*
X17573500Y-10414000D02*
G75*
G02*
X17478500Y-10414000I-47500J0D01*
G01*
X17478500Y-10414000D02*
G75*
G02*
X17573500Y-10414000I47500J0D01*
G01*
X17573500Y-10668000D02*
G75*
G02*
X17478500Y-10668000I-47500J0D01*
G01*
X17478500Y-10668000D02*
G75*
G02*
X17573500Y-10668000I47500J0D01*
G01*
X17573500Y-10922000D02*
G75*
G02*
X17478500Y-10922000I-47500J0D01*
G01*
X17478500Y-10922000D02*
G75*
G02*
X17573500Y-10922000I47500J0D01*
G01*
X17573500Y-11176000D02*
G75*
G02*
X17478500Y-11176000I-47500J0D01*
G01*
X17478500Y-11176000D02*
G75*
G02*
X17573500Y-11176000I47500J0D01*
G01*
X17573500Y-11430000D02*
G75*
G02*
X17478500Y-11430000I-47500J0D01*
G01*
X17478500Y-11430000D02*
G75*
G02*
X17573500Y-11430000I47500J0D01*
G01*
X17573500Y-11684000D02*
G75*
G02*
X17478500Y-11684000I-47500J0D01*
G01*
X17478500Y-11684000D02*
G75*
G02*
X17573500Y-11684000I47500J0D01*
G01*
X17573500Y-11938000D02*
G75*
G02*
X17478500Y-11938000I-47500J0D01*
G01*
X17478500Y-11938000D02*
G75*
G02*
X17573500Y-11938000I47500J0D01*
G01*
X17573500Y-12192000D02*
G75*
G02*
X17478500Y-12192000I-47500J0D01*
G01*
X17478500Y-12192000D02*
G75*
G02*
X17573500Y-12192000I47500J0D01*
G01*
X17573500Y-12446000D02*
G75*
G02*
X17478500Y-12446000I-47500J0D01*
G01*
X17478500Y-12446000D02*
G75*
G02*
X17573500Y-12446000I47500J0D01*
G01*
X17573500Y-12700000D02*
G75*
G02*
X17478500Y-12700000I-47500J0D01*
G01*
X17478500Y-12700000D02*
G75*
G02*
X17573500Y-12700000I47500J0D01*
G01*
X17573500Y-12954000D02*
G75*
G02*
X17478500Y-12954000I-47500J0D01*
G01*
X17478500Y-12954000D02*
G75*
G02*
X17573500Y-12954000I47500J0D01*
G01*
X17573500Y-13208000D02*
G75*
G02*
X17478500Y-13208000I-47500J0D01*
G01*
X17478500Y-13208000D02*
G75*
G02*
X17573500Y-13208000I47500J0D01*
G01*
X17573500Y-13462000D02*
G75*
G02*
X17478500Y-13462000I-47500J0D01*
G01*
X17478500Y-13462000D02*
G75*
G02*
X17573500Y-13462000I47500J0D01*
G01*
X17573500Y-13716000D02*
G75*
G02*
X17478500Y-13716000I-47500J0D01*
G01*
X17478500Y-13716000D02*
G75*
G02*
X17573500Y-13716000I47500J0D01*
G01*
X17573500Y-13970000D02*
G75*
G02*
X17478500Y-13970000I-47500J0D01*
G01*
X17478500Y-13970000D02*
G75*
G02*
X17573500Y-13970000I47500J0D01*
G01*
X17827500Y-5588000D02*
G75*
G02*
X17732500Y-5588000I-47500J0D01*
G01*
X17732500Y-5588000D02*
G75*
G02*
X17827500Y-5588000I47500J0D01*
G01*
X17827500Y-5842000D02*
G75*
G02*
X17732500Y-5842000I-47500J0D01*
G01*
X17732500Y-5842000D02*
G75*
G02*
X17827500Y-5842000I47500J0D01*
G01*
X17827500Y-6096000D02*
G75*
G02*
X17732500Y-6096000I-47500J0D01*
G01*
X17732500Y-6096000D02*
G75*
G02*
X17827500Y-6096000I47500J0D01*
G01*
X17827500Y-6350000D02*
G75*
G02*
X17732500Y-6350000I-47500J0D01*
G01*
X17732500Y-6350000D02*
G75*
G02*
X17827500Y-6350000I47500J0D01*
G01*
X17827500Y-6604000D02*
G75*
G02*
X17732500Y-6604000I-47500J0D01*
G01*
X17732500Y-6604000D02*
G75*
G02*
X17827500Y-6604000I47500J0D01*
G01*
X17827500Y-6858000D02*
G75*
G02*
X17732500Y-6858000I-47500J0D01*
G01*
X17732500Y-6858000D02*
G75*
G02*
X17827500Y-6858000I47500J0D01*
G01*
X17827500Y-7112000D02*
G75*
G02*
X17732500Y-7112000I-47500J0D01*
G01*
X17732500Y-7112000D02*
G75*
G02*
X17827500Y-7112000I47500J0D01*
G01*
X17827500Y-7366000D02*
G75*
G02*
X17732500Y-7366000I-47500J0D01*
G01*
X17732500Y-7366000D02*
G75*
G02*
X17827500Y-7366000I47500J0D01*
G01*
X17827500Y-7620000D02*
G75*
G02*
X17732500Y-7620000I-47500J0D01*
G01*
X17732500Y-7620000D02*
G75*
G02*
X17827500Y-7620000I47500J0D01*
G01*
X17827500Y-7874000D02*
G75*
G02*
X17732500Y-7874000I-47500J0D01*
G01*
X17732500Y-7874000D02*
G75*
G02*
X17827500Y-7874000I47500J0D01*
G01*
X17827500Y-8128000D02*
G75*
G02*
X17732500Y-8128000I-47500J0D01*
G01*
X17732500Y-8128000D02*
G75*
G02*
X17827500Y-8128000I47500J0D01*
G01*
X17827500Y-8382000D02*
G75*
G02*
X17732500Y-8382000I-47500J0D01*
G01*
X17732500Y-8382000D02*
G75*
G02*
X17827500Y-8382000I47500J0D01*
G01*
X17827500Y-8636000D02*
G75*
G02*
X17732500Y-8636000I-47500J0D01*
G01*
X17732500Y-8636000D02*
G75*
G02*
X17827500Y-8636000I47500J0D01*
G01*
X17827500Y-8890000D02*
G75*
G02*
X17732500Y-8890000I-47500J0D01*
G01*
X17732500Y-8890000D02*
G75*
G02*
X17827500Y-8890000I47500J0D01*
G01*
X17827500Y-9144000D02*
G75*
G02*
X17732500Y-9144000I-47500J0D01*
G01*
X17732500Y-9144000D02*
G75*
G02*
X17827500Y-9144000I47500J0D01*
G01*
X17827500Y-9398000D02*
G75*
G02*
X17732500Y-9398000I-47500J0D01*
G01*
X17732500Y-9398000D02*
G75*
G02*
X17827500Y-9398000I47500J0D01*
G01*
X17827500Y-9652000D02*
G75*
G02*
X17732500Y-9652000I-47500J0D01*
G01*
X17732500Y-9652000D02*
G75*
G02*
X17827500Y-9652000I47500J0D01*
G01*
X17827500Y-9906000D02*
G75*
G02*
X17732500Y-9906000I-47500J0D01*
G01*
X17732500Y-9906000D02*
G75*
G02*
X17827500Y-9906000I47500J0D01*
G01*
X17827500Y-10160000D02*
G75*
G02*
X17732500Y-10160000I-47500J0D01*
G01*
X17732500Y-10160000D02*
G75*
G02*
X17827500Y-10160000I47500J0D01*
G01*
X17827500Y-10414000D02*
G75*
G02*
X17732500Y-10414000I-47500J0D01*
G01*
X17732500Y-10414000D02*
G75*
G02*
X17827500Y-10414000I47500J0D01*
G01*
X17827500Y-10668000D02*
G75*
G02*
X17732500Y-10668000I-47500J0D01*
G01*
X17732500Y-10668000D02*
G75*
G02*
X17827500Y-10668000I47500J0D01*
G01*
X17827500Y-10922000D02*
G75*
G02*
X17732500Y-10922000I-47500J0D01*
G01*
X17732500Y-10922000D02*
G75*
G02*
X17827500Y-10922000I47500J0D01*
G01*
X17827500Y-11176000D02*
G75*
G02*
X17732500Y-11176000I-47500J0D01*
G01*
X17732500Y-11176000D02*
G75*
G02*
X17827500Y-11176000I47500J0D01*
G01*
X17827500Y-11430000D02*
G75*
G02*
X17732500Y-11430000I-47500J0D01*
G01*
X17732500Y-11430000D02*
G75*
G02*
X17827500Y-11430000I47500J0D01*
G01*
X17827500Y-11684000D02*
G75*
G02*
X17732500Y-11684000I-47500J0D01*
G01*
X17732500Y-11684000D02*
G75*
G02*
X17827500Y-11684000I47500J0D01*
G01*
X17827500Y-11938000D02*
G75*
G02*
X17732500Y-11938000I-47500J0D01*
G01*
X17732500Y-11938000D02*
G75*
G02*
X17827500Y-11938000I47500J0D01*
G01*
X17827500Y-12192000D02*
G75*
G02*
X17732500Y-12192000I-47500J0D01*
G01*
X17732500Y-12192000D02*
G75*
G02*
X17827500Y-12192000I47500J0D01*
G01*
X17827500Y-12446000D02*
G75*
G02*
X17732500Y-12446000I-47500J0D01*
G01*
X17732500Y-12446000D02*
G75*
G02*
X17827500Y-12446000I47500J0D01*
G01*
X17827500Y-12700000D02*
G75*
G02*
X17732500Y-12700000I-47500J0D01*
G01*
X17732500Y-12700000D02*
G75*
G02*
X17827500Y-12700000I47500J0D01*
G01*
X17827500Y-12954000D02*
G75*
G02*
X17732500Y-12954000I-47500J0D01*
G01*
X17732500Y-12954000D02*
G75*
G02*
X17827500Y-12954000I47500J0D01*
G01*
X17827500Y-13208000D02*
G75*
G02*
X17732500Y-13208000I-47500J0D01*
G01*
X17732500Y-13208000D02*
G75*
G02*
X17827500Y-13208000I47500J0D01*
G01*
X17827500Y-13462000D02*
G75*
G02*
X17732500Y-13462000I-47500J0D01*
G01*
X17732500Y-13462000D02*
G75*
G02*
X17827500Y-13462000I47500J0D01*
G01*
X17827500Y-13716000D02*
G75*
G02*
X17732500Y-13716000I-47500J0D01*
G01*
X17732500Y-13716000D02*
G75*
G02*
X17827500Y-13716000I47500J0D01*
G01*
X17827500Y-13970000D02*
G75*
G02*
X17732500Y-13970000I-47500J0D01*
G01*
X17732500Y-13970000D02*
G75*
G02*
X17827500Y-13970000I47500J0D01*
G01*
X18081500Y-5588000D02*
G75*
G02*
X17986500Y-5588000I-47500J0D01*
G01*
X17986500Y-5588000D02*
G75*
G02*
X18081500Y-5588000I47500J0D01*
G01*
X18081500Y-5842000D02*
G75*
G02*
X17986500Y-5842000I-47500J0D01*
G01*
X17986500Y-5842000D02*
G75*
G02*
X18081500Y-5842000I47500J0D01*
G01*
X18081500Y-6096000D02*
G75*
G02*
X17986500Y-6096000I-47500J0D01*
G01*
X17986500Y-6096000D02*
G75*
G02*
X18081500Y-6096000I47500J0D01*
G01*
X18081500Y-6350000D02*
G75*
G02*
X17986500Y-6350000I-47500J0D01*
G01*
X17986500Y-6350000D02*
G75*
G02*
X18081500Y-6350000I47500J0D01*
G01*
X18081500Y-6604000D02*
G75*
G02*
X17986500Y-6604000I-47500J0D01*
G01*
X17986500Y-6604000D02*
G75*
G02*
X18081500Y-6604000I47500J0D01*
G01*
X18081500Y-6858000D02*
G75*
G02*
X17986500Y-6858000I-47500J0D01*
G01*
X17986500Y-6858000D02*
G75*
G02*
X18081500Y-6858000I47500J0D01*
G01*
X18081500Y-7112000D02*
G75*
G02*
X17986500Y-7112000I-47500J0D01*
G01*
X17986500Y-7112000D02*
G75*
G02*
X18081500Y-7112000I47500J0D01*
G01*
X18081500Y-7366000D02*
G75*
G02*
X17986500Y-7366000I-47500J0D01*
G01*
X17986500Y-7366000D02*
G75*
G02*
X18081500Y-7366000I47500J0D01*
G01*
X18081500Y-7620000D02*
G75*
G02*
X17986500Y-7620000I-47500J0D01*
G01*
X17986500Y-7620000D02*
G75*
G02*
X18081500Y-7620000I47500J0D01*
G01*
X18081500Y-7874000D02*
G75*
G02*
X17986500Y-7874000I-47500J0D01*
G01*
X17986500Y-7874000D02*
G75*
G02*
X18081500Y-7874000I47500J0D01*
G01*
X18081500Y-8128000D02*
G75*
G02*
X17986500Y-8128000I-47500J0D01*
G01*
X17986500Y-8128000D02*
G75*
G02*
X18081500Y-8128000I47500J0D01*
G01*
X18081500Y-8382000D02*
G75*
G02*
X17986500Y-8382000I-47500J0D01*
G01*
X17986500Y-8382000D02*
G75*
G02*
X18081500Y-8382000I47500J0D01*
G01*
X18081500Y-8636000D02*
G75*
G02*
X17986500Y-8636000I-47500J0D01*
G01*
X17986500Y-8636000D02*
G75*
G02*
X18081500Y-8636000I47500J0D01*
G01*
X18081500Y-8890000D02*
G75*
G02*
X17986500Y-8890000I-47500J0D01*
G01*
X17986500Y-8890000D02*
G75*
G02*
X18081500Y-8890000I47500J0D01*
G01*
X18081500Y-9144000D02*
G75*
G02*
X17986500Y-9144000I-47500J0D01*
G01*
X17986500Y-9144000D02*
G75*
G02*
X18081500Y-9144000I47500J0D01*
G01*
X18081500Y-9398000D02*
G75*
G02*
X17986500Y-9398000I-47500J0D01*
G01*
X17986500Y-9398000D02*
G75*
G02*
X18081500Y-9398000I47500J0D01*
G01*
X18081500Y-9652000D02*
G75*
G02*
X17986500Y-9652000I-47500J0D01*
G01*
X17986500Y-9652000D02*
G75*
G02*
X18081500Y-9652000I47500J0D01*
G01*
X18081500Y-9906000D02*
G75*
G02*
X17986500Y-9906000I-47500J0D01*
G01*
X17986500Y-9906000D02*
G75*
G02*
X18081500Y-9906000I47500J0D01*
G01*
X18081500Y-10160000D02*
G75*
G02*
X17986500Y-10160000I-47500J0D01*
G01*
X17986500Y-10160000D02*
G75*
G02*
X18081500Y-10160000I47500J0D01*
G01*
X18081500Y-10414000D02*
G75*
G02*
X17986500Y-10414000I-47500J0D01*
G01*
X17986500Y-10414000D02*
G75*
G02*
X18081500Y-10414000I47500J0D01*
G01*
X18081500Y-10668000D02*
G75*
G02*
X17986500Y-10668000I-47500J0D01*
G01*
X17986500Y-10668000D02*
G75*
G02*
X18081500Y-10668000I47500J0D01*
G01*
X18081500Y-10922000D02*
G75*
G02*
X17986500Y-10922000I-47500J0D01*
G01*
X17986500Y-10922000D02*
G75*
G02*
X18081500Y-10922000I47500J0D01*
G01*
X18081500Y-11176000D02*
G75*
G02*
X17986500Y-11176000I-47500J0D01*
G01*
X17986500Y-11176000D02*
G75*
G02*
X18081500Y-11176000I47500J0D01*
G01*
X18081500Y-11430000D02*
G75*
G02*
X17986500Y-11430000I-47500J0D01*
G01*
X17986500Y-11430000D02*
G75*
G02*
X18081500Y-11430000I47500J0D01*
G01*
X18081500Y-11684000D02*
G75*
G02*
X17986500Y-11684000I-47500J0D01*
G01*
X17986500Y-11684000D02*
G75*
G02*
X18081500Y-11684000I47500J0D01*
G01*
X18081500Y-11938000D02*
G75*
G02*
X17986500Y-11938000I-47500J0D01*
G01*
X17986500Y-11938000D02*
G75*
G02*
X18081500Y-11938000I47500J0D01*
G01*
X18081500Y-12192000D02*
G75*
G02*
X17986500Y-12192000I-47500J0D01*
G01*
X17986500Y-12192000D02*
G75*
G02*
X18081500Y-12192000I47500J0D01*
G01*
X18081500Y-12446000D02*
G75*
G02*
X17986500Y-12446000I-47500J0D01*
G01*
X17986500Y-12446000D02*
G75*
G02*
X18081500Y-12446000I47500J0D01*
G01*
X18081500Y-12700000D02*
G75*
G02*
X17986500Y-12700000I-47500J0D01*
G01*
X17986500Y-12700000D02*
G75*
G02*
X18081500Y-12700000I47500J0D01*
G01*
X18081500Y-12954000D02*
G75*
G02*
X17986500Y-12954000I-47500J0D01*
G01*
X17986500Y-12954000D02*
G75*
G02*
X18081500Y-12954000I47500J0D01*
G01*
X18081500Y-13208000D02*
G75*
G02*
X17986500Y-13208000I-47500J0D01*
G01*
X17986500Y-13208000D02*
G75*
G02*
X18081500Y-13208000I47500J0D01*
G01*
X18081500Y-13462000D02*
G75*
G02*
X17986500Y-13462000I-47500J0D01*
G01*
X17986500Y-13462000D02*
G75*
G02*
X18081500Y-13462000I47500J0D01*
G01*
X18081500Y-13716000D02*
G75*
G02*
X17986500Y-13716000I-47500J0D01*
G01*
X17986500Y-13716000D02*
G75*
G02*
X18081500Y-13716000I47500J0D01*
G01*
X18081500Y-13970000D02*
G75*
G02*
X17986500Y-13970000I-47500J0D01*
G01*
X17986500Y-13970000D02*
G75*
G02*
X18081500Y-13970000I47500J0D01*
G01*
X18335500Y-5588000D02*
G75*
G02*
X18240500Y-5588000I-47500J0D01*
G01*
X18240500Y-5588000D02*
G75*
G02*
X18335500Y-5588000I47500J0D01*
G01*
X18335500Y-5842000D02*
G75*
G02*
X18240500Y-5842000I-47500J0D01*
G01*
X18240500Y-5842000D02*
G75*
G02*
X18335500Y-5842000I47500J0D01*
G01*
X18335500Y-6096000D02*
G75*
G02*
X18240500Y-6096000I-47500J0D01*
G01*
X18240500Y-6096000D02*
G75*
G02*
X18335500Y-6096000I47500J0D01*
G01*
X18335500Y-6350000D02*
G75*
G02*
X18240500Y-6350000I-47500J0D01*
G01*
X18240500Y-6350000D02*
G75*
G02*
X18335500Y-6350000I47500J0D01*
G01*
X18335500Y-6604000D02*
G75*
G02*
X18240500Y-6604000I-47500J0D01*
G01*
X18240500Y-6604000D02*
G75*
G02*
X18335500Y-6604000I47500J0D01*
G01*
X18335500Y-6858000D02*
G75*
G02*
X18240500Y-6858000I-47500J0D01*
G01*
X18240500Y-6858000D02*
G75*
G02*
X18335500Y-6858000I47500J0D01*
G01*
X18335500Y-7112000D02*
G75*
G02*
X18240500Y-7112000I-47500J0D01*
G01*
X18240500Y-7112000D02*
G75*
G02*
X18335500Y-7112000I47500J0D01*
G01*
X18335500Y-7366000D02*
G75*
G02*
X18240500Y-7366000I-47500J0D01*
G01*
X18240500Y-7366000D02*
G75*
G02*
X18335500Y-7366000I47500J0D01*
G01*
X18335500Y-7620000D02*
G75*
G02*
X18240500Y-7620000I-47500J0D01*
G01*
X18240500Y-7620000D02*
G75*
G02*
X18335500Y-7620000I47500J0D01*
G01*
X18335500Y-7874000D02*
G75*
G02*
X18240500Y-7874000I-47500J0D01*
G01*
X18240500Y-7874000D02*
G75*
G02*
X18335500Y-7874000I47500J0D01*
G01*
X18335500Y-8128000D02*
G75*
G02*
X18240500Y-8128000I-47500J0D01*
G01*
X18240500Y-8128000D02*
G75*
G02*
X18335500Y-8128000I47500J0D01*
G01*
X18335500Y-8382000D02*
G75*
G02*
X18240500Y-8382000I-47500J0D01*
G01*
X18240500Y-8382000D02*
G75*
G02*
X18335500Y-8382000I47500J0D01*
G01*
X18335500Y-8636000D02*
G75*
G02*
X18240500Y-8636000I-47500J0D01*
G01*
X18240500Y-8636000D02*
G75*
G02*
X18335500Y-8636000I47500J0D01*
G01*
X18335500Y-8890000D02*
G75*
G02*
X18240500Y-8890000I-47500J0D01*
G01*
X18240500Y-8890000D02*
G75*
G02*
X18335500Y-8890000I47500J0D01*
G01*
X18335500Y-9144000D02*
G75*
G02*
X18240500Y-9144000I-47500J0D01*
G01*
X18240500Y-9144000D02*
G75*
G02*
X18335500Y-9144000I47500J0D01*
G01*
X18335500Y-9398000D02*
G75*
G02*
X18240500Y-9398000I-47500J0D01*
G01*
X18240500Y-9398000D02*
G75*
G02*
X18335500Y-9398000I47500J0D01*
G01*
X18335500Y-9652000D02*
G75*
G02*
X18240500Y-9652000I-47500J0D01*
G01*
X18240500Y-9652000D02*
G75*
G02*
X18335500Y-9652000I47500J0D01*
G01*
X18335500Y-9906000D02*
G75*
G02*
X18240500Y-9906000I-47500J0D01*
G01*
X18240500Y-9906000D02*
G75*
G02*
X18335500Y-9906000I47500J0D01*
G01*
X18335500Y-10160000D02*
G75*
G02*
X18240500Y-10160000I-47500J0D01*
G01*
X18240500Y-10160000D02*
G75*
G02*
X18335500Y-10160000I47500J0D01*
G01*
X18335500Y-10414000D02*
G75*
G02*
X18240500Y-10414000I-47500J0D01*
G01*
X18240500Y-10414000D02*
G75*
G02*
X18335500Y-10414000I47500J0D01*
G01*
X18335500Y-10668000D02*
G75*
G02*
X18240500Y-10668000I-47500J0D01*
G01*
X18240500Y-10668000D02*
G75*
G02*
X18335500Y-10668000I47500J0D01*
G01*
X18335500Y-10922000D02*
G75*
G02*
X18240500Y-10922000I-47500J0D01*
G01*
X18240500Y-10922000D02*
G75*
G02*
X18335500Y-10922000I47500J0D01*
G01*
X18335500Y-11176000D02*
G75*
G02*
X18240500Y-11176000I-47500J0D01*
G01*
X18240500Y-11176000D02*
G75*
G02*
X18335500Y-11176000I47500J0D01*
G01*
X18335500Y-11430000D02*
G75*
G02*
X18240500Y-11430000I-47500J0D01*
G01*
X18240500Y-11430000D02*
G75*
G02*
X18335500Y-11430000I47500J0D01*
G01*
X18335500Y-11684000D02*
G75*
G02*
X18240500Y-11684000I-47500J0D01*
G01*
X18240500Y-11684000D02*
G75*
G02*
X18335500Y-11684000I47500J0D01*
G01*
X18335500Y-11938000D02*
G75*
G02*
X18240500Y-11938000I-47500J0D01*
G01*
X18240500Y-11938000D02*
G75*
G02*
X18335500Y-11938000I47500J0D01*
G01*
X18335500Y-12192000D02*
G75*
G02*
X18240500Y-12192000I-47500J0D01*
G01*
X18240500Y-12192000D02*
G75*
G02*
X18335500Y-12192000I47500J0D01*
G01*
X18335500Y-12446000D02*
G75*
G02*
X18240500Y-12446000I-47500J0D01*
G01*
X18240500Y-12446000D02*
G75*
G02*
X18335500Y-12446000I47500J0D01*
G01*
X18335500Y-12700000D02*
G75*
G02*
X18240500Y-12700000I-47500J0D01*
G01*
X18240500Y-12700000D02*
G75*
G02*
X18335500Y-12700000I47500J0D01*
G01*
X18335500Y-12954000D02*
G75*
G02*
X18240500Y-12954000I-47500J0D01*
G01*
X18240500Y-12954000D02*
G75*
G02*
X18335500Y-12954000I47500J0D01*
G01*
X18335500Y-13208000D02*
G75*
G02*
X18240500Y-13208000I-47500J0D01*
G01*
X18240500Y-13208000D02*
G75*
G02*
X18335500Y-13208000I47500J0D01*
G01*
X18335500Y-13462000D02*
G75*
G02*
X18240500Y-13462000I-47500J0D01*
G01*
X18240500Y-13462000D02*
G75*
G02*
X18335500Y-13462000I47500J0D01*
G01*
X18335500Y-13716000D02*
G75*
G02*
X18240500Y-13716000I-47500J0D01*
G01*
X18240500Y-13716000D02*
G75*
G02*
X18335500Y-13716000I47500J0D01*
G01*
X18335500Y-13970000D02*
G75*
G02*
X18240500Y-13970000I-47500J0D01*
G01*
X18240500Y-13970000D02*
G75*
G02*
X18335500Y-13970000I47500J0D01*
G01*
X18589500Y-5588000D02*
G75*
G02*
X18494500Y-5588000I-47500J0D01*
G01*
X18494500Y-5588000D02*
G75*
G02*
X18589500Y-5588000I47500J0D01*
G01*
X18589500Y-5842000D02*
G75*
G02*
X18494500Y-5842000I-47500J0D01*
G01*
X18494500Y-5842000D02*
G75*
G02*
X18589500Y-5842000I47500J0D01*
G01*
X18589500Y-6096000D02*
G75*
G02*
X18494500Y-6096000I-47500J0D01*
G01*
X18494500Y-6096000D02*
G75*
G02*
X18589500Y-6096000I47500J0D01*
G01*
X18589500Y-6350000D02*
G75*
G02*
X18494500Y-6350000I-47500J0D01*
G01*
X18494500Y-6350000D02*
G75*
G02*
X18589500Y-6350000I47500J0D01*
G01*
X18589500Y-6604000D02*
G75*
G02*
X18494500Y-6604000I-47500J0D01*
G01*
X18494500Y-6604000D02*
G75*
G02*
X18589500Y-6604000I47500J0D01*
G01*
X18589500Y-6858000D02*
G75*
G02*
X18494500Y-6858000I-47500J0D01*
G01*
X18494500Y-6858000D02*
G75*
G02*
X18589500Y-6858000I47500J0D01*
G01*
X18589500Y-7112000D02*
G75*
G02*
X18494500Y-7112000I-47500J0D01*
G01*
X18494500Y-7112000D02*
G75*
G02*
X18589500Y-7112000I47500J0D01*
G01*
X18589500Y-7366000D02*
G75*
G02*
X18494500Y-7366000I-47500J0D01*
G01*
X18494500Y-7366000D02*
G75*
G02*
X18589500Y-7366000I47500J0D01*
G01*
X18589500Y-7620000D02*
G75*
G02*
X18494500Y-7620000I-47500J0D01*
G01*
X18494500Y-7620000D02*
G75*
G02*
X18589500Y-7620000I47500J0D01*
G01*
X18589500Y-7874000D02*
G75*
G02*
X18494500Y-7874000I-47500J0D01*
G01*
X18494500Y-7874000D02*
G75*
G02*
X18589500Y-7874000I47500J0D01*
G01*
X18589500Y-8128000D02*
G75*
G02*
X18494500Y-8128000I-47500J0D01*
G01*
X18494500Y-8128000D02*
G75*
G02*
X18589500Y-8128000I47500J0D01*
G01*
X18589500Y-8382000D02*
G75*
G02*
X18494500Y-8382000I-47500J0D01*
G01*
X18494500Y-8382000D02*
G75*
G02*
X18589500Y-8382000I47500J0D01*
G01*
X18589500Y-8636000D02*
G75*
G02*
X18494500Y-8636000I-47500J0D01*
G01*
X18494500Y-8636000D02*
G75*
G02*
X18589500Y-8636000I47500J0D01*
G01*
X18589500Y-8890000D02*
G75*
G02*
X18494500Y-8890000I-47500J0D01*
G01*
X18494500Y-8890000D02*
G75*
G02*
X18589500Y-8890000I47500J0D01*
G01*
X18589500Y-9144000D02*
G75*
G02*
X18494500Y-9144000I-47500J0D01*
G01*
X18494500Y-9144000D02*
G75*
G02*
X18589500Y-9144000I47500J0D01*
G01*
X18589500Y-9398000D02*
G75*
G02*
X18494500Y-9398000I-47500J0D01*
G01*
X18494500Y-9398000D02*
G75*
G02*
X18589500Y-9398000I47500J0D01*
G01*
X18589500Y-9652000D02*
G75*
G02*
X18494500Y-9652000I-47500J0D01*
G01*
X18494500Y-9652000D02*
G75*
G02*
X18589500Y-9652000I47500J0D01*
G01*
X18589500Y-9906000D02*
G75*
G02*
X18494500Y-9906000I-47500J0D01*
G01*
X18494500Y-9906000D02*
G75*
G02*
X18589500Y-9906000I47500J0D01*
G01*
X18589500Y-10160000D02*
G75*
G02*
X18494500Y-10160000I-47500J0D01*
G01*
X18494500Y-10160000D02*
G75*
G02*
X18589500Y-10160000I47500J0D01*
G01*
X18589500Y-10414000D02*
G75*
G02*
X18494500Y-10414000I-47500J0D01*
G01*
X18494500Y-10414000D02*
G75*
G02*
X18589500Y-10414000I47500J0D01*
G01*
X18589500Y-10668000D02*
G75*
G02*
X18494500Y-10668000I-47500J0D01*
G01*
X18494500Y-10668000D02*
G75*
G02*
X18589500Y-10668000I47500J0D01*
G01*
X18589500Y-10922000D02*
G75*
G02*
X18494500Y-10922000I-47500J0D01*
G01*
X18494500Y-10922000D02*
G75*
G02*
X18589500Y-10922000I47500J0D01*
G01*
X18589500Y-11176000D02*
G75*
G02*
X18494500Y-11176000I-47500J0D01*
G01*
X18494500Y-11176000D02*
G75*
G02*
X18589500Y-11176000I47500J0D01*
G01*
X18589500Y-11430000D02*
G75*
G02*
X18494500Y-11430000I-47500J0D01*
G01*
X18494500Y-11430000D02*
G75*
G02*
X18589500Y-11430000I47500J0D01*
G01*
X18589500Y-11684000D02*
G75*
G02*
X18494500Y-11684000I-47500J0D01*
G01*
X18494500Y-11684000D02*
G75*
G02*
X18589500Y-11684000I47500J0D01*
G01*
X18589500Y-11938000D02*
G75*
G02*
X18494500Y-11938000I-47500J0D01*
G01*
X18494500Y-11938000D02*
G75*
G02*
X18589500Y-11938000I47500J0D01*
G01*
X18589500Y-12192000D02*
G75*
G02*
X18494500Y-12192000I-47500J0D01*
G01*
X18494500Y-12192000D02*
G75*
G02*
X18589500Y-12192000I47500J0D01*
G01*
X18589500Y-12446000D02*
G75*
G02*
X18494500Y-12446000I-47500J0D01*
G01*
X18494500Y-12446000D02*
G75*
G02*
X18589500Y-12446000I47500J0D01*
G01*
X18589500Y-12700000D02*
G75*
G02*
X18494500Y-12700000I-47500J0D01*
G01*
X18494500Y-12700000D02*
G75*
G02*
X18589500Y-12700000I47500J0D01*
G01*
X18589500Y-12954000D02*
G75*
G02*
X18494500Y-12954000I-47500J0D01*
G01*
X18494500Y-12954000D02*
G75*
G02*
X18589500Y-12954000I47500J0D01*
G01*
X18589500Y-13208000D02*
G75*
G02*
X18494500Y-13208000I-47500J0D01*
G01*
X18494500Y-13208000D02*
G75*
G02*
X18589500Y-13208000I47500J0D01*
G01*
X18589500Y-13462000D02*
G75*
G02*
X18494500Y-13462000I-47500J0D01*
G01*
X18494500Y-13462000D02*
G75*
G02*
X18589500Y-13462000I47500J0D01*
G01*
X18589500Y-13716000D02*
G75*
G02*
X18494500Y-13716000I-47500J0D01*
G01*
X18494500Y-13716000D02*
G75*
G02*
X18589500Y-13716000I47500J0D01*
G01*
X18589500Y-13970000D02*
G75*
G02*
X18494500Y-13970000I-47500J0D01*
G01*
X18494500Y-13970000D02*
G75*
G02*
X18589500Y-13970000I47500J0D01*
G01*
X18843500Y-6350000D02*
G75*
G02*
X18748500Y-6350000I-47500J0D01*
G01*
X18748500Y-6350000D02*
G75*
G02*
X18843500Y-6350000I47500J0D01*
G01*
X18843500Y-6604000D02*
G75*
G02*
X18748500Y-6604000I-47500J0D01*
G01*
X18748500Y-6604000D02*
G75*
G02*
X18843500Y-6604000I47500J0D01*
G01*
X18843500Y-6858000D02*
G75*
G02*
X18748500Y-6858000I-47500J0D01*
G01*
X18748500Y-6858000D02*
G75*
G02*
X18843500Y-6858000I47500J0D01*
G01*
X18843500Y-7112000D02*
G75*
G02*
X18748500Y-7112000I-47500J0D01*
G01*
X18748500Y-7112000D02*
G75*
G02*
X18843500Y-7112000I47500J0D01*
G01*
X18843500Y-7366000D02*
G75*
G02*
X18748500Y-7366000I-47500J0D01*
G01*
X18748500Y-7366000D02*
G75*
G02*
X18843500Y-7366000I47500J0D01*
G01*
X18843500Y-7620000D02*
G75*
G02*
X18748500Y-7620000I-47500J0D01*
G01*
X18748500Y-7620000D02*
G75*
G02*
X18843500Y-7620000I47500J0D01*
G01*
X18843500Y-7874000D02*
G75*
G02*
X18748500Y-7874000I-47500J0D01*
G01*
X18748500Y-7874000D02*
G75*
G02*
X18843500Y-7874000I47500J0D01*
G01*
X18843500Y-8128000D02*
G75*
G02*
X18748500Y-8128000I-47500J0D01*
G01*
X18748500Y-8128000D02*
G75*
G02*
X18843500Y-8128000I47500J0D01*
G01*
X18843500Y-8382000D02*
G75*
G02*
X18748500Y-8382000I-47500J0D01*
G01*
X18748500Y-8382000D02*
G75*
G02*
X18843500Y-8382000I47500J0D01*
G01*
X18843500Y-8636000D02*
G75*
G02*
X18748500Y-8636000I-47500J0D01*
G01*
X18748500Y-8636000D02*
G75*
G02*
X18843500Y-8636000I47500J0D01*
G01*
X18843500Y-8890000D02*
G75*
G02*
X18748500Y-8890000I-47500J0D01*
G01*
X18748500Y-8890000D02*
G75*
G02*
X18843500Y-8890000I47500J0D01*
G01*
X18843500Y-9144000D02*
G75*
G02*
X18748500Y-9144000I-47500J0D01*
G01*
X18748500Y-9144000D02*
G75*
G02*
X18843500Y-9144000I47500J0D01*
G01*
X18843500Y-9398000D02*
G75*
G02*
X18748500Y-9398000I-47500J0D01*
G01*
X18748500Y-9398000D02*
G75*
G02*
X18843500Y-9398000I47500J0D01*
G01*
X18843500Y-9652000D02*
G75*
G02*
X18748500Y-9652000I-47500J0D01*
G01*
X18748500Y-9652000D02*
G75*
G02*
X18843500Y-9652000I47500J0D01*
G01*
X18843500Y-9906000D02*
G75*
G02*
X18748500Y-9906000I-47500J0D01*
G01*
X18748500Y-9906000D02*
G75*
G02*
X18843500Y-9906000I47500J0D01*
G01*
X18843500Y-10160000D02*
G75*
G02*
X18748500Y-10160000I-47500J0D01*
G01*
X18748500Y-10160000D02*
G75*
G02*
X18843500Y-10160000I47500J0D01*
G01*
X18843500Y-10414000D02*
G75*
G02*
X18748500Y-10414000I-47500J0D01*
G01*
X18748500Y-10414000D02*
G75*
G02*
X18843500Y-10414000I47500J0D01*
G01*
X18843500Y-10668000D02*
G75*
G02*
X18748500Y-10668000I-47500J0D01*
G01*
X18748500Y-10668000D02*
G75*
G02*
X18843500Y-10668000I47500J0D01*
G01*
X18843500Y-10922000D02*
G75*
G02*
X18748500Y-10922000I-47500J0D01*
G01*
X18748500Y-10922000D02*
G75*
G02*
X18843500Y-10922000I47500J0D01*
G01*
X18843500Y-11176000D02*
G75*
G02*
X18748500Y-11176000I-47500J0D01*
G01*
X18748500Y-11176000D02*
G75*
G02*
X18843500Y-11176000I47500J0D01*
G01*
X18843500Y-11430000D02*
G75*
G02*
X18748500Y-11430000I-47500J0D01*
G01*
X18748500Y-11430000D02*
G75*
G02*
X18843500Y-11430000I47500J0D01*
G01*
X18843500Y-11684000D02*
G75*
G02*
X18748500Y-11684000I-47500J0D01*
G01*
X18748500Y-11684000D02*
G75*
G02*
X18843500Y-11684000I47500J0D01*
G01*
X18843500Y-11938000D02*
G75*
G02*
X18748500Y-11938000I-47500J0D01*
G01*
X18748500Y-11938000D02*
G75*
G02*
X18843500Y-11938000I47500J0D01*
G01*
X18843500Y-12192000D02*
G75*
G02*
X18748500Y-12192000I-47500J0D01*
G01*
X18748500Y-12192000D02*
G75*
G02*
X18843500Y-12192000I47500J0D01*
G01*
X18843500Y-12446000D02*
G75*
G02*
X18748500Y-12446000I-47500J0D01*
G01*
X18748500Y-12446000D02*
G75*
G02*
X18843500Y-12446000I47500J0D01*
G01*
X18843500Y-12700000D02*
G75*
G02*
X18748500Y-12700000I-47500J0D01*
G01*
X18748500Y-12700000D02*
G75*
G02*
X18843500Y-12700000I47500J0D01*
G01*
X18843500Y-12954000D02*
G75*
G02*
X18748500Y-12954000I-47500J0D01*
G01*
X18748500Y-12954000D02*
G75*
G02*
X18843500Y-12954000I47500J0D01*
G01*
X18843500Y-13208000D02*
G75*
G02*
X18748500Y-13208000I-47500J0D01*
G01*
X18748500Y-13208000D02*
G75*
G02*
X18843500Y-13208000I47500J0D01*
G01*
X19097500Y-6350000D02*
G75*
G02*
X19002500Y-6350000I-47500J0D01*
G01*
X19002500Y-6350000D02*
G75*
G02*
X19097500Y-6350000I47500J0D01*
G01*
X19097500Y-6604000D02*
G75*
G02*
X19002500Y-6604000I-47500J0D01*
G01*
X19002500Y-6604000D02*
G75*
G02*
X19097500Y-6604000I47500J0D01*
G01*
X19097500Y-6858000D02*
G75*
G02*
X19002500Y-6858000I-47500J0D01*
G01*
X19002500Y-6858000D02*
G75*
G02*
X19097500Y-6858000I47500J0D01*
G01*
X19097500Y-7112000D02*
G75*
G02*
X19002500Y-7112000I-47500J0D01*
G01*
X19002500Y-7112000D02*
G75*
G02*
X19097500Y-7112000I47500J0D01*
G01*
X19097500Y-7366000D02*
G75*
G02*
X19002500Y-7366000I-47500J0D01*
G01*
X19002500Y-7366000D02*
G75*
G02*
X19097500Y-7366000I47500J0D01*
G01*
X19097500Y-7620000D02*
G75*
G02*
X19002500Y-7620000I-47500J0D01*
G01*
X19002500Y-7620000D02*
G75*
G02*
X19097500Y-7620000I47500J0D01*
G01*
X19097500Y-7874000D02*
G75*
G02*
X19002500Y-7874000I-47500J0D01*
G01*
X19002500Y-7874000D02*
G75*
G02*
X19097500Y-7874000I47500J0D01*
G01*
X19097500Y-8128000D02*
G75*
G02*
X19002500Y-8128000I-47500J0D01*
G01*
X19002500Y-8128000D02*
G75*
G02*
X19097500Y-8128000I47500J0D01*
G01*
X19097500Y-8382000D02*
G75*
G02*
X19002500Y-8382000I-47500J0D01*
G01*
X19002500Y-8382000D02*
G75*
G02*
X19097500Y-8382000I47500J0D01*
G01*
X19097500Y-8636000D02*
G75*
G02*
X19002500Y-8636000I-47500J0D01*
G01*
X19002500Y-8636000D02*
G75*
G02*
X19097500Y-8636000I47500J0D01*
G01*
X19097500Y-8890000D02*
G75*
G02*
X19002500Y-8890000I-47500J0D01*
G01*
X19002500Y-8890000D02*
G75*
G02*
X19097500Y-8890000I47500J0D01*
G01*
X19097500Y-9144000D02*
G75*
G02*
X19002500Y-9144000I-47500J0D01*
G01*
X19002500Y-9144000D02*
G75*
G02*
X19097500Y-9144000I47500J0D01*
G01*
X19097500Y-9398000D02*
G75*
G02*
X19002500Y-9398000I-47500J0D01*
G01*
X19002500Y-9398000D02*
G75*
G02*
X19097500Y-9398000I47500J0D01*
G01*
X19097500Y-9652000D02*
G75*
G02*
X19002500Y-9652000I-47500J0D01*
G01*
X19002500Y-9652000D02*
G75*
G02*
X19097500Y-9652000I47500J0D01*
G01*
X19097500Y-9906000D02*
G75*
G02*
X19002500Y-9906000I-47500J0D01*
G01*
X19002500Y-9906000D02*
G75*
G02*
X19097500Y-9906000I47500J0D01*
G01*
X19097500Y-10160000D02*
G75*
G02*
X19002500Y-10160000I-47500J0D01*
G01*
X19002500Y-10160000D02*
G75*
G02*
X19097500Y-10160000I47500J0D01*
G01*
X19097500Y-10414000D02*
G75*
G02*
X19002500Y-10414000I-47500J0D01*
G01*
X19002500Y-10414000D02*
G75*
G02*
X19097500Y-10414000I47500J0D01*
G01*
X19097500Y-10668000D02*
G75*
G02*
X19002500Y-10668000I-47500J0D01*
G01*
X19002500Y-10668000D02*
G75*
G02*
X19097500Y-10668000I47500J0D01*
G01*
X19097500Y-10922000D02*
G75*
G02*
X19002500Y-10922000I-47500J0D01*
G01*
X19002500Y-10922000D02*
G75*
G02*
X19097500Y-10922000I47500J0D01*
G01*
X19097500Y-11176000D02*
G75*
G02*
X19002500Y-11176000I-47500J0D01*
G01*
X19002500Y-11176000D02*
G75*
G02*
X19097500Y-11176000I47500J0D01*
G01*
X19097500Y-11430000D02*
G75*
G02*
X19002500Y-11430000I-47500J0D01*
G01*
X19002500Y-11430000D02*
G75*
G02*
X19097500Y-11430000I47500J0D01*
G01*
X19097500Y-11684000D02*
G75*
G02*
X19002500Y-11684000I-47500J0D01*
G01*
X19002500Y-11684000D02*
G75*
G02*
X19097500Y-11684000I47500J0D01*
G01*
X19097500Y-11938000D02*
G75*
G02*
X19002500Y-11938000I-47500J0D01*
G01*
X19002500Y-11938000D02*
G75*
G02*
X19097500Y-11938000I47500J0D01*
G01*
X19097500Y-12192000D02*
G75*
G02*
X19002500Y-12192000I-47500J0D01*
G01*
X19002500Y-12192000D02*
G75*
G02*
X19097500Y-12192000I47500J0D01*
G01*
X19097500Y-12446000D02*
G75*
G02*
X19002500Y-12446000I-47500J0D01*
G01*
X19002500Y-12446000D02*
G75*
G02*
X19097500Y-12446000I47500J0D01*
G01*
X19097500Y-12700000D02*
G75*
G02*
X19002500Y-12700000I-47500J0D01*
G01*
X19002500Y-12700000D02*
G75*
G02*
X19097500Y-12700000I47500J0D01*
G01*
X19097500Y-12954000D02*
G75*
G02*
X19002500Y-12954000I-47500J0D01*
G01*
X19002500Y-12954000D02*
G75*
G02*
X19097500Y-12954000I47500J0D01*
G01*
X19097500Y-13208000D02*
G75*
G02*
X19002500Y-13208000I-47500J0D01*
G01*
X19002500Y-13208000D02*
G75*
G02*
X19097500Y-13208000I47500J0D01*
G01*
X19351500Y-6350000D02*
G75*
G02*
X19256500Y-6350000I-47500J0D01*
G01*
X19256500Y-6350000D02*
G75*
G02*
X19351500Y-6350000I47500J0D01*
G01*
X19351500Y-6604000D02*
G75*
G02*
X19256500Y-6604000I-47500J0D01*
G01*
X19256500Y-6604000D02*
G75*
G02*
X19351500Y-6604000I47500J0D01*
G01*
X19351500Y-6858000D02*
G75*
G02*
X19256500Y-6858000I-47500J0D01*
G01*
X19256500Y-6858000D02*
G75*
G02*
X19351500Y-6858000I47500J0D01*
G01*
X19351500Y-7112000D02*
G75*
G02*
X19256500Y-7112000I-47500J0D01*
G01*
X19256500Y-7112000D02*
G75*
G02*
X19351500Y-7112000I47500J0D01*
G01*
X19351500Y-7366000D02*
G75*
G02*
X19256500Y-7366000I-47500J0D01*
G01*
X19256500Y-7366000D02*
G75*
G02*
X19351500Y-7366000I47500J0D01*
G01*
X19351500Y-7620000D02*
G75*
G02*
X19256500Y-7620000I-47500J0D01*
G01*
X19256500Y-7620000D02*
G75*
G02*
X19351500Y-7620000I47500J0D01*
G01*
X19351500Y-7874000D02*
G75*
G02*
X19256500Y-7874000I-47500J0D01*
G01*
X19256500Y-7874000D02*
G75*
G02*
X19351500Y-7874000I47500J0D01*
G01*
X19351500Y-8128000D02*
G75*
G02*
X19256500Y-8128000I-47500J0D01*
G01*
X19256500Y-8128000D02*
G75*
G02*
X19351500Y-8128000I47500J0D01*
G01*
X19351500Y-8382000D02*
G75*
G02*
X19256500Y-8382000I-47500J0D01*
G01*
X19256500Y-8382000D02*
G75*
G02*
X19351500Y-8382000I47500J0D01*
G01*
X19351500Y-8636000D02*
G75*
G02*
X19256500Y-8636000I-47500J0D01*
G01*
X19256500Y-8636000D02*
G75*
G02*
X19351500Y-8636000I47500J0D01*
G01*
X19351500Y-8890000D02*
G75*
G02*
X19256500Y-8890000I-47500J0D01*
G01*
X19256500Y-8890000D02*
G75*
G02*
X19351500Y-8890000I47500J0D01*
G01*
X19351500Y-9144000D02*
G75*
G02*
X19256500Y-9144000I-47500J0D01*
G01*
X19256500Y-9144000D02*
G75*
G02*
X19351500Y-9144000I47500J0D01*
G01*
X19351500Y-9398000D02*
G75*
G02*
X19256500Y-9398000I-47500J0D01*
G01*
X19256500Y-9398000D02*
G75*
G02*
X19351500Y-9398000I47500J0D01*
G01*
X19351500Y-9652000D02*
G75*
G02*
X19256500Y-9652000I-47500J0D01*
G01*
X19256500Y-9652000D02*
G75*
G02*
X19351500Y-9652000I47500J0D01*
G01*
X19351500Y-9906000D02*
G75*
G02*
X19256500Y-9906000I-47500J0D01*
G01*
X19256500Y-9906000D02*
G75*
G02*
X19351500Y-9906000I47500J0D01*
G01*
X19351500Y-10160000D02*
G75*
G02*
X19256500Y-10160000I-47500J0D01*
G01*
X19256500Y-10160000D02*
G75*
G02*
X19351500Y-10160000I47500J0D01*
G01*
X19351500Y-10414000D02*
G75*
G02*
X19256500Y-10414000I-47500J0D01*
G01*
X19256500Y-10414000D02*
G75*
G02*
X19351500Y-10414000I47500J0D01*
G01*
X19351500Y-10668000D02*
G75*
G02*
X19256500Y-10668000I-47500J0D01*
G01*
X19256500Y-10668000D02*
G75*
G02*
X19351500Y-10668000I47500J0D01*
G01*
X19351500Y-10922000D02*
G75*
G02*
X19256500Y-10922000I-47500J0D01*
G01*
X19256500Y-10922000D02*
G75*
G02*
X19351500Y-10922000I47500J0D01*
G01*
X19351500Y-11176000D02*
G75*
G02*
X19256500Y-11176000I-47500J0D01*
G01*
X19256500Y-11176000D02*
G75*
G02*
X19351500Y-11176000I47500J0D01*
G01*
X19351500Y-11430000D02*
G75*
G02*
X19256500Y-11430000I-47500J0D01*
G01*
X19256500Y-11430000D02*
G75*
G02*
X19351500Y-11430000I47500J0D01*
G01*
X19351500Y-11684000D02*
G75*
G02*
X19256500Y-11684000I-47500J0D01*
G01*
X19256500Y-11684000D02*
G75*
G02*
X19351500Y-11684000I47500J0D01*
G01*
X19351500Y-11938000D02*
G75*
G02*
X19256500Y-11938000I-47500J0D01*
G01*
X19256500Y-11938000D02*
G75*
G02*
X19351500Y-11938000I47500J0D01*
G01*
X19351500Y-12192000D02*
G75*
G02*
X19256500Y-12192000I-47500J0D01*
G01*
X19256500Y-12192000D02*
G75*
G02*
X19351500Y-12192000I47500J0D01*
G01*
X19351500Y-12446000D02*
G75*
G02*
X19256500Y-12446000I-47500J0D01*
G01*
X19256500Y-12446000D02*
G75*
G02*
X19351500Y-12446000I47500J0D01*
G01*
X19351500Y-12700000D02*
G75*
G02*
X19256500Y-12700000I-47500J0D01*
G01*
X19256500Y-12700000D02*
G75*
G02*
X19351500Y-12700000I47500J0D01*
G01*
X19351500Y-12954000D02*
G75*
G02*
X19256500Y-12954000I-47500J0D01*
G01*
X19256500Y-12954000D02*
G75*
G02*
X19351500Y-12954000I47500J0D01*
G01*
X19351500Y-13208000D02*
G75*
G02*
X19256500Y-13208000I-47500J0D01*
G01*
X19256500Y-13208000D02*
G75*
G02*
X19351500Y-13208000I47500J0D01*
G01*
D11*
X11658277Y-14613984D02*
X11658277Y-14413984D01*
X11658277Y-14413984D02*
X11705896Y-14413984D01*
X11705896Y-14413984D02*
X11734467Y-14423508D01*
X11734467Y-14423508D02*
X11753515Y-14442555D01*
X11753515Y-14442555D02*
X11763039Y-14461603D01*
X11763039Y-14461603D02*
X11772562Y-14499698D01*
X11772562Y-14499698D02*
X11772562Y-14528269D01*
X11772562Y-14528269D02*
X11763039Y-14566365D01*
X11763039Y-14566365D02*
X11753515Y-14585412D01*
X11753515Y-14585412D02*
X11734467Y-14604460D01*
X11734467Y-14604460D02*
X11705896Y-14613984D01*
X11705896Y-14613984D02*
X11658277Y-14613984D01*
X11858277Y-14613984D02*
X11858277Y-14480650D01*
X11858277Y-14518746D02*
X11867801Y-14499698D01*
X11867801Y-14499698D02*
X11877324Y-14490174D01*
X11877324Y-14490174D02*
X11896372Y-14480650D01*
X11896372Y-14480650D02*
X11915420Y-14480650D01*
X11982086Y-14613984D02*
X11982086Y-14480650D01*
X11982086Y-14413984D02*
X11972562Y-14423508D01*
X11972562Y-14423508D02*
X11982086Y-14433031D01*
X11982086Y-14433031D02*
X11991610Y-14423508D01*
X11991610Y-14423508D02*
X11982086Y-14413984D01*
X11982086Y-14413984D02*
X11982086Y-14433031D01*
X12105896Y-14613984D02*
X12086848Y-14604460D01*
X12086848Y-14604460D02*
X12077324Y-14585412D01*
X12077324Y-14585412D02*
X12077324Y-14413984D01*
X12210658Y-14613984D02*
X12191610Y-14604460D01*
X12191610Y-14604460D02*
X12182086Y-14585412D01*
X12182086Y-14585412D02*
X12182086Y-14413984D01*
X12439229Y-14613984D02*
X12439229Y-14413984D01*
X12439229Y-14413984D02*
X12505896Y-14556841D01*
X12505896Y-14556841D02*
X12572562Y-14413984D01*
X12572562Y-14413984D02*
X12572562Y-14613984D01*
X12753515Y-14613984D02*
X12753515Y-14509222D01*
X12753515Y-14509222D02*
X12743991Y-14490174D01*
X12743991Y-14490174D02*
X12724943Y-14480650D01*
X12724943Y-14480650D02*
X12686848Y-14480650D01*
X12686848Y-14480650D02*
X12667801Y-14490174D01*
X12753515Y-14604460D02*
X12734467Y-14613984D01*
X12734467Y-14613984D02*
X12686848Y-14613984D01*
X12686848Y-14613984D02*
X12667801Y-14604460D01*
X12667801Y-14604460D02*
X12658277Y-14585412D01*
X12658277Y-14585412D02*
X12658277Y-14566365D01*
X12658277Y-14566365D02*
X12667801Y-14547317D01*
X12667801Y-14547317D02*
X12686848Y-14537793D01*
X12686848Y-14537793D02*
X12734467Y-14537793D01*
X12734467Y-14537793D02*
X12753515Y-14528269D01*
X12848753Y-14480650D02*
X12848753Y-14680650D01*
X12848753Y-14490174D02*
X12867801Y-14480650D01*
X12867801Y-14480650D02*
X12905896Y-14480650D01*
X12905896Y-14480650D02*
X12924943Y-14490174D01*
X12924943Y-14490174D02*
X12934467Y-14499698D01*
X12934467Y-14499698D02*
X12943991Y-14518746D01*
X12943991Y-14518746D02*
X12943991Y-14575888D01*
X12943991Y-14575888D02*
X12934467Y-14594936D01*
X12934467Y-14594936D02*
X12924943Y-14604460D01*
X12924943Y-14604460D02*
X12905896Y-14613984D01*
X12905896Y-14613984D02*
X12867801Y-14613984D01*
X12867801Y-14613984D02*
X12848753Y-14604460D01*
X13029705Y-14594936D02*
X13039229Y-14604460D01*
X13039229Y-14604460D02*
X13029705Y-14613984D01*
X13029705Y-14613984D02*
X13020182Y-14604460D01*
X13020182Y-14604460D02*
X13029705Y-14594936D01*
X13029705Y-14594936D02*
X13029705Y-14613984D01*
X13029705Y-14490174D02*
X13039229Y-14499698D01*
X13039229Y-14499698D02*
X13029705Y-14509222D01*
X13029705Y-14509222D02*
X13020182Y-14499698D01*
X13020182Y-14499698D02*
X13029705Y-14490174D01*
X13029705Y-14490174D02*
X13029705Y-14509222D01*
D12*
X11367500Y-14927500D02*
X11397500Y-14957500D01*
X11397500Y-14927500D02*
X11367500Y-14957500D01*
D11*
X11696372Y-14833984D02*
X11715420Y-14833984D01*
X11715420Y-14833984D02*
X11734467Y-14843508D01*
X11734467Y-14843508D02*
X11743991Y-14853031D01*
X11743991Y-14853031D02*
X11753515Y-14872079D01*
X11753515Y-14872079D02*
X11763039Y-14910174D01*
X11763039Y-14910174D02*
X11763039Y-14957793D01*
X11763039Y-14957793D02*
X11753515Y-14995888D01*
X11753515Y-14995888D02*
X11743991Y-15014936D01*
X11743991Y-15014936D02*
X11734467Y-15024460D01*
X11734467Y-15024460D02*
X11715420Y-15033984D01*
X11715420Y-15033984D02*
X11696372Y-15033984D01*
X11696372Y-15033984D02*
X11677324Y-15024460D01*
X11677324Y-15024460D02*
X11667801Y-15014936D01*
X11667801Y-15014936D02*
X11658277Y-14995888D01*
X11658277Y-14995888D02*
X11648753Y-14957793D01*
X11648753Y-14957793D02*
X11648753Y-14910174D01*
X11648753Y-14910174D02*
X11658277Y-14872079D01*
X11658277Y-14872079D02*
X11667801Y-14853031D01*
X11667801Y-14853031D02*
X11677324Y-14843508D01*
X11677324Y-14843508D02*
X11696372Y-14833984D01*
X11848753Y-15014936D02*
X11858277Y-15024460D01*
X11858277Y-15024460D02*
X11848753Y-15033984D01*
X11848753Y-15033984D02*
X11839229Y-15024460D01*
X11839229Y-15024460D02*
X11848753Y-15014936D01*
X11848753Y-15014936D02*
X11848753Y-15033984D01*
X11924943Y-14833984D02*
X12048753Y-14833984D01*
X12048753Y-14833984D02*
X11982086Y-14910174D01*
X11982086Y-14910174D02*
X12010658Y-14910174D01*
X12010658Y-14910174D02*
X12029705Y-14919698D01*
X12029705Y-14919698D02*
X12039229Y-14929222D01*
X12039229Y-14929222D02*
X12048753Y-14948269D01*
X12048753Y-14948269D02*
X12048753Y-14995888D01*
X12048753Y-14995888D02*
X12039229Y-15014936D01*
X12039229Y-15014936D02*
X12029705Y-15024460D01*
X12029705Y-15024460D02*
X12010658Y-15033984D01*
X12010658Y-15033984D02*
X11953515Y-15033984D01*
X11953515Y-15033984D02*
X11934467Y-15024460D01*
X11934467Y-15024460D02*
X11924943Y-15014936D01*
X12172562Y-14833984D02*
X12191610Y-14833984D01*
X12191610Y-14833984D02*
X12210658Y-14843508D01*
X12210658Y-14843508D02*
X12220182Y-14853031D01*
X12220182Y-14853031D02*
X12229705Y-14872079D01*
X12229705Y-14872079D02*
X12239229Y-14910174D01*
X12239229Y-14910174D02*
X12239229Y-14957793D01*
X12239229Y-14957793D02*
X12229705Y-14995888D01*
X12229705Y-14995888D02*
X12220182Y-15014936D01*
X12220182Y-15014936D02*
X12210658Y-15024460D01*
X12210658Y-15024460D02*
X12191610Y-15033984D01*
X12191610Y-15033984D02*
X12172562Y-15033984D01*
X12172562Y-15033984D02*
X12153515Y-15024460D01*
X12153515Y-15024460D02*
X12143991Y-15014936D01*
X12143991Y-15014936D02*
X12134467Y-14995888D01*
X12134467Y-14995888D02*
X12124943Y-14957793D01*
X12124943Y-14957793D02*
X12124943Y-14910174D01*
X12124943Y-14910174D02*
X12134467Y-14872079D01*
X12134467Y-14872079D02*
X12143991Y-14853031D01*
X12143991Y-14853031D02*
X12153515Y-14843508D01*
X12153515Y-14843508D02*
X12172562Y-14833984D01*
X12363039Y-14833984D02*
X12382086Y-14833984D01*
X12382086Y-14833984D02*
X12401134Y-14843508D01*
X12401134Y-14843508D02*
X12410658Y-14853031D01*
X12410658Y-14853031D02*
X12420182Y-14872079D01*
X12420182Y-14872079D02*
X12429705Y-14910174D01*
X12429705Y-14910174D02*
X12429705Y-14957793D01*
X12429705Y-14957793D02*
X12420182Y-14995888D01*
X12420182Y-14995888D02*
X12410658Y-15014936D01*
X12410658Y-15014936D02*
X12401134Y-15024460D01*
X12401134Y-15024460D02*
X12382086Y-15033984D01*
X12382086Y-15033984D02*
X12363039Y-15033984D01*
X12363039Y-15033984D02*
X12343991Y-15024460D01*
X12343991Y-15024460D02*
X12334467Y-15014936D01*
X12334467Y-15014936D02*
X12324943Y-14995888D01*
X12324943Y-14995888D02*
X12315420Y-14957793D01*
X12315420Y-14957793D02*
X12315420Y-14910174D01*
X12315420Y-14910174D02*
X12324943Y-14872079D01*
X12324943Y-14872079D02*
X12334467Y-14853031D01*
X12334467Y-14853031D02*
X12343991Y-14843508D01*
X12343991Y-14843508D02*
X12363039Y-14833984D01*
X12515420Y-15033984D02*
X12515420Y-14900650D01*
X12515420Y-14919698D02*
X12524943Y-14910174D01*
X12524943Y-14910174D02*
X12543991Y-14900650D01*
X12543991Y-14900650D02*
X12572563Y-14900650D01*
X12572563Y-14900650D02*
X12591610Y-14910174D01*
X12591610Y-14910174D02*
X12601134Y-14929222D01*
X12601134Y-14929222D02*
X12601134Y-15033984D01*
X12601134Y-14929222D02*
X12610658Y-14910174D01*
X12610658Y-14910174D02*
X12629705Y-14900650D01*
X12629705Y-14900650D02*
X12658277Y-14900650D01*
X12658277Y-14900650D02*
X12677324Y-14910174D01*
X12677324Y-14910174D02*
X12686848Y-14929222D01*
X12686848Y-14929222D02*
X12686848Y-15033984D01*
X12782086Y-15033984D02*
X12782086Y-14900650D01*
X12782086Y-14919698D02*
X12791610Y-14910174D01*
X12791610Y-14910174D02*
X12810658Y-14900650D01*
X12810658Y-14900650D02*
X12839229Y-14900650D01*
X12839229Y-14900650D02*
X12858277Y-14910174D01*
X12858277Y-14910174D02*
X12867801Y-14929222D01*
X12867801Y-14929222D02*
X12867801Y-15033984D01*
X12867801Y-14929222D02*
X12877324Y-14910174D01*
X12877324Y-14910174D02*
X12896372Y-14900650D01*
X12896372Y-14900650D02*
X12924943Y-14900650D01*
X12924943Y-14900650D02*
X12943991Y-14910174D01*
X12943991Y-14910174D02*
X12953515Y-14929222D01*
X12953515Y-14929222D02*
X12953515Y-15033984D01*
X13343991Y-14824460D02*
X13172563Y-15081603D01*
X13601134Y-14833984D02*
X13620182Y-14833984D01*
X13620182Y-14833984D02*
X13639229Y-14843508D01*
X13639229Y-14843508D02*
X13648753Y-14853031D01*
X13648753Y-14853031D02*
X13658277Y-14872079D01*
X13658277Y-14872079D02*
X13667801Y-14910174D01*
X13667801Y-14910174D02*
X13667801Y-14957793D01*
X13667801Y-14957793D02*
X13658277Y-14995888D01*
X13658277Y-14995888D02*
X13648753Y-15014936D01*
X13648753Y-15014936D02*
X13639229Y-15024460D01*
X13639229Y-15024460D02*
X13620182Y-15033984D01*
X13620182Y-15033984D02*
X13601134Y-15033984D01*
X13601134Y-15033984D02*
X13582086Y-15024460D01*
X13582086Y-15024460D02*
X13572563Y-15014936D01*
X13572563Y-15014936D02*
X13563039Y-14995888D01*
X13563039Y-14995888D02*
X13553515Y-14957793D01*
X13553515Y-14957793D02*
X13553515Y-14910174D01*
X13553515Y-14910174D02*
X13563039Y-14872079D01*
X13563039Y-14872079D02*
X13572563Y-14853031D01*
X13572563Y-14853031D02*
X13582086Y-14843508D01*
X13582086Y-14843508D02*
X13601134Y-14833984D01*
X13753515Y-15014936D02*
X13763039Y-15024460D01*
X13763039Y-15024460D02*
X13753515Y-15033984D01*
X13753515Y-15033984D02*
X13743991Y-15024460D01*
X13743991Y-15024460D02*
X13753515Y-15014936D01*
X13753515Y-15014936D02*
X13753515Y-15033984D01*
X13886848Y-14833984D02*
X13905896Y-14833984D01*
X13905896Y-14833984D02*
X13924944Y-14843508D01*
X13924944Y-14843508D02*
X13934467Y-14853031D01*
X13934467Y-14853031D02*
X13943991Y-14872079D01*
X13943991Y-14872079D02*
X13953515Y-14910174D01*
X13953515Y-14910174D02*
X13953515Y-14957793D01*
X13953515Y-14957793D02*
X13943991Y-14995888D01*
X13943991Y-14995888D02*
X13934467Y-15014936D01*
X13934467Y-15014936D02*
X13924944Y-15024460D01*
X13924944Y-15024460D02*
X13905896Y-15033984D01*
X13905896Y-15033984D02*
X13886848Y-15033984D01*
X13886848Y-15033984D02*
X13867801Y-15024460D01*
X13867801Y-15024460D02*
X13858277Y-15014936D01*
X13858277Y-15014936D02*
X13848753Y-14995888D01*
X13848753Y-14995888D02*
X13839229Y-14957793D01*
X13839229Y-14957793D02*
X13839229Y-14910174D01*
X13839229Y-14910174D02*
X13848753Y-14872079D01*
X13848753Y-14872079D02*
X13858277Y-14853031D01*
X13858277Y-14853031D02*
X13867801Y-14843508D01*
X13867801Y-14843508D02*
X13886848Y-14833984D01*
X14143991Y-15033984D02*
X14029706Y-15033984D01*
X14086848Y-15033984D02*
X14086848Y-14833984D01*
X14086848Y-14833984D02*
X14067801Y-14862555D01*
X14067801Y-14862555D02*
X14048753Y-14881603D01*
X14048753Y-14881603D02*
X14029706Y-14891127D01*
X14334467Y-15033984D02*
X14220182Y-15033984D01*
X14277325Y-15033984D02*
X14277325Y-14833984D01*
X14277325Y-14833984D02*
X14258277Y-14862555D01*
X14258277Y-14862555D02*
X14239229Y-14881603D01*
X14239229Y-14881603D02*
X14220182Y-14891127D01*
X14448753Y-14919698D02*
X14429706Y-14910174D01*
X14429706Y-14910174D02*
X14420182Y-14900650D01*
X14420182Y-14900650D02*
X14410658Y-14881603D01*
X14410658Y-14881603D02*
X14410658Y-14872079D01*
X14410658Y-14872079D02*
X14420182Y-14853031D01*
X14420182Y-14853031D02*
X14429706Y-14843508D01*
X14429706Y-14843508D02*
X14448753Y-14833984D01*
X14448753Y-14833984D02*
X14486848Y-14833984D01*
X14486848Y-14833984D02*
X14505896Y-14843508D01*
X14505896Y-14843508D02*
X14515420Y-14853031D01*
X14515420Y-14853031D02*
X14524944Y-14872079D01*
X14524944Y-14872079D02*
X14524944Y-14881603D01*
X14524944Y-14881603D02*
X14515420Y-14900650D01*
X14515420Y-14900650D02*
X14505896Y-14910174D01*
X14505896Y-14910174D02*
X14486848Y-14919698D01*
X14486848Y-14919698D02*
X14448753Y-14919698D01*
X14448753Y-14919698D02*
X14429706Y-14929222D01*
X14429706Y-14929222D02*
X14420182Y-14938746D01*
X14420182Y-14938746D02*
X14410658Y-14957793D01*
X14410658Y-14957793D02*
X14410658Y-14995888D01*
X14410658Y-14995888D02*
X14420182Y-15014936D01*
X14420182Y-15014936D02*
X14429706Y-15024460D01*
X14429706Y-15024460D02*
X14448753Y-15033984D01*
X14448753Y-15033984D02*
X14486848Y-15033984D01*
X14486848Y-15033984D02*
X14505896Y-15024460D01*
X14505896Y-15024460D02*
X14515420Y-15014936D01*
X14515420Y-15014936D02*
X14524944Y-14995888D01*
X14524944Y-14995888D02*
X14524944Y-14957793D01*
X14524944Y-14957793D02*
X14515420Y-14938746D01*
X14515420Y-14938746D02*
X14505896Y-14929222D01*
X14505896Y-14929222D02*
X14486848Y-14919698D01*
X14601134Y-14833984D02*
X14601134Y-14872079D01*
X14677325Y-14833984D02*
X14677325Y-14872079D01*
X14972563Y-15110174D02*
X14963039Y-15100650D01*
X14963039Y-15100650D02*
X14943991Y-15072079D01*
X14943991Y-15072079D02*
X14934468Y-15053031D01*
X14934468Y-15053031D02*
X14924944Y-15024460D01*
X14924944Y-15024460D02*
X14915420Y-14976841D01*
X14915420Y-14976841D02*
X14915420Y-14938746D01*
X14915420Y-14938746D02*
X14924944Y-14891127D01*
X14924944Y-14891127D02*
X14934468Y-14862555D01*
X14934468Y-14862555D02*
X14943991Y-14843508D01*
X14943991Y-14843508D02*
X14963039Y-14814936D01*
X14963039Y-14814936D02*
X14972563Y-14805412D01*
X15077325Y-14919698D02*
X15058277Y-14910174D01*
X15058277Y-14910174D02*
X15048753Y-14900650D01*
X15048753Y-14900650D02*
X15039229Y-14881603D01*
X15039229Y-14881603D02*
X15039229Y-14872079D01*
X15039229Y-14872079D02*
X15048753Y-14853031D01*
X15048753Y-14853031D02*
X15058277Y-14843508D01*
X15058277Y-14843508D02*
X15077325Y-14833984D01*
X15077325Y-14833984D02*
X15115420Y-14833984D01*
X15115420Y-14833984D02*
X15134468Y-14843508D01*
X15134468Y-14843508D02*
X15143991Y-14853031D01*
X15143991Y-14853031D02*
X15153515Y-14872079D01*
X15153515Y-14872079D02*
X15153515Y-14881603D01*
X15153515Y-14881603D02*
X15143991Y-14900650D01*
X15143991Y-14900650D02*
X15134468Y-14910174D01*
X15134468Y-14910174D02*
X15115420Y-14919698D01*
X15115420Y-14919698D02*
X15077325Y-14919698D01*
X15077325Y-14919698D02*
X15058277Y-14929222D01*
X15058277Y-14929222D02*
X15048753Y-14938746D01*
X15048753Y-14938746D02*
X15039229Y-14957793D01*
X15039229Y-14957793D02*
X15039229Y-14995888D01*
X15039229Y-14995888D02*
X15048753Y-15014936D01*
X15048753Y-15014936D02*
X15058277Y-15024460D01*
X15058277Y-15024460D02*
X15077325Y-15033984D01*
X15077325Y-15033984D02*
X15115420Y-15033984D01*
X15115420Y-15033984D02*
X15134468Y-15024460D01*
X15134468Y-15024460D02*
X15143991Y-15014936D01*
X15143991Y-15014936D02*
X15153515Y-14995888D01*
X15153515Y-14995888D02*
X15153515Y-14957793D01*
X15153515Y-14957793D02*
X15143991Y-14938746D01*
X15143991Y-14938746D02*
X15134468Y-14929222D01*
X15134468Y-14929222D02*
X15115420Y-14919698D01*
X15391610Y-15033984D02*
X15391610Y-14833984D01*
X15477325Y-15033984D02*
X15477325Y-14929222D01*
X15477325Y-14929222D02*
X15467801Y-14910174D01*
X15467801Y-14910174D02*
X15448753Y-14900650D01*
X15448753Y-14900650D02*
X15420182Y-14900650D01*
X15420182Y-14900650D02*
X15401134Y-14910174D01*
X15401134Y-14910174D02*
X15391610Y-14919698D01*
X15601134Y-15033984D02*
X15582087Y-15024460D01*
X15582087Y-15024460D02*
X15572563Y-15014936D01*
X15572563Y-15014936D02*
X15563039Y-14995888D01*
X15563039Y-14995888D02*
X15563039Y-14938746D01*
X15563039Y-14938746D02*
X15572563Y-14919698D01*
X15572563Y-14919698D02*
X15582087Y-14910174D01*
X15582087Y-14910174D02*
X15601134Y-14900650D01*
X15601134Y-14900650D02*
X15629706Y-14900650D01*
X15629706Y-14900650D02*
X15648753Y-14910174D01*
X15648753Y-14910174D02*
X15658277Y-14919698D01*
X15658277Y-14919698D02*
X15667801Y-14938746D01*
X15667801Y-14938746D02*
X15667801Y-14995888D01*
X15667801Y-14995888D02*
X15658277Y-15014936D01*
X15658277Y-15014936D02*
X15648753Y-15024460D01*
X15648753Y-15024460D02*
X15629706Y-15033984D01*
X15629706Y-15033984D02*
X15601134Y-15033984D01*
X15782087Y-15033984D02*
X15763039Y-15024460D01*
X15763039Y-15024460D02*
X15753515Y-15005412D01*
X15753515Y-15005412D02*
X15753515Y-14833984D01*
X15934468Y-15024460D02*
X15915420Y-15033984D01*
X15915420Y-15033984D02*
X15877325Y-15033984D01*
X15877325Y-15033984D02*
X15858277Y-15024460D01*
X15858277Y-15024460D02*
X15848753Y-15005412D01*
X15848753Y-15005412D02*
X15848753Y-14929222D01*
X15848753Y-14929222D02*
X15858277Y-14910174D01*
X15858277Y-14910174D02*
X15877325Y-14900650D01*
X15877325Y-14900650D02*
X15915420Y-14900650D01*
X15915420Y-14900650D02*
X15934468Y-14910174D01*
X15934468Y-14910174D02*
X15943991Y-14929222D01*
X15943991Y-14929222D02*
X15943991Y-14948269D01*
X15943991Y-14948269D02*
X15848753Y-14967317D01*
X16020182Y-15024460D02*
X16039230Y-15033984D01*
X16039230Y-15033984D02*
X16077325Y-15033984D01*
X16077325Y-15033984D02*
X16096372Y-15024460D01*
X16096372Y-15024460D02*
X16105896Y-15005412D01*
X16105896Y-15005412D02*
X16105896Y-14995888D01*
X16105896Y-14995888D02*
X16096372Y-14976841D01*
X16096372Y-14976841D02*
X16077325Y-14967317D01*
X16077325Y-14967317D02*
X16048753Y-14967317D01*
X16048753Y-14967317D02*
X16029706Y-14957793D01*
X16029706Y-14957793D02*
X16020182Y-14938746D01*
X16020182Y-14938746D02*
X16020182Y-14929222D01*
X16020182Y-14929222D02*
X16029706Y-14910174D01*
X16029706Y-14910174D02*
X16048753Y-14900650D01*
X16048753Y-14900650D02*
X16077325Y-14900650D01*
X16077325Y-14900650D02*
X16096372Y-14910174D01*
X16172563Y-15110174D02*
X16182087Y-15100650D01*
X16182087Y-15100650D02*
X16201134Y-15072079D01*
X16201134Y-15072079D02*
X16210658Y-15053031D01*
X16210658Y-15053031D02*
X16220182Y-15024460D01*
X16220182Y-15024460D02*
X16229706Y-14976841D01*
X16229706Y-14976841D02*
X16229706Y-14938746D01*
X16229706Y-14938746D02*
X16220182Y-14891127D01*
X16220182Y-14891127D02*
X16210658Y-14862555D01*
X16210658Y-14862555D02*
X16201134Y-14843508D01*
X16201134Y-14843508D02*
X16182087Y-14814936D01*
X16182087Y-14814936D02*
X16172563Y-14805412D01*
D12*
X11397500Y-15206500D02*
G75*
G02*
X11302500Y-15206500I-47500J0D01*
G01*
X11302500Y-15206500D02*
G75*
G02*
X11397500Y-15206500I47500J0D01*
G01*
D11*
X11696372Y-15097984D02*
X11715420Y-15097984D01*
X11715420Y-15097984D02*
X11734467Y-15107508D01*
X11734467Y-15107508D02*
X11743991Y-15117031D01*
X11743991Y-15117031D02*
X11753515Y-15136079D01*
X11753515Y-15136079D02*
X11763039Y-15174174D01*
X11763039Y-15174174D02*
X11763039Y-15221793D01*
X11763039Y-15221793D02*
X11753515Y-15259888D01*
X11753515Y-15259888D02*
X11743991Y-15278936D01*
X11743991Y-15278936D02*
X11734467Y-15288460D01*
X11734467Y-15288460D02*
X11715420Y-15297984D01*
X11715420Y-15297984D02*
X11696372Y-15297984D01*
X11696372Y-15297984D02*
X11677324Y-15288460D01*
X11677324Y-15288460D02*
X11667801Y-15278936D01*
X11667801Y-15278936D02*
X11658277Y-15259888D01*
X11658277Y-15259888D02*
X11648753Y-15221793D01*
X11648753Y-15221793D02*
X11648753Y-15174174D01*
X11648753Y-15174174D02*
X11658277Y-15136079D01*
X11658277Y-15136079D02*
X11667801Y-15117031D01*
X11667801Y-15117031D02*
X11677324Y-15107508D01*
X11677324Y-15107508D02*
X11696372Y-15097984D01*
X11848753Y-15278936D02*
X11858277Y-15288460D01*
X11858277Y-15288460D02*
X11848753Y-15297984D01*
X11848753Y-15297984D02*
X11839229Y-15288460D01*
X11839229Y-15288460D02*
X11848753Y-15278936D01*
X11848753Y-15278936D02*
X11848753Y-15297984D01*
X11953515Y-15297984D02*
X11991610Y-15297984D01*
X11991610Y-15297984D02*
X12010658Y-15288460D01*
X12010658Y-15288460D02*
X12020182Y-15278936D01*
X12020182Y-15278936D02*
X12039229Y-15250365D01*
X12039229Y-15250365D02*
X12048753Y-15212269D01*
X12048753Y-15212269D02*
X12048753Y-15136079D01*
X12048753Y-15136079D02*
X12039229Y-15117031D01*
X12039229Y-15117031D02*
X12029705Y-15107508D01*
X12029705Y-15107508D02*
X12010658Y-15097984D01*
X12010658Y-15097984D02*
X11972562Y-15097984D01*
X11972562Y-15097984D02*
X11953515Y-15107508D01*
X11953515Y-15107508D02*
X11943991Y-15117031D01*
X11943991Y-15117031D02*
X11934467Y-15136079D01*
X11934467Y-15136079D02*
X11934467Y-15183698D01*
X11934467Y-15183698D02*
X11943991Y-15202746D01*
X11943991Y-15202746D02*
X11953515Y-15212269D01*
X11953515Y-15212269D02*
X11972562Y-15221793D01*
X11972562Y-15221793D02*
X12010658Y-15221793D01*
X12010658Y-15221793D02*
X12029705Y-15212269D01*
X12029705Y-15212269D02*
X12039229Y-15202746D01*
X12039229Y-15202746D02*
X12048753Y-15183698D01*
X12229705Y-15097984D02*
X12134467Y-15097984D01*
X12134467Y-15097984D02*
X12124943Y-15193222D01*
X12124943Y-15193222D02*
X12134467Y-15183698D01*
X12134467Y-15183698D02*
X12153515Y-15174174D01*
X12153515Y-15174174D02*
X12201134Y-15174174D01*
X12201134Y-15174174D02*
X12220182Y-15183698D01*
X12220182Y-15183698D02*
X12229705Y-15193222D01*
X12229705Y-15193222D02*
X12239229Y-15212269D01*
X12239229Y-15212269D02*
X12239229Y-15259888D01*
X12239229Y-15259888D02*
X12229705Y-15278936D01*
X12229705Y-15278936D02*
X12220182Y-15288460D01*
X12220182Y-15288460D02*
X12201134Y-15297984D01*
X12201134Y-15297984D02*
X12153515Y-15297984D01*
X12153515Y-15297984D02*
X12134467Y-15288460D01*
X12134467Y-15288460D02*
X12124943Y-15278936D01*
X12363039Y-15097984D02*
X12382086Y-15097984D01*
X12382086Y-15097984D02*
X12401134Y-15107508D01*
X12401134Y-15107508D02*
X12410658Y-15117031D01*
X12410658Y-15117031D02*
X12420182Y-15136079D01*
X12420182Y-15136079D02*
X12429705Y-15174174D01*
X12429705Y-15174174D02*
X12429705Y-15221793D01*
X12429705Y-15221793D02*
X12420182Y-15259888D01*
X12420182Y-15259888D02*
X12410658Y-15278936D01*
X12410658Y-15278936D02*
X12401134Y-15288460D01*
X12401134Y-15288460D02*
X12382086Y-15297984D01*
X12382086Y-15297984D02*
X12363039Y-15297984D01*
X12363039Y-15297984D02*
X12343991Y-15288460D01*
X12343991Y-15288460D02*
X12334467Y-15278936D01*
X12334467Y-15278936D02*
X12324943Y-15259888D01*
X12324943Y-15259888D02*
X12315420Y-15221793D01*
X12315420Y-15221793D02*
X12315420Y-15174174D01*
X12315420Y-15174174D02*
X12324943Y-15136079D01*
X12324943Y-15136079D02*
X12334467Y-15117031D01*
X12334467Y-15117031D02*
X12343991Y-15107508D01*
X12343991Y-15107508D02*
X12363039Y-15097984D01*
X12515420Y-15297984D02*
X12515420Y-15164650D01*
X12515420Y-15183698D02*
X12524943Y-15174174D01*
X12524943Y-15174174D02*
X12543991Y-15164650D01*
X12543991Y-15164650D02*
X12572563Y-15164650D01*
X12572563Y-15164650D02*
X12591610Y-15174174D01*
X12591610Y-15174174D02*
X12601134Y-15193222D01*
X12601134Y-15193222D02*
X12601134Y-15297984D01*
X12601134Y-15193222D02*
X12610658Y-15174174D01*
X12610658Y-15174174D02*
X12629705Y-15164650D01*
X12629705Y-15164650D02*
X12658277Y-15164650D01*
X12658277Y-15164650D02*
X12677324Y-15174174D01*
X12677324Y-15174174D02*
X12686848Y-15193222D01*
X12686848Y-15193222D02*
X12686848Y-15297984D01*
X12782086Y-15297984D02*
X12782086Y-15164650D01*
X12782086Y-15183698D02*
X12791610Y-15174174D01*
X12791610Y-15174174D02*
X12810658Y-15164650D01*
X12810658Y-15164650D02*
X12839229Y-15164650D01*
X12839229Y-15164650D02*
X12858277Y-15174174D01*
X12858277Y-15174174D02*
X12867801Y-15193222D01*
X12867801Y-15193222D02*
X12867801Y-15297984D01*
X12867801Y-15193222D02*
X12877324Y-15174174D01*
X12877324Y-15174174D02*
X12896372Y-15164650D01*
X12896372Y-15164650D02*
X12924943Y-15164650D01*
X12924943Y-15164650D02*
X12943991Y-15174174D01*
X12943991Y-15174174D02*
X12953515Y-15193222D01*
X12953515Y-15193222D02*
X12953515Y-15297984D01*
X13343991Y-15088460D02*
X13172563Y-15345603D01*
X13601134Y-15097984D02*
X13620182Y-15097984D01*
X13620182Y-15097984D02*
X13639229Y-15107508D01*
X13639229Y-15107508D02*
X13648753Y-15117031D01*
X13648753Y-15117031D02*
X13658277Y-15136079D01*
X13658277Y-15136079D02*
X13667801Y-15174174D01*
X13667801Y-15174174D02*
X13667801Y-15221793D01*
X13667801Y-15221793D02*
X13658277Y-15259888D01*
X13658277Y-15259888D02*
X13648753Y-15278936D01*
X13648753Y-15278936D02*
X13639229Y-15288460D01*
X13639229Y-15288460D02*
X13620182Y-15297984D01*
X13620182Y-15297984D02*
X13601134Y-15297984D01*
X13601134Y-15297984D02*
X13582086Y-15288460D01*
X13582086Y-15288460D02*
X13572563Y-15278936D01*
X13572563Y-15278936D02*
X13563039Y-15259888D01*
X13563039Y-15259888D02*
X13553515Y-15221793D01*
X13553515Y-15221793D02*
X13553515Y-15174174D01*
X13553515Y-15174174D02*
X13563039Y-15136079D01*
X13563039Y-15136079D02*
X13572563Y-15117031D01*
X13572563Y-15117031D02*
X13582086Y-15107508D01*
X13582086Y-15107508D02*
X13601134Y-15097984D01*
X13753515Y-15278936D02*
X13763039Y-15288460D01*
X13763039Y-15288460D02*
X13753515Y-15297984D01*
X13753515Y-15297984D02*
X13743991Y-15288460D01*
X13743991Y-15288460D02*
X13753515Y-15278936D01*
X13753515Y-15278936D02*
X13753515Y-15297984D01*
X13886848Y-15097984D02*
X13905896Y-15097984D01*
X13905896Y-15097984D02*
X13924944Y-15107508D01*
X13924944Y-15107508D02*
X13934467Y-15117031D01*
X13934467Y-15117031D02*
X13943991Y-15136079D01*
X13943991Y-15136079D02*
X13953515Y-15174174D01*
X13953515Y-15174174D02*
X13953515Y-15221793D01*
X13953515Y-15221793D02*
X13943991Y-15259888D01*
X13943991Y-15259888D02*
X13934467Y-15278936D01*
X13934467Y-15278936D02*
X13924944Y-15288460D01*
X13924944Y-15288460D02*
X13905896Y-15297984D01*
X13905896Y-15297984D02*
X13886848Y-15297984D01*
X13886848Y-15297984D02*
X13867801Y-15288460D01*
X13867801Y-15288460D02*
X13858277Y-15278936D01*
X13858277Y-15278936D02*
X13848753Y-15259888D01*
X13848753Y-15259888D02*
X13839229Y-15221793D01*
X13839229Y-15221793D02*
X13839229Y-15174174D01*
X13839229Y-15174174D02*
X13848753Y-15136079D01*
X13848753Y-15136079D02*
X13858277Y-15117031D01*
X13858277Y-15117031D02*
X13867801Y-15107508D01*
X13867801Y-15107508D02*
X13886848Y-15097984D01*
X14020182Y-15097984D02*
X14143991Y-15097984D01*
X14143991Y-15097984D02*
X14077325Y-15174174D01*
X14077325Y-15174174D02*
X14105896Y-15174174D01*
X14105896Y-15174174D02*
X14124944Y-15183698D01*
X14124944Y-15183698D02*
X14134467Y-15193222D01*
X14134467Y-15193222D02*
X14143991Y-15212269D01*
X14143991Y-15212269D02*
X14143991Y-15259888D01*
X14143991Y-15259888D02*
X14134467Y-15278936D01*
X14134467Y-15278936D02*
X14124944Y-15288460D01*
X14124944Y-15288460D02*
X14105896Y-15297984D01*
X14105896Y-15297984D02*
X14048753Y-15297984D01*
X14048753Y-15297984D02*
X14029706Y-15288460D01*
X14029706Y-15288460D02*
X14020182Y-15278936D01*
X14210658Y-15097984D02*
X14343991Y-15097984D01*
X14343991Y-15097984D02*
X14258277Y-15297984D01*
X14505896Y-15164650D02*
X14505896Y-15297984D01*
X14458277Y-15088460D02*
X14410658Y-15231317D01*
X14410658Y-15231317D02*
X14534467Y-15231317D01*
X14601134Y-15097984D02*
X14601134Y-15136079D01*
X14677325Y-15097984D02*
X14677325Y-15136079D01*
X14972563Y-15374174D02*
X14963039Y-15364650D01*
X14963039Y-15364650D02*
X14943991Y-15336079D01*
X14943991Y-15336079D02*
X14934468Y-15317031D01*
X14934468Y-15317031D02*
X14924944Y-15288460D01*
X14924944Y-15288460D02*
X14915420Y-15240841D01*
X14915420Y-15240841D02*
X14915420Y-15202746D01*
X14915420Y-15202746D02*
X14924944Y-15155127D01*
X14924944Y-15155127D02*
X14934468Y-15126555D01*
X14934468Y-15126555D02*
X14943991Y-15107508D01*
X14943991Y-15107508D02*
X14963039Y-15078936D01*
X14963039Y-15078936D02*
X14972563Y-15069412D01*
X15134468Y-15097984D02*
X15096372Y-15097984D01*
X15096372Y-15097984D02*
X15077325Y-15107508D01*
X15077325Y-15107508D02*
X15067801Y-15117031D01*
X15067801Y-15117031D02*
X15048753Y-15145603D01*
X15048753Y-15145603D02*
X15039229Y-15183698D01*
X15039229Y-15183698D02*
X15039229Y-15259888D01*
X15039229Y-15259888D02*
X15048753Y-15278936D01*
X15048753Y-15278936D02*
X15058277Y-15288460D01*
X15058277Y-15288460D02*
X15077325Y-15297984D01*
X15077325Y-15297984D02*
X15115420Y-15297984D01*
X15115420Y-15297984D02*
X15134468Y-15288460D01*
X15134468Y-15288460D02*
X15143991Y-15278936D01*
X15143991Y-15278936D02*
X15153515Y-15259888D01*
X15153515Y-15259888D02*
X15153515Y-15212269D01*
X15153515Y-15212269D02*
X15143991Y-15193222D01*
X15143991Y-15193222D02*
X15134468Y-15183698D01*
X15134468Y-15183698D02*
X15115420Y-15174174D01*
X15115420Y-15174174D02*
X15077325Y-15174174D01*
X15077325Y-15174174D02*
X15058277Y-15183698D01*
X15058277Y-15183698D02*
X15048753Y-15193222D01*
X15048753Y-15193222D02*
X15039229Y-15212269D01*
X15220182Y-15097984D02*
X15343991Y-15097984D01*
X15343991Y-15097984D02*
X15277325Y-15174174D01*
X15277325Y-15174174D02*
X15305896Y-15174174D01*
X15305896Y-15174174D02*
X15324944Y-15183698D01*
X15324944Y-15183698D02*
X15334468Y-15193222D01*
X15334468Y-15193222D02*
X15343991Y-15212269D01*
X15343991Y-15212269D02*
X15343991Y-15259888D01*
X15343991Y-15259888D02*
X15334468Y-15278936D01*
X15334468Y-15278936D02*
X15324944Y-15288460D01*
X15324944Y-15288460D02*
X15305896Y-15297984D01*
X15305896Y-15297984D02*
X15248753Y-15297984D01*
X15248753Y-15297984D02*
X15229706Y-15288460D01*
X15229706Y-15288460D02*
X15220182Y-15278936D01*
X15515420Y-15097984D02*
X15477325Y-15097984D01*
X15477325Y-15097984D02*
X15458277Y-15107508D01*
X15458277Y-15107508D02*
X15448753Y-15117031D01*
X15448753Y-15117031D02*
X15429706Y-15145603D01*
X15429706Y-15145603D02*
X15420182Y-15183698D01*
X15420182Y-15183698D02*
X15420182Y-15259888D01*
X15420182Y-15259888D02*
X15429706Y-15278936D01*
X15429706Y-15278936D02*
X15439229Y-15288460D01*
X15439229Y-15288460D02*
X15458277Y-15297984D01*
X15458277Y-15297984D02*
X15496372Y-15297984D01*
X15496372Y-15297984D02*
X15515420Y-15288460D01*
X15515420Y-15288460D02*
X15524944Y-15278936D01*
X15524944Y-15278936D02*
X15534468Y-15259888D01*
X15534468Y-15259888D02*
X15534468Y-15212269D01*
X15534468Y-15212269D02*
X15524944Y-15193222D01*
X15524944Y-15193222D02*
X15515420Y-15183698D01*
X15515420Y-15183698D02*
X15496372Y-15174174D01*
X15496372Y-15174174D02*
X15458277Y-15174174D01*
X15458277Y-15174174D02*
X15439229Y-15183698D01*
X15439229Y-15183698D02*
X15429706Y-15193222D01*
X15429706Y-15193222D02*
X15420182Y-15212269D01*
X15772563Y-15297984D02*
X15772563Y-15097984D01*
X15858277Y-15297984D02*
X15858277Y-15193222D01*
X15858277Y-15193222D02*
X15848753Y-15174174D01*
X15848753Y-15174174D02*
X15829706Y-15164650D01*
X15829706Y-15164650D02*
X15801134Y-15164650D01*
X15801134Y-15164650D02*
X15782087Y-15174174D01*
X15782087Y-15174174D02*
X15772563Y-15183698D01*
X15982087Y-15297984D02*
X15963039Y-15288460D01*
X15963039Y-15288460D02*
X15953515Y-15278936D01*
X15953515Y-15278936D02*
X15943991Y-15259888D01*
X15943991Y-15259888D02*
X15943991Y-15202746D01*
X15943991Y-15202746D02*
X15953515Y-15183698D01*
X15953515Y-15183698D02*
X15963039Y-15174174D01*
X15963039Y-15174174D02*
X15982087Y-15164650D01*
X15982087Y-15164650D02*
X16010658Y-15164650D01*
X16010658Y-15164650D02*
X16029706Y-15174174D01*
X16029706Y-15174174D02*
X16039230Y-15183698D01*
X16039230Y-15183698D02*
X16048753Y-15202746D01*
X16048753Y-15202746D02*
X16048753Y-15259888D01*
X16048753Y-15259888D02*
X16039230Y-15278936D01*
X16039230Y-15278936D02*
X16029706Y-15288460D01*
X16029706Y-15288460D02*
X16010658Y-15297984D01*
X16010658Y-15297984D02*
X15982087Y-15297984D01*
X16163039Y-15297984D02*
X16143991Y-15288460D01*
X16143991Y-15288460D02*
X16134468Y-15269412D01*
X16134468Y-15269412D02*
X16134468Y-15097984D01*
X16315420Y-15288460D02*
X16296372Y-15297984D01*
X16296372Y-15297984D02*
X16258277Y-15297984D01*
X16258277Y-15297984D02*
X16239230Y-15288460D01*
X16239230Y-15288460D02*
X16229706Y-15269412D01*
X16229706Y-15269412D02*
X16229706Y-15193222D01*
X16229706Y-15193222D02*
X16239230Y-15174174D01*
X16239230Y-15174174D02*
X16258277Y-15164650D01*
X16258277Y-15164650D02*
X16296372Y-15164650D01*
X16296372Y-15164650D02*
X16315420Y-15174174D01*
X16315420Y-15174174D02*
X16324944Y-15193222D01*
X16324944Y-15193222D02*
X16324944Y-15212269D01*
X16324944Y-15212269D02*
X16229706Y-15231317D01*
X16401134Y-15288460D02*
X16420182Y-15297984D01*
X16420182Y-15297984D02*
X16458277Y-15297984D01*
X16458277Y-15297984D02*
X16477325Y-15288460D01*
X16477325Y-15288460D02*
X16486849Y-15269412D01*
X16486849Y-15269412D02*
X16486849Y-15259888D01*
X16486849Y-15259888D02*
X16477325Y-15240841D01*
X16477325Y-15240841D02*
X16458277Y-15231317D01*
X16458277Y-15231317D02*
X16429706Y-15231317D01*
X16429706Y-15231317D02*
X16410658Y-15221793D01*
X16410658Y-15221793D02*
X16401134Y-15202746D01*
X16401134Y-15202746D02*
X16401134Y-15193222D01*
X16401134Y-15193222D02*
X16410658Y-15174174D01*
X16410658Y-15174174D02*
X16429706Y-15164650D01*
X16429706Y-15164650D02*
X16458277Y-15164650D01*
X16458277Y-15164650D02*
X16477325Y-15174174D01*
X16553515Y-15374174D02*
X16563039Y-15364650D01*
X16563039Y-15364650D02*
X16582087Y-15336079D01*
X16582087Y-15336079D02*
X16591611Y-15317031D01*
X16591611Y-15317031D02*
X16601134Y-15288460D01*
X16601134Y-15288460D02*
X16610658Y-15240841D01*
X16610658Y-15240841D02*
X16610658Y-15202746D01*
X16610658Y-15202746D02*
X16601134Y-15155127D01*
X16601134Y-15155127D02*
X16591611Y-15126555D01*
X16591611Y-15126555D02*
X16582087Y-15107508D01*
X16582087Y-15107508D02*
X16563039Y-15078936D01*
X16563039Y-15078936D02*
X16553515Y-15069412D01*
M02*
