%TF.GenerationSoftware,KiCad,Pcbnew,8.0.6-unknown-202410280735~4a7dcfdd1f~ubuntu22.04.1*%
%TF.CreationDate,2024-10-31T16:24:39+09:00*%
%TF.ProjectId,MG5-ESP32-Shield,4d47352d-4553-4503-9332-2d536869656c,rev?*%
%TF.SameCoordinates,Original*%
%TF.FileFunction,Soldermask,Top*%
%TF.FilePolarity,Negative*%
%FSLAX46Y46*%
G04 Gerber Fmt 4.6, Leading zero omitted, Abs format (unit mm)*
G04 Created by KiCad (PCBNEW 8.0.6-unknown-202410280735~4a7dcfdd1f~ubuntu22.04.1) date 2024-10-31 16:24:39*
%MOMM*%
%LPD*%
G01*
G04 APERTURE LIST*
%ADD10C,3.200000*%
%ADD11C,1.700000*%
G04 APERTURE END LIST*
D10*
%TO.C,REF\u002A\u002A*%
X191000000Y-58000000D03*
%TD*%
D11*
%TO.C,L*%
X127000000Y-63500000D03*
X127000000Y-66040000D03*
X127000000Y-68580000D03*
%TD*%
%TO.C,REF\u002A\u002A*%
X154940000Y-55880000D03*
X157480000Y-55880000D03*
X160020000Y-55880000D03*
X162560000Y-55880000D03*
X165100000Y-55880000D03*
X167640000Y-55880000D03*
X170180000Y-55880000D03*
X172720000Y-55880000D03*
X154940000Y-58420000D03*
X157480000Y-58420000D03*
X160020000Y-58420000D03*
X162560000Y-58420000D03*
X165100000Y-58420000D03*
X167640000Y-58420000D03*
X170180000Y-58420000D03*
X172720000Y-58420000D03*
X154940000Y-60960000D03*
X157480000Y-60960000D03*
X160020000Y-60960000D03*
X162560000Y-60960000D03*
X165100000Y-60960000D03*
X167640000Y-60960000D03*
X170180000Y-60960000D03*
X172720000Y-60960000D03*
X154940000Y-63500000D03*
X157480000Y-63500000D03*
X160020000Y-63500000D03*
X162560000Y-63500000D03*
X165100000Y-63500000D03*
X167640000Y-63500000D03*
X170180000Y-63500000D03*
X172720000Y-63500000D03*
X154940000Y-66040000D03*
X157480000Y-66040000D03*
X160020000Y-66040000D03*
X162560000Y-66040000D03*
X165100000Y-66040000D03*
X167640000Y-66040000D03*
X170180000Y-66040000D03*
X172720000Y-66040000D03*
X154940000Y-68580000D03*
X157480000Y-68580000D03*
X160020000Y-68580000D03*
X162560000Y-68580000D03*
X165100000Y-68580000D03*
X167640000Y-68580000D03*
X170180000Y-68580000D03*
X172720000Y-68580000D03*
X154940000Y-71120000D03*
X157480000Y-71120000D03*
X160020000Y-71120000D03*
X162560000Y-71120000D03*
X165100000Y-71120000D03*
X167640000Y-71120000D03*
X170180000Y-71120000D03*
X172720000Y-71120000D03*
X154940000Y-73660000D03*
X157480000Y-73660000D03*
X160020000Y-73660000D03*
X162560000Y-73660000D03*
X165100000Y-73660000D03*
X167640000Y-73660000D03*
X170180000Y-73660000D03*
X172720000Y-73660000D03*
X154940000Y-76200000D03*
X157480000Y-76200000D03*
X160020000Y-76200000D03*
X162560000Y-76200000D03*
X165100000Y-76200000D03*
X167640000Y-76200000D03*
X170180000Y-76200000D03*
X172720000Y-76200000D03*
X154940000Y-78740000D03*
X157480000Y-78740000D03*
X160020000Y-78740000D03*
X162560000Y-78740000D03*
X165100000Y-78740000D03*
X167640000Y-78740000D03*
X170180000Y-78740000D03*
X172720000Y-78740000D03*
X154940000Y-81280000D03*
X157480000Y-81280000D03*
X160020000Y-81280000D03*
X162560000Y-81280000D03*
X165100000Y-81280000D03*
X167640000Y-81280000D03*
X170180000Y-81280000D03*
X172720000Y-81280000D03*
X154940000Y-83820000D03*
X157480000Y-83820000D03*
X160020000Y-83820000D03*
X162560000Y-83820000D03*
X165100000Y-83820000D03*
X167640000Y-83820000D03*
X170180000Y-83820000D03*
X172720000Y-83820000D03*
X154940000Y-86360000D03*
X157480000Y-86360000D03*
X160020000Y-86360000D03*
X162560000Y-86360000D03*
X165100000Y-86360000D03*
X167640000Y-86360000D03*
X170180000Y-86360000D03*
X172720000Y-86360000D03*
X154940000Y-88900000D03*
X157480000Y-88900000D03*
X160020000Y-88900000D03*
X162560000Y-88900000D03*
X165100000Y-88900000D03*
X167640000Y-88900000D03*
X170180000Y-88900000D03*
X172720000Y-88900000D03*
X154940000Y-91440000D03*
X157480000Y-91440000D03*
X160020000Y-91440000D03*
X162560000Y-91440000D03*
X165100000Y-91440000D03*
X167640000Y-91440000D03*
X170180000Y-91440000D03*
X172720000Y-91440000D03*
X154940000Y-93980000D03*
X157480000Y-93980000D03*
X160020000Y-93980000D03*
X162560000Y-93980000D03*
X165100000Y-93980000D03*
X167640000Y-93980000D03*
X170180000Y-93980000D03*
X172720000Y-93980000D03*
X154940000Y-96520000D03*
X157480000Y-96520000D03*
X160020000Y-96520000D03*
X162560000Y-96520000D03*
X165100000Y-96520000D03*
X167640000Y-96520000D03*
X170180000Y-96520000D03*
X172720000Y-96520000D03*
X154940000Y-99060000D03*
X157480000Y-99060000D03*
X160020000Y-99060000D03*
X162560000Y-99060000D03*
X165100000Y-99060000D03*
X167640000Y-99060000D03*
X170180000Y-99060000D03*
X172720000Y-99060000D03*
X154940000Y-101600000D03*
X157480000Y-101600000D03*
X160020000Y-101600000D03*
X162560000Y-101600000D03*
X165100000Y-101600000D03*
X167640000Y-101600000D03*
X170180000Y-101600000D03*
X172720000Y-101600000D03*
X154940000Y-104140000D03*
X157480000Y-104140000D03*
X160020000Y-104140000D03*
X162560000Y-104140000D03*
X165100000Y-104140000D03*
X167640000Y-104140000D03*
X170180000Y-104140000D03*
X172720000Y-104140000D03*
X154940000Y-106680000D03*
X157480000Y-106680000D03*
X160020000Y-106680000D03*
X162560000Y-106680000D03*
X165100000Y-106680000D03*
X167640000Y-106680000D03*
X170180000Y-106680000D03*
X172720000Y-106680000D03*
X154940000Y-109220000D03*
X157480000Y-109220000D03*
X160020000Y-109220000D03*
X162560000Y-109220000D03*
X165100000Y-109220000D03*
X167640000Y-109220000D03*
X170180000Y-109220000D03*
X172720000Y-109220000D03*
X154940000Y-111760000D03*
X157480000Y-111760000D03*
X160020000Y-111760000D03*
X162560000Y-111760000D03*
X165100000Y-111760000D03*
X167640000Y-111760000D03*
X170180000Y-111760000D03*
X172720000Y-111760000D03*
X154940000Y-114300000D03*
X157480000Y-114300000D03*
X160020000Y-114300000D03*
X162560000Y-114300000D03*
X165100000Y-114300000D03*
X167640000Y-114300000D03*
X170180000Y-114300000D03*
X172720000Y-114300000D03*
X154940000Y-116840000D03*
X157480000Y-116840000D03*
X160020000Y-116840000D03*
X162560000Y-116840000D03*
X165100000Y-116840000D03*
X167640000Y-116840000D03*
X170180000Y-116840000D03*
X172720000Y-116840000D03*
X154940000Y-119380000D03*
X157480000Y-119380000D03*
X160020000Y-119380000D03*
X162560000Y-119380000D03*
X165100000Y-119380000D03*
X167640000Y-119380000D03*
X170180000Y-119380000D03*
X172720000Y-119380000D03*
X154940000Y-121920000D03*
X157480000Y-121920000D03*
X160020000Y-121920000D03*
X162560000Y-121920000D03*
X165100000Y-121920000D03*
X167640000Y-121920000D03*
X170180000Y-121920000D03*
X172720000Y-121920000D03*
X154940000Y-124460000D03*
X157480000Y-124460000D03*
X160020000Y-124460000D03*
X162560000Y-124460000D03*
X165100000Y-124460000D03*
X167640000Y-124460000D03*
X170180000Y-124460000D03*
X172720000Y-124460000D03*
X154940000Y-127000000D03*
X157480000Y-127000000D03*
X160020000Y-127000000D03*
X162560000Y-127000000D03*
X165100000Y-127000000D03*
X167640000Y-127000000D03*
X170180000Y-127000000D03*
X172720000Y-127000000D03*
X154940000Y-129540000D03*
X157480000Y-129540000D03*
X160020000Y-129540000D03*
X162560000Y-129540000D03*
X165100000Y-129540000D03*
X167640000Y-129540000D03*
X170180000Y-129540000D03*
X172720000Y-129540000D03*
X154940000Y-132080000D03*
X157480000Y-132080000D03*
X160020000Y-132080000D03*
X162560000Y-132080000D03*
X165100000Y-132080000D03*
X167640000Y-132080000D03*
X170180000Y-132080000D03*
X172720000Y-132080000D03*
X154940000Y-134620000D03*
X157480000Y-134620000D03*
X160020000Y-134620000D03*
X162560000Y-134620000D03*
X165100000Y-134620000D03*
X167640000Y-134620000D03*
X170180000Y-134620000D03*
X172720000Y-134620000D03*
X154940000Y-137160000D03*
X157480000Y-137160000D03*
X160020000Y-137160000D03*
X162560000Y-137160000D03*
X165100000Y-137160000D03*
X167640000Y-137160000D03*
X170180000Y-137160000D03*
X172720000Y-137160000D03*
X154940000Y-139700000D03*
X157480000Y-139700000D03*
X160020000Y-139700000D03*
X162560000Y-139700000D03*
X165100000Y-139700000D03*
X167640000Y-139700000D03*
X170180000Y-139700000D03*
X172720000Y-139700000D03*
X147320000Y-78740000D03*
X149860000Y-78740000D03*
X152400000Y-78740000D03*
X147320000Y-81280000D03*
X149860000Y-81280000D03*
X152400000Y-81280000D03*
X147320000Y-83820000D03*
X149860000Y-83820000D03*
X152400000Y-83820000D03*
X175260000Y-55880000D03*
X177800000Y-55880000D03*
X180340000Y-55880000D03*
X182880000Y-55880000D03*
X185420000Y-55880000D03*
X175260000Y-58420000D03*
X177800000Y-58420000D03*
X180340000Y-58420000D03*
X182880000Y-58420000D03*
X185420000Y-58420000D03*
X175260000Y-60960000D03*
X177800000Y-60960000D03*
X180340000Y-60960000D03*
X182880000Y-60960000D03*
X185420000Y-60960000D03*
X175260000Y-63500000D03*
X177800000Y-63500000D03*
X180340000Y-63500000D03*
X182880000Y-63500000D03*
X185420000Y-63500000D03*
X187960000Y-63500000D03*
X190500000Y-63500000D03*
X193040000Y-63500000D03*
X175260000Y-66040000D03*
X177800000Y-66040000D03*
X180340000Y-66040000D03*
X182880000Y-66040000D03*
X185420000Y-66040000D03*
X187960000Y-66040000D03*
X190500000Y-66040000D03*
X193040000Y-66040000D03*
X175260000Y-68580000D03*
X177800000Y-68580000D03*
X180340000Y-68580000D03*
X182880000Y-68580000D03*
X185420000Y-68580000D03*
X187960000Y-68580000D03*
X190500000Y-68580000D03*
X193040000Y-68580000D03*
X175260000Y-71120000D03*
X177800000Y-71120000D03*
X180340000Y-71120000D03*
X182880000Y-71120000D03*
X185420000Y-71120000D03*
X187960000Y-71120000D03*
X190500000Y-71120000D03*
X193040000Y-71120000D03*
X175260000Y-73660000D03*
X177800000Y-73660000D03*
X180340000Y-73660000D03*
X182880000Y-73660000D03*
X185420000Y-73660000D03*
X187960000Y-73660000D03*
X190500000Y-73660000D03*
X193040000Y-73660000D03*
X175260000Y-76200000D03*
X177800000Y-76200000D03*
X180340000Y-76200000D03*
X182880000Y-76200000D03*
X185420000Y-76200000D03*
X187960000Y-76200000D03*
X190500000Y-76200000D03*
X193040000Y-76200000D03*
X175260000Y-78740000D03*
X177800000Y-78740000D03*
X180340000Y-78740000D03*
X182880000Y-78740000D03*
X185420000Y-78740000D03*
X187960000Y-78740000D03*
X190500000Y-78740000D03*
X193040000Y-78740000D03*
X175260000Y-81280000D03*
X177800000Y-81280000D03*
X180340000Y-81280000D03*
X182880000Y-81280000D03*
X185420000Y-81280000D03*
X187960000Y-81280000D03*
X190500000Y-81280000D03*
X193040000Y-81280000D03*
X175260000Y-83820000D03*
X177800000Y-83820000D03*
X180340000Y-83820000D03*
X182880000Y-83820000D03*
X185420000Y-83820000D03*
X187960000Y-83820000D03*
X190500000Y-83820000D03*
X193040000Y-83820000D03*
X175260000Y-86360000D03*
X177800000Y-86360000D03*
X180340000Y-86360000D03*
X182880000Y-86360000D03*
X185420000Y-86360000D03*
X187960000Y-86360000D03*
X190500000Y-86360000D03*
X193040000Y-86360000D03*
X175260000Y-88900000D03*
X177800000Y-88900000D03*
X180340000Y-88900000D03*
X182880000Y-88900000D03*
X185420000Y-88900000D03*
X187960000Y-88900000D03*
X190500000Y-88900000D03*
X193040000Y-88900000D03*
X175260000Y-91440000D03*
X177800000Y-91440000D03*
X180340000Y-91440000D03*
X182880000Y-91440000D03*
X185420000Y-91440000D03*
X187960000Y-91440000D03*
X190500000Y-91440000D03*
X193040000Y-91440000D03*
X175260000Y-93980000D03*
X177800000Y-93980000D03*
X180340000Y-93980000D03*
X182880000Y-93980000D03*
X185420000Y-93980000D03*
X187960000Y-93980000D03*
X190500000Y-93980000D03*
X193040000Y-93980000D03*
X175260000Y-96520000D03*
X177800000Y-96520000D03*
X180340000Y-96520000D03*
X182880000Y-96520000D03*
X185420000Y-96520000D03*
X187960000Y-96520000D03*
X190500000Y-96520000D03*
X193040000Y-96520000D03*
X175260000Y-99060000D03*
X177800000Y-99060000D03*
X180340000Y-99060000D03*
X182880000Y-99060000D03*
X185420000Y-99060000D03*
X187960000Y-99060000D03*
X190500000Y-99060000D03*
X193040000Y-99060000D03*
X175260000Y-101600000D03*
X177800000Y-101600000D03*
X180340000Y-101600000D03*
X182880000Y-101600000D03*
X185420000Y-101600000D03*
X187960000Y-101600000D03*
X190500000Y-101600000D03*
X193040000Y-101600000D03*
X175260000Y-104140000D03*
X177800000Y-104140000D03*
X180340000Y-104140000D03*
X182880000Y-104140000D03*
X185420000Y-104140000D03*
X187960000Y-104140000D03*
X190500000Y-104140000D03*
X193040000Y-104140000D03*
X175260000Y-106680000D03*
X177800000Y-106680000D03*
X180340000Y-106680000D03*
X182880000Y-106680000D03*
X185420000Y-106680000D03*
X187960000Y-106680000D03*
X190500000Y-106680000D03*
X193040000Y-106680000D03*
X175260000Y-109220000D03*
X177800000Y-109220000D03*
X180340000Y-109220000D03*
X182880000Y-109220000D03*
X185420000Y-109220000D03*
X187960000Y-109220000D03*
X190500000Y-109220000D03*
X193040000Y-109220000D03*
X175260000Y-111760000D03*
X177800000Y-111760000D03*
X180340000Y-111760000D03*
X182880000Y-111760000D03*
X185420000Y-111760000D03*
X187960000Y-111760000D03*
X190500000Y-111760000D03*
X193040000Y-111760000D03*
X175260000Y-114300000D03*
X177800000Y-114300000D03*
X180340000Y-114300000D03*
X182880000Y-114300000D03*
X185420000Y-114300000D03*
X187960000Y-114300000D03*
X190500000Y-114300000D03*
X193040000Y-114300000D03*
X175260000Y-116840000D03*
X177800000Y-116840000D03*
X180340000Y-116840000D03*
X182880000Y-116840000D03*
X185420000Y-116840000D03*
X187960000Y-116840000D03*
X190500000Y-116840000D03*
X193040000Y-116840000D03*
X175260000Y-119380000D03*
X177800000Y-119380000D03*
X180340000Y-119380000D03*
X182880000Y-119380000D03*
X185420000Y-119380000D03*
X187960000Y-119380000D03*
X190500000Y-119380000D03*
X193040000Y-119380000D03*
X175260000Y-121920000D03*
X177800000Y-121920000D03*
X180340000Y-121920000D03*
X182880000Y-121920000D03*
X185420000Y-121920000D03*
X187960000Y-121920000D03*
X190500000Y-121920000D03*
X193040000Y-121920000D03*
X175260000Y-124460000D03*
X177800000Y-124460000D03*
X180340000Y-124460000D03*
X182880000Y-124460000D03*
X185420000Y-124460000D03*
X187960000Y-124460000D03*
X190500000Y-124460000D03*
X193040000Y-124460000D03*
X175260000Y-127000000D03*
X177800000Y-127000000D03*
X180340000Y-127000000D03*
X182880000Y-127000000D03*
X185420000Y-127000000D03*
X187960000Y-127000000D03*
X190500000Y-127000000D03*
X193040000Y-127000000D03*
X175260000Y-129540000D03*
X177800000Y-129540000D03*
X180340000Y-129540000D03*
X182880000Y-129540000D03*
X185420000Y-129540000D03*
X187960000Y-129540000D03*
X190500000Y-129540000D03*
X193040000Y-129540000D03*
X175260000Y-132080000D03*
X177800000Y-132080000D03*
X180340000Y-132080000D03*
X182880000Y-132080000D03*
X185420000Y-132080000D03*
X187960000Y-132080000D03*
X190500000Y-132080000D03*
X193040000Y-132080000D03*
X175260000Y-134620000D03*
X177800000Y-134620000D03*
X180340000Y-134620000D03*
X182880000Y-134620000D03*
X185420000Y-134620000D03*
X175260000Y-137160000D03*
X177800000Y-137160000D03*
X180340000Y-137160000D03*
X182880000Y-137160000D03*
X185420000Y-137160000D03*
X175260000Y-139700000D03*
X177800000Y-139700000D03*
X180340000Y-139700000D03*
X182880000Y-139700000D03*
X185420000Y-139700000D03*
X147320000Y-134620000D03*
X149860000Y-134620000D03*
X152400000Y-134620000D03*
X147320000Y-137160000D03*
X149860000Y-137160000D03*
X152400000Y-137160000D03*
X147320000Y-139700000D03*
X149860000Y-139700000D03*
X152400000Y-139700000D03*
%TD*%
%TO.C,R*%
X149860000Y-58420000D03*
X149860000Y-60960000D03*
X149860000Y-63500000D03*
X149860000Y-66040000D03*
X149860000Y-68580000D03*
%TD*%
%TO.C,J5*%
X147320000Y-86360000D03*
X147320000Y-88900000D03*
X147320000Y-91440000D03*
X147320000Y-93980000D03*
X147320000Y-96520000D03*
X147320000Y-99060000D03*
X147320000Y-101600000D03*
X147320000Y-104140000D03*
X147320000Y-106680000D03*
X147320000Y-109220000D03*
X147320000Y-111760000D03*
X147320000Y-114300000D03*
X147320000Y-116840000D03*
X147320000Y-119380000D03*
X147320000Y-121920000D03*
X147320000Y-124460000D03*
X147320000Y-127000000D03*
X147320000Y-129540000D03*
X147320000Y-132080000D03*
X149860000Y-132080000D03*
X149860000Y-129540000D03*
X149860000Y-127000000D03*
X149860000Y-124460000D03*
X149860000Y-121920000D03*
X149860000Y-119380000D03*
X149860000Y-116840000D03*
X149860000Y-114300000D03*
X149860000Y-111760000D03*
X149860000Y-109220000D03*
X149860000Y-106680000D03*
X149860000Y-104140000D03*
X149860000Y-101600000D03*
X149860000Y-99060000D03*
X149860000Y-96520000D03*
X149860000Y-93980000D03*
X149860000Y-91440000D03*
X149860000Y-88900000D03*
X149860000Y-86360000D03*
%TD*%
D10*
%TO.C,REF\u002A\u002A*%
X119000000Y-59000000D03*
%TD*%
%TO.C,REF\u002A\u002A*%
X119000000Y-138000000D03*
%TD*%
D11*
%TO.C,R*%
X134620000Y-63500000D03*
X134620000Y-66040000D03*
X134620000Y-68580000D03*
%TD*%
D10*
%TO.C,REF\u002A\u002A*%
X191000000Y-138000000D03*
%TD*%
D11*
%TO.C,U1*%
X116840000Y-86360000D03*
X116840000Y-88900000D03*
X116840000Y-91440000D03*
X116840000Y-93980000D03*
X116840000Y-96520000D03*
X116840000Y-99060000D03*
X116840000Y-101600000D03*
X116840000Y-104140000D03*
X116840000Y-106680000D03*
X116840000Y-109220000D03*
X116840000Y-111760000D03*
X116840000Y-114300000D03*
X116840000Y-116840000D03*
X116840000Y-119380000D03*
X116840000Y-121920000D03*
X116840000Y-124460000D03*
X116840000Y-127000000D03*
X116840000Y-129540000D03*
X116840000Y-132080000D03*
X142240000Y-132080000D03*
X142240000Y-129540000D03*
X142240000Y-127000000D03*
X142240000Y-124460000D03*
X142240000Y-121920000D03*
X142240000Y-119380000D03*
X142240000Y-116840000D03*
X142240000Y-114300000D03*
X142240000Y-111760000D03*
X142240000Y-109220000D03*
X142240000Y-106680000D03*
X142240000Y-104140000D03*
X142240000Y-101600000D03*
X142240000Y-99060000D03*
X142240000Y-96520000D03*
X142240000Y-93980000D03*
X142240000Y-91440000D03*
X142240000Y-88900000D03*
X142240000Y-86360000D03*
%TD*%
%TO.C,L*%
X142240000Y-58420000D03*
X142240000Y-60960000D03*
X142240000Y-63500000D03*
X142240000Y-66040000D03*
X142240000Y-68580000D03*
%TD*%
M02*
